<svg xmlns="http://www.w3.org/2000/svg" width="93" height="26" viewBox="0 0 93 26" fill="none">
  <g clip-path="url(#clip0_1527_1525)">
    <path d="M8.75739 17.0608C8.95845 17.0608 9.15248 17.0449 9.34886 17.0313C5.44473 16.736 2.36819 13.5632 2.36819 9.68414C2.36819 5.60971 5.758 2.30748 9.94032 2.30748C12.6101 2.30748 14.9549 3.6588 16.3015 5.69147L16.2664 5.54612C14.9035 2.57093 12.3225 0 8.75739 0C3.92049 0 0 3.82006 0 8.5304C0 13.2407 3.92049 17.0608 8.75739 17.0608Z" fill="#019939"/>
    <path d="M7.5464 8.93695C7.34535 8.93695 7.15131 8.95285 6.95493 8.96648C10.8591 9.26172 13.9356 12.4345 13.9356 16.3136C13.9356 20.388 10.5458 23.6903 6.36347 23.6903C3.6937 23.6903 1.34889 22.3389 0.00231934 20.3063L0.0373863 20.4516C1.405 23.4291 3.98593 26 7.54874 26C12.3856 26 16.3061 22.18 16.3061 17.4696C16.3061 12.7593 12.3833 8.93695 7.5464 8.93695Z" fill="#019939"/>
    <path d="M21.6995 2.77759H22.7164L23.9882 6.22064C24.1471 6.66124 24.2991 7.11547 24.4604 7.56289H24.5001C24.6591 7.11547 24.7994 6.66124 24.9583 6.22064L26.2161 2.77759H27.233V9.22082H26.4475V5.6733C26.4475 5.11233 26.513 4.33787 26.5551 3.76781H26.5153L25.9893 5.23724L24.7409 8.57127H24.1822L22.9268 5.23724L22.4008 3.76781H22.3611C22.4031 4.33787 22.4686 5.11233 22.4686 5.6733V9.22082H21.7041V2.77759H21.6995ZM28.8999 7.47431V4.44915H29.7321V7.36984C29.7321 8.25785 30.008 8.63941 30.6602 8.63941C31.1629 8.63941 31.5112 8.39639 31.9764 7.83542V4.45142H32.8087V9.22536H32.1214L32.0512 8.47816H32.0232C31.5673 8.99825 31.0764 9.34346 30.4031 9.34346C29.3651 9.33892 28.8999 8.69164 28.8999 7.47431ZM34.4615 4.44915H35.1488L35.2189 5.13731H35.247C35.7146 4.68989 36.2195 4.33105 36.8952 4.33105C37.9308 4.33105 38.396 4.9806 38.396 6.19793V9.22309H37.5638V6.3024C37.5638 5.41439 37.2879 5.03284 36.6357 5.03284C36.133 5.03284 35.7847 5.28266 35.2938 5.76641V9.22309H34.4615V4.44915ZM39.8361 2.94566C39.8361 2.6277 40.0862 2.4233 40.4112 2.4233C40.7338 2.4233 40.9863 2.6277 40.9863 2.94566C40.9863 3.24999 40.7362 3.46802 40.4112 3.46802C40.0862 3.46802 39.8361 3.24999 39.8361 2.94566ZM39.9881 4.44915H40.8203V9.22309H39.9881V4.44915ZM42.1084 6.84066C42.1084 5.24859 43.2166 4.33105 44.472 4.33105C45.1172 4.33105 45.5637 4.58996 45.9097 4.89203L45.4842 5.42574C45.199 5.17365 44.8951 5.00331 44.5094 5.00331C43.6187 5.00331 42.9664 5.74825 42.9664 6.84066C42.9664 7.93535 43.5836 8.66666 44.486 8.66666C44.9348 8.66666 45.3323 8.45544 45.6385 8.19199L45.9985 8.73252C45.5567 9.11407 45.0003 9.33892 44.4112 9.33892C43.1043 9.33892 42.1084 8.42138 42.1084 6.84066ZM46.9266 2.94566C46.9266 2.6277 47.1768 2.4233 47.5017 2.4233C47.8244 2.4233 48.0768 2.6277 48.0768 2.94566C48.0768 3.24999 47.8267 3.46802 47.5017 3.46802C47.1791 3.46802 46.9266 3.24999 46.9266 2.94566ZM47.0786 4.44915H47.9109V9.22309H47.0786V4.44915ZM49.566 4.44915H50.2533L50.3235 5.00104H50.3515C50.7957 4.6422 51.3474 4.33333 51.9179 4.33333C53.1873 4.33333 53.8652 5.28948 53.8652 6.76572C53.8652 8.39185 52.86 9.34346 51.7378 9.34346C51.2866 9.34346 50.8261 9.14133 50.3749 8.79157L50.3983 9.62508V11.2399H49.566V4.44915ZM53.0049 6.77026C53.0049 5.71645 52.6356 5.01012 51.7098 5.01012C51.2937 5.01012 50.8752 5.2327 50.3959 5.66194V8.16474C50.8401 8.52812 51.2679 8.66212 51.5929 8.66212C52.4065 8.65985 53.0049 7.94898 53.0049 6.77026ZM54.7255 7.98305C54.7255 6.94286 55.649 6.42277 57.7436 6.20247C57.7413 5.58926 57.5309 4.9965 56.729 4.9965C56.161 4.9965 55.649 5.25768 55.2632 5.5075L54.9383 4.95562C55.3895 4.66718 56.0791 4.33333 56.867 4.33333C58.0663 4.33333 58.5736 5.10778 58.5736 6.29559V9.22309H57.8863L57.8161 8.65303H57.7881C57.3205 9.03231 56.7735 9.34119 56.1633 9.34119C55.3427 9.33892 54.7255 8.84381 54.7255 7.98305ZM57.7436 8.05799V6.73165C56.0978 6.9247 55.5414 7.31533 55.5414 7.92627C55.5414 8.46907 55.9202 8.68937 56.4017 8.68937C56.8763 8.68937 57.2667 8.46453 57.7436 8.05799ZM60.1212 8.2624V2.22571H60.9534V8.32145C60.9534 8.569 61.0633 8.66666 61.1849 8.66666C61.2316 8.66666 61.2737 8.66666 61.3672 8.64622L61.4795 9.26397C61.3626 9.30485 61.22 9.33892 61.0002 9.33892C60.3783 9.33892 60.1212 8.95282 60.1212 8.2624ZM62.5455 2.94566C62.5455 2.6277 62.7956 2.4233 63.1206 2.4233C63.4432 2.4233 63.6957 2.6277 63.6957 2.94566C63.6957 3.24999 63.4455 3.46802 63.1206 3.46802C62.798 3.46802 62.5455 3.24999 62.5455 2.94566ZM62.6974 4.44915H63.5297V9.22309H62.6974V4.44915ZM64.8342 6.84066C64.8342 5.29175 65.8394 4.33105 66.9593 4.33105C67.5297 4.33105 67.9061 4.54 68.3362 4.88294L68.3011 4.06533V2.22571H69.1334V9.22082H68.4461L68.376 8.65757H68.3479C67.9668 9.02777 67.4432 9.33892 66.8564 9.33892C65.629 9.33892 64.8342 8.43273 64.8342 6.84066ZM68.3011 8.00803V5.5075C67.8827 5.14412 67.504 5.01012 67.1019 5.01012C66.3164 5.01012 65.6922 5.74597 65.6922 6.83385C65.6922 7.9785 66.1808 8.65985 67.0411 8.65985C67.4946 8.65985 67.8897 8.44409 68.3011 8.00803ZM70.487 7.98305C70.487 6.94286 71.4104 6.42277 73.5051 6.20247C73.5028 5.58926 73.2923 4.9965 72.4905 4.9965C71.9224 4.9965 71.4104 5.25768 71.0247 5.5075L70.6997 4.95335C71.1509 4.66491 71.8406 4.33105 72.6284 4.33105C73.8277 4.33105 74.335 5.10551 74.335 6.29332V9.22082H73.6477L73.5776 8.65076H73.5495C73.0819 9.03004 72.5349 9.33892 71.9247 9.33892C71.1042 9.33892 70.487 8.84381 70.487 7.98305ZM73.5028 8.05799V6.73165C71.8569 6.9247 71.3005 7.31533 71.3005 7.92627C71.3005 8.46907 71.6793 8.68937 72.1609 8.68937C72.6354 8.68937 73.0282 8.46453 73.5028 8.05799ZM75.532 6.84066C75.532 5.29175 76.5372 4.33105 77.657 4.33105C78.2274 4.33105 78.6038 4.54 79.034 4.88294L78.9989 4.06533V2.22571H79.8312V9.22082H79.1439L79.0737 8.65757H79.0457C78.6646 9.02777 78.1409 9.33892 77.5542 9.33892C76.3268 9.33892 75.532 8.43273 75.532 6.84066ZM78.9989 8.00803V5.5075C78.5805 5.14412 78.2017 5.01012 77.7996 5.01012C77.0141 5.01012 76.3899 5.74597 76.3899 6.83385C76.3899 7.9785 76.8762 8.65985 77.7388 8.65985C78.1947 8.65985 78.5875 8.44409 78.9989 8.00803ZM83.1602 6.84066C83.1602 5.29175 84.1655 4.33105 85.2853 4.33105C85.8557 4.33105 86.2321 4.54 86.6622 4.88294L86.6272 4.06533V2.22571H87.4594V9.22082H86.7721L86.702 8.65757H86.6739C86.2928 9.02777 85.7692 9.33892 85.1824 9.33892C83.9551 9.33892 83.1602 8.43273 83.1602 6.84066ZM86.6272 8.00803V5.5075C86.2087 5.14412 85.83 5.01012 85.4279 5.01012C84.6424 5.01012 84.0182 5.74597 84.0182 6.83385C84.0182 7.9785 84.5068 8.65985 85.3671 8.65985C85.8206 8.65985 86.2157 8.44409 86.6272 8.00803ZM88.7522 6.84066C88.7522 5.2872 89.8299 4.33105 90.9614 4.33105C92.2145 4.33105 92.9229 5.20544 92.9229 6.5704C92.9229 6.74073 92.9088 6.91107 92.8831 7.02917H89.5751C89.6336 8.03982 90.2718 8.69618 91.2069 8.69618C91.6791 8.69618 92.0649 8.54856 92.4296 8.31463L92.7265 8.84381C92.2963 9.11862 91.7727 9.33892 91.104 9.33892C89.7925 9.33892 88.7522 8.41002 88.7522 6.84066ZM92.1864 6.4523C92.1864 5.49615 91.7446 4.97606 90.9755 4.97606C90.2858 4.97606 89.6686 5.51432 89.5658 6.4523H92.1864Z" fill="#019939"/>
    <path d="M21.7415 22.6251L23.2517 20.8717C24.0793 21.5713 25.1524 22.0527 26.1085 22.0527C27.2073 22.0527 27.745 21.6326 27.745 20.9603C27.745 20.2495 27.0834 20.0201 26.0665 19.6158L24.5539 18.989C23.3476 18.512 22.2044 17.5491 22.2044 15.907C22.2044 14.0334 23.9274 12.5389 26.3493 12.5389C27.6889 12.5389 29.0892 13.0522 30.0922 14.0197L28.7643 15.63C27.9975 15.0599 27.2681 14.7442 26.3493 14.7442C25.4423 14.7442 24.8648 15.1121 24.8648 15.7571C24.8648 16.4498 25.627 16.7019 26.6416 17.0948L28.1237 17.6785C29.5451 18.2372 30.4311 19.1548 30.4311 20.7536C30.4311 22.6296 28.8204 24.2557 26.0478 24.2557C24.5375 24.258 22.9268 23.7016 21.7415 22.6251Z" fill="#019939"/>
    <path d="M34.5854 12.7479H37.7321L41.3861 24.0491H38.6017L37.0798 18.3258C36.7572 17.1948 36.4463 15.8593 36.1354 14.6806H36.0629C35.7824 15.873 35.4714 17.1948 35.1465 18.3258L33.6176 24.0491H30.9291L34.5854 12.7479ZM33.3394 19.3728H38.9384V21.3578H33.3394V19.3728Z" fill="#019939"/>
    <path d="M41.9214 18.4643C41.9214 14.7147 44.472 12.5412 47.4129 12.5412C48.9161 12.5412 50.1294 13.2294 50.9126 14.0084L49.5263 15.6458C48.9418 15.1189 48.3153 14.7465 47.4714 14.7465C45.877 14.7465 44.6169 16.1137 44.6169 18.378C44.6169 20.7014 45.7297 22.0527 47.4293 22.0527C48.3854 22.0527 49.1359 21.5962 49.7063 20.9966L51.0926 22.6023C50.1271 23.6948 48.8413 24.2603 47.3358 24.2603C44.3855 24.258 41.9214 22.2708 41.9214 18.4643Z" fill="#019939"/>
    <path d="M55.0271 12.7479H58.1738L61.8278 24.0491H59.0458L57.5239 18.3258C57.2013 17.1948 56.8904 15.8593 56.5794 14.6806H56.507C56.2264 15.873 55.9155 17.1948 55.5905 18.3258L54.0616 24.0491H51.3732L55.0271 12.7479ZM53.7834 19.3728H59.3801V21.3578H53.7834V19.3728Z" fill="#019939"/>
    <path d="M62.9499 12.7479H65.6454L68.6799 18.3689L69.8301 20.8513H69.9025C69.7786 19.6567 69.5659 18.0737 69.5659 16.7405V12.7479H72.072V24.0513H69.3765L66.3421 18.4166L65.1919 15.9479H65.1194C65.2433 17.1948 65.456 18.7096 65.456 20.0405V24.0513H62.9499V12.7479Z" fill="#019939"/>
    <path d="M77.0983 14.8918H73.8978V12.7479H82.9311V14.8918H79.7306V24.0513H77.0983V14.8918Z" fill="#019939"/>
    <path d="M86.2017 12.7479H89.3484L93.0023 24.0491H90.218L88.6961 18.3258C88.3735 17.1948 88.0626 15.8593 87.7516 14.6806H87.6792C87.3986 15.873 87.0877 17.1948 86.7628 18.3258L85.2338 24.0491H82.5454L86.2017 12.7479ZM84.9556 19.3728H90.5547V21.3578H84.9556V19.3728Z" fill="#019939"/>
  </g>
  <defs>
    <clipPath id="clip0_1527_1525">
      <rect width="93" height="26" fill="white"/>
    </clipPath>
  </defs>
</svg>