<svg xmlns="http://www.w3.org/2000/svg" width="50" height="25" viewBox="0 0 50 25" fill="none">
  <g clip-path="url(#clip0_1527_1538)">
    <path d="M6.84482 16.4218C6.84482 18.124 4.848 18.4306 3.7221 18.5009C3.71217 18.9576 3.96384 19.3408 4.60626 19.3408C5.10961 19.3408 5.59308 19.1269 5.9739 18.9161L6.34148 20.0019C6.13286 20.1424 5.30167 20.5991 4.12279 20.5991C2.58957 20.5991 1.95708 19.7081 1.95708 18.5105C1.95708 16.7859 3.1459 15.0933 5.18577 15.0933C6.21564 15.0933 6.84482 15.55 6.84482 16.4218ZM4.9341 16.2909C4.31485 16.2909 3.96715 16.9296 3.83138 17.4757C4.44069 17.447 5.30167 17.1628 5.30167 16.6134C5.30167 16.3931 5.12285 16.2909 4.9341 16.2909Z" fill="#019939"/>
    <path d="M6.92761 20.4364L7.68594 16.291L7.74886 15.2467H9.19928L9.21915 15.8056C9.62978 15.3712 10.1762 15.0966 10.8815 15.0966C11.7524 15.0966 12.279 15.483 12.2889 16.3549C12.2889 16.5177 12.269 16.7189 12.2359 16.9138L11.5835 20.4428H9.82846L10.3749 17.412C10.408 17.2491 10.4576 17.0159 10.4576 16.8243C10.4576 16.6231 10.3749 16.3996 10.057 16.3996C9.6066 16.3996 9.34168 16.7253 9.26883 17.1501L8.66945 20.4459H6.92761V20.4364Z" fill="#019939"/>
    <path d="M18.6536 13.5858L17.1402 21.8382C17.1071 22.0299 17.0905 22.2247 17.0905 22.3684C17.1071 22.7548 17.2892 22.8985 17.6734 22.8985C17.9217 22.8985 18.2893 22.8027 18.7065 22.643L19.0046 24.4251C18.3555 24.7956 17.2892 25.0032 16.5408 25.0032C14.7758 25.0032 14.2592 24.2175 14.2427 22.9784C14.2427 22.6239 14.2923 22.2406 14.3586 21.8382L15.8719 13.5858H18.6536Z" fill="#019939"/>
    <path d="M19.6702 24.7445L21.1703 16.524H23.9519L22.4518 24.7445H19.6702ZM23.2168 12.8481C23.9983 12.8481 24.4818 13.3623 24.4818 13.9882C24.4818 14.8377 23.7168 15.5148 22.7333 15.5148C21.9352 15.5148 21.4849 15.0485 21.4849 14.4066C21.4849 13.5699 22.2167 12.8481 23.2168 12.8481Z" fill="#019939"/>
    <path d="M24.1804 24.7445L25.3792 18.1783L25.4785 16.524H27.7767L27.8098 17.4087C28.4588 16.7188 29.3231 16.2845 30.4391 16.2845C31.82 16.2845 32.6545 16.8945 32.671 18.2741C32.671 18.5296 32.6379 18.8522 32.5882 19.1588L31.5551 24.7477H28.7734L29.6377 19.9476C29.6874 19.6921 29.7702 19.3217 29.7702 19.0151C29.7702 18.6925 29.6377 18.3412 29.1377 18.3412C28.4224 18.3412 28.0052 18.8554 27.8893 19.5292L26.9389 24.7477H24.1804V24.7445Z" fill="#019939"/>
    <path d="M41.1418 18.3859C41.1418 21.0846 37.9793 21.5636 36.1978 21.6786C36.1812 22.4004 36.5819 23.0104 37.5952 23.0104C38.3933 23.0104 39.1615 22.6718 39.7609 22.3365L40.3437 24.0547C40.0093 24.2782 38.6946 25.0032 36.8303 25.0032C34.3996 25.0032 33.3996 23.5916 33.3996 21.6946C33.3996 18.964 35.2805 16.2845 38.5092 16.2845C40.145 16.2813 41.1418 17.0063 41.1418 18.3859ZM38.1118 18.1783C37.1283 18.1783 36.5786 19.1907 36.3633 20.0562C37.3303 20.0083 38.6946 19.558 38.6946 18.6925C38.6946 18.338 38.4131 18.1783 38.1118 18.1783Z" fill="#019939"/>
    <path d="M48.884 23.0103L48.7681 24.7445H46.4203V23.9908L46.3375 23.9748C45.7547 24.6327 45.0063 24.9872 44.0062 24.9872C42.2246 24.9872 41.4266 23.7193 41.4266 21.9852C41.4266 18.6925 43.3241 16.2845 46.8044 16.2845C47.5031 16.2845 48.7516 16.4442 50 16.9264L48.884 23.0103ZM47.0197 18.2901C46.8375 18.2103 46.5693 18.1624 46.2713 18.1624C44.7579 18.1624 44.2082 20.3628 44.2082 21.6786C44.2082 22.4483 44.3904 23.0742 45.1917 23.0742C45.758 23.0742 46.1587 22.7197 46.3243 22.1576L47.0197 18.2901Z" fill="#019939"/>
    <path d="M41.761 3.92501C41.5127 3.99208 41.3007 4.14218 41.1584 4.34658L39.5722 2.22279C39.4033 1.99604 39.1483 1.83955 38.8635 1.79165C38.8635 1.79165 38.4165 1.72777 37.9893 1.97368C37.4826 2.32499 37.3667 3.00843 37.731 3.50026L37.9495 3.79407L38.3933 4.38809L39.7609 6.21806C39.1648 6.37775 38.8138 6.97177 38.9794 7.54982C39.0158 7.67757 39.0754 7.79893 39.1582 7.90432L40.7345 10.0153L41.3604 10.8521L41.5888 11.1555C41.6385 11.2225 41.7114 11.2704 41.7942 11.2928L43.9963 11.8868L45.0229 13.2633C45.1454 13.4262 45.3805 13.4645 45.5494 13.3463L49.8444 10.3634C50.0132 10.2453 50.0497 10.0185 49.9305 9.85565L48.8675 8.43447L48.3972 6.59811C48.384 6.5534 48.3641 6.51188 48.3376 6.47356L45.9103 3.21921C45.5361 2.74016 44.8407 2.63158 44.3274 2.97011C44.1685 3.08189 44.046 3.22879 43.9665 3.40125C43.4201 3.18089 42.7909 3.41083 42.5326 3.92501M45.4103 12.5415L44.5261 11.3567C44.4765 11.2896 44.4036 11.2417 44.3208 11.2193L42.1187 10.6253L39.7675 7.47317C39.6516 7.3071 39.6947 7.08035 39.8702 6.96857C40.0358 6.85999 40.2576 6.89512 40.3802 7.04842L41.7081 8.82729L42.3207 8.40253L38.3469 3.0755C38.2244 2.91262 38.2641 2.68587 38.433 2.56771C38.6052 2.45273 38.837 2.49106 38.9628 2.65074L41.8339 6.49591L42.0558 6.79292L42.6684 6.36817L41.7842 5.18332C41.6683 5.01725 41.7147 4.7905 41.8869 4.67872C42.0525 4.57333 42.2776 4.60846 42.3968 4.76175L42.6187 5.05876L43.281 5.9466L43.8936 5.52184L43.6718 5.22483L43.2313 4.63401C43.1088 4.47113 43.1486 4.24119 43.3174 4.12621C43.4863 4.00805 43.7247 4.04637 43.844 4.20925L44.0625 4.50307L44.5029 5.09389L45.1156 4.66914L44.6785 4.07831C44.5559 3.91543 44.5957 3.68868 44.7646 3.57052C44.9334 3.45874 45.1686 3.49387 45.2911 3.65355L47.6787 6.85041L48.1522 8.68677C48.1654 8.73148 48.1853 8.77299 48.2118 8.81132L49.096 9.99617L45.4103 12.5415Z" fill="#019939"/>
    <path d="M10.1397 1.21997H13.1035L11.7226 11.8964H9.02709L9.72581 6.32664H9.65958L7.06338 10.8233H5.05L4.08305 6.40967H4.03338L2.69554 11.8964H0L2.57964 1.21997H5.54341L6.67594 7.22406H6.74217L10.1397 1.21997Z" fill="#019939"/>
    <path d="M21.975 3.6759L20.7762 10.3379L20.6603 11.8964H18.329V11.1108L18.2297 11.0948C17.4813 11.8804 16.6634 12.1072 15.8984 12.1072C14.299 12.1072 13.5174 11.4173 13.5174 10.0217C13.5174 9.78219 13.5506 9.45963 13.6002 9.1722L14.6003 3.68229H17.3819L16.4282 8.84645C16.3951 9.07 16.362 9.28078 16.362 9.45644C16.362 9.8269 16.4945 10.0824 17.0276 10.0824C17.6104 10.0824 18.127 9.61612 18.2429 8.95822L19.1933 3.6759H21.975Z" fill="#019939"/>
    <path d="M22.2233 11.8964L23.4221 5.33026L23.5214 3.67595H25.8196L25.8527 4.5574C26.5018 3.86757 27.3661 3.43323 28.482 3.43323C29.8629 3.43323 30.6974 4.04322 30.714 5.42288C30.714 5.67837 30.6808 6.00093 30.6312 6.30753L29.598 11.8932H26.8163L27.6806 7.09317C27.7303 6.83767 27.8131 6.46721 27.8131 6.16062C27.8131 5.83806 27.6806 5.48675 27.1806 5.48675C26.4653 5.48675 26.0481 6.00093 25.9322 6.6748L24.9818 11.8932H22.2233V11.8964Z" fill="#019939"/>
    <path d="M31.2769 11.8964L32.7737 3.67591H35.5553L34.0585 11.8964H31.2769ZM34.8235 0C35.605 0 36.0885 0.51418 36.0885 1.14014C36.0885 1.98965 35.3235 2.66671 34.34 2.66671C33.542 2.66671 33.0916 2.20043 33.0916 1.55851C33.0916 0.721768 33.8234 0 34.8235 0Z" fill="#019939"/>
  </g>
  <defs>
    <clipPath id="clip0_1527_1538">
      <rect width="50" height="25" fill="white"/>
    </clipPath>
  </defs>
</svg>