<?xml version="1.0" encoding="UTF-8"?>
<!DOCTYPE svg PUBLIC "-//W3C//DTD SVG 1.1//EN" "http://www.w3.org/Graphics/SVG/1.1/DTD/svg11.dtd">
<svg xmlns="http://www.w3.org/2000/svg" version="1.1" width="3568px" height="1425px" style="shape-rendering:geometricPrecision; text-rendering:geometricPrecision; image-rendering:optimizeQuality; fill-rule:evenodd; clip-rule:evenodd" xmlns:xlink="http://www.w3.org/1999/xlink">
<g><path style="opacity:1" fill="#b43528" d="M 820.5,-0.5 C 828.167,-0.5 835.833,-0.5 843.5,-0.5C 982.769,4.00349 1106.1,50.1702 1213.5,138C 1224.98,147.643 1235.98,157.81 1246.5,168.5C 1099.43,98.0658 947.099,85.2325 789.5,130C 636.319,178.219 519.819,271.719 440,410.5C 363.743,556.25 352.41,706.917 406,862.5C 464.031,1010.53 564.864,1118.7 708.5,1187C 688.836,1184.01 669.503,1179.34 650.5,1173C 485.528,1117.03 365.361,1010.53 290,853.5C 231.07,721.27 219.404,584.936 255,444.5C 296.498,296.404 380.998,179.904 508.5,95C 603.637,34.3798 707.637,2.54648 820.5,-0.5 Z"/></g>
<g><path style="opacity:1" fill="#52903b" d="M 745.5,1424.5 C 720.5,1424.5 695.5,1424.5 670.5,1424.5C 482.942,1411.62 324.108,1337.96 194,1203.5C 71.9602,1070.68 7.12685,913.677 -0.5,732.5C -0.5,719.167 -0.5,705.833 -0.5,692.5C 7.79567,497.641 81.129,332.141 219.5,196C 267.379,150.453 320.545,112.286 379,81.5C 379.5,81.6667 380,81.8333 380.5,82C 241.501,206.5 164.001,362.333 148,549.5C 136.457,737.52 190.123,903.853 309,1048.5C 448.806,1208.04 625.306,1284.21 838.5,1277C 1025.29,1261.53 1178.45,1182.37 1298,1039.5C 1337.11,991.306 1369.44,938.639 1395,881.5C 1373.32,973.839 1334.66,1058.17 1279,1134.5C 1159.08,1294.43 999.581,1389.27 800.5,1419C 782.052,1421.23 763.719,1423.06 745.5,1424.5 Z"/></g>
<g><path style="opacity:1" fill="#e1c038" d="M 946.5,170.5 C 1109.06,171.709 1241.56,234.709 1344,359.5C 1348,364.833 1352,370.167 1356,375.5C 1356.67,376.167 1356.67,376.833 1356,377.5C 1169.95,289.561 978.788,276.728 782.5,339C 671.593,377.067 573.093,435.233 487,513.5C 496.837,479.48 510.837,447.146 529,416.5C 595.876,305.326 691.376,230.159 815.5,191C 858.447,178.605 902.114,171.771 946.5,170.5 Z"/></g>
<g><path style="opacity:1" fill="#b43528" d="M 1924.5,323.5 C 1930.99,322.99 1935.49,325.657 1938,331.5C 1938.94,348.489 1939.6,365.489 1940,382.5C 1951.73,374.13 1964.73,369.13 1979,367.5C 2002.43,369.976 2012.1,382.976 2008,406.5C 2002.82,428.048 1994.15,448.048 1982,466.5C 1968.77,487.079 1953.27,505.913 1935.5,523C 1926.53,527.647 1919.36,525.814 1914,517.5C 1913.85,489.482 1914.35,461.482 1915.5,433.5C 1909.55,433.714 1906.88,430.88 1907.5,425C 1907.9,418.796 1910.07,413.296 1914,408.5C 1914.79,384.654 1914.62,360.821 1913.5,337C 1913.33,333.871 1914.16,331.037 1916,328.5C 1918.68,326.415 1921.52,324.748 1924.5,323.5 Z M 1969.5,391.5 C 1981.44,389.604 1986.6,394.604 1985,406.5C 1981.33,421.514 1975.33,435.514 1967,448.5C 1958.52,462.316 1948.52,474.983 1937,486.5C 1935.97,462.678 1937.3,439.012 1941,415.5C 1947.98,404.342 1957.48,396.342 1969.5,391.5 Z"/></g>
<g><path style="opacity:1" fill="#b43528" d="M 1639.5,326.5 C 1645.27,325.913 1649.77,327.913 1653,332.5C 1653.46,354.525 1654.29,376.525 1655.5,398.5C 1668.18,396.808 1680.84,394.975 1693.5,393C 1702.8,391.135 1707.47,394.969 1707.5,404.5C 1707.94,408.18 1706.94,411.347 1704.5,414C 1688.56,417.488 1672.56,420.655 1656.5,423.5C 1657.43,455.174 1658.27,486.84 1659,518.5C 1657.06,522.386 1653.9,524.053 1649.5,523.5C 1637.18,522.587 1632.35,515.92 1635,503.5C 1634.35,477.833 1633.68,452.166 1633,426.5C 1623.97,428.699 1614.81,429.865 1605.5,430C 1600.34,423.943 1599.17,417.109 1602,409.5C 1602.5,409 1603,408.5 1603.5,408C 1613.09,405.716 1622.75,403.883 1632.5,402.5C 1632.07,379.164 1631.91,355.831 1632,332.5C 1633.71,329.41 1636.21,327.41 1639.5,326.5 Z"/></g>
<g><path style="opacity:1" fill="#b43528" d="M 2132.5,328.5 C 2139.25,327.295 2145.08,328.962 2150,333.5C 2153.95,342.767 2151.12,348.6 2141.5,351C 2129.33,353.368 2123.16,348.535 2123,336.5C 2124.91,332.301 2128.08,329.634 2132.5,328.5 Z"/></g>
<g><path style="opacity:1" fill="#b43528" d="M 2501.5,328.5 C 2507.11,327.908 2512.44,328.741 2517.5,331C 2518.89,332.171 2519.73,333.671 2520,335.5C 2521.7,396.848 2527.2,457.848 2536.5,518.5C 2535.63,522.87 2532.96,525.37 2528.5,526C 2522.81,526.974 2517.31,526.474 2512,524.5C 2510.78,505.474 2509.28,486.474 2507.5,467.5C 2502.28,479.617 2495.78,490.95 2488,501.5C 2481.27,509.902 2473.11,516.402 2463.5,521C 2435.22,527.24 2420.89,515.74 2420.5,486.5C 2422.6,449.783 2438.6,420.949 2468.5,400C 2477.64,394.048 2487.64,391.548 2498.5,392.5C 2496.9,372.198 2496.07,351.865 2496,331.5C 2497.88,330.391 2499.71,329.391 2501.5,328.5 Z M 2484.5,416.5 C 2490.89,415.723 2495.05,418.39 2497,424.5C 2497.37,436.033 2495.03,447.033 2490,457.5C 2483.58,473.57 2473.75,487.07 2460.5,498C 2448.88,502.856 2442.54,499.023 2441.5,486.5C 2445.6,461.127 2456.94,439.627 2475.5,422C 2478.56,420.141 2481.56,418.308 2484.5,416.5 Z"/></g>
<g><path style="opacity:1" fill="#47628e" d="M 904.5,341.5 C 941.599,338.287 968.099,353.287 984,386.5C 995.291,423.298 985.124,452.465 953.5,474C 927.663,486.962 901.997,486.629 876.5,473C 845.778,450.834 836.278,421.667 848,385.5C 859.534,361.332 878.368,346.665 904.5,341.5 Z"/></g>
<g><path style="opacity:1" fill="#b43528" d="M 1794.5,367.5 C 1806.24,366.931 1811.74,372.597 1811,384.5C 1810.42,386.002 1809.58,387.335 1808.5,388.5C 1787.67,399.001 1770.84,414.001 1758,433.5C 1752.98,443.906 1750.32,454.906 1750,466.5C 1749.64,484.508 1749.64,502.508 1750,520.5C 1743.04,526.815 1735.7,527.148 1728,521.5C 1726.96,519.285 1726.29,516.952 1726,514.5C 1723.3,470.37 1719.63,426.37 1715,382.5C 1717.21,378.311 1720.71,376.644 1725.5,377.5C 1730.81,377.101 1735.31,378.768 1739,382.5C 1740.62,393.435 1741.96,404.435 1743,415.5C 1749.7,405.126 1757.53,395.626 1766.5,387C 1775.38,379.738 1784.71,373.238 1794.5,367.5 Z"/></g>
<g><path style="opacity:1" fill="#b43528" d="M 2590.5,367.5 C 2593.22,367.678 2595.88,368.178 2598.5,369C 2600.44,371.218 2602.77,372.885 2605.5,374C 2632.05,377.554 2646.89,392.72 2650,419.5C 2652.34,443.101 2649.67,466.101 2642,488.5C 2636.42,504.078 2626.09,515.078 2611,521.5C 2590.06,526.857 2573.73,520.523 2562,502.5C 2543.14,465.98 2542.81,429.313 2561,392.5C 2567.74,380.244 2577.57,371.911 2590.5,367.5 Z M 2596.5,395.5 C 2614.14,395.299 2624.3,403.966 2627,421.5C 2629.59,442.387 2627.25,462.721 2620,482.5C 2616.81,490.4 2611.65,496.567 2604.5,501C 2596.68,503.839 2590.18,502.005 2585,495.5C 2575.68,480.58 2571.18,464.247 2571.5,446.5C 2570.7,430.344 2574.87,415.677 2584,402.5C 2587.74,399.219 2591.91,396.885 2596.5,395.5 Z"/></g>
<g><path style="opacity:1" fill="#b43528" d="M 3037.5,367.5 C 3050.29,367.776 3055.45,374.109 3053,386.5C 3036.85,395.424 3022.51,406.758 3010,420.5C 2999.25,432.748 2993.58,447.082 2993,463.5C 2992.5,482.181 2992.5,500.848 2993,519.5C 2991.74,522.428 2989.57,524.261 2986.5,525C 2980.73,526.29 2975.56,525.123 2971,521.5C 2970.33,520.167 2969.67,518.833 2969,517.5C 2966.1,472.067 2962.43,426.734 2958,381.5C 2960.65,378.137 2964.15,376.803 2968.5,377.5C 2973.81,377.101 2978.31,378.768 2982,382.5C 2983.45,393.422 2984.62,404.422 2985.5,415.5C 2998.74,394.92 3016.07,378.92 3037.5,367.5 Z"/></g>
<g><path style="opacity:1" fill="#b43528" d="M 3377.5,367.5 C 3383.51,367.509 3388.51,369.676 3392.5,374C 3414.4,375.891 3428.56,387.391 3435,408.5C 3441.07,439.225 3437.74,468.891 3425,497.5C 3410.83,522.112 3390.66,528.946 3364.5,518C 3349.93,506.712 3341.1,491.878 3338,473.5C 3330.88,442.53 3335.55,413.53 3352,386.5C 3358.73,377.573 3367.23,371.24 3377.5,367.5 Z M 3384.5,395.5 C 3401.2,395.695 3411.03,404.028 3414,420.5C 3416.75,440.971 3414.75,460.971 3408,480.5C 3405.4,487.76 3401.23,493.927 3395.5,499C 3384.9,505.02 3376.4,502.854 3370,492.5C 3359.05,470.918 3356.05,448.251 3361,424.5C 3362.86,414.269 3367.7,405.769 3375.5,399C 3378.46,397.396 3381.46,396.229 3384.5,395.5 Z"/></g>
<g><path style="opacity:1" fill="#b43528" d="M 2820.5,369.5 C 2831.67,369.157 2839.17,374.157 2843,384.5C 2847.71,405.935 2844.71,426.268 2834,445.5C 2817.99,473.85 2796.66,497.517 2770,516.5C 2769.99,548.919 2769.32,581.252 2768,613.5C 2762.14,619.004 2755.64,619.837 2748.5,616C 2747.3,615.097 2746.47,613.931 2746,612.5C 2746.31,559.172 2746.47,505.838 2746.5,452.5C 2739.75,452.916 2736.42,449.749 2736.5,443C 2736.85,435.129 2740.02,428.629 2746,423.5C 2746.33,416.833 2746.67,410.167 2747,403.5C 2747.7,396.134 2751.7,392.134 2759,391.5C 2763.2,392.128 2767.03,393.294 2770.5,395C 2784.93,381.954 2801.59,373.454 2820.5,369.5 Z M 2815.5,393.5 C 2819.49,392.616 2822.32,393.949 2824,397.5C 2825.17,407.648 2823.5,417.314 2819,426.5C 2809.65,446.845 2796.82,464.679 2780.5,480C 2776.75,482.624 2772.92,485.124 2769,487.5C 2769.32,467.855 2769.99,448.188 2771,428.5C 2782.97,413.11 2797.8,401.443 2815.5,393.5 Z"/></g>
<g><path style="opacity:1" fill="#b43528" d="M 3310.5,369.5 C 3315.45,368.959 3320.12,369.792 3324.5,372C 3327.36,375.681 3328.19,379.848 3327,384.5C 3315.33,429.833 3303.67,475.167 3292,520.5C 3286.09,523.807 3279.92,524.307 3273.5,522C 3255.43,481.464 3237.93,440.631 3221,399.5C 3217.62,390.862 3220.46,385.362 3229.5,383C 3234.71,381.706 3239.21,382.872 3243,386.5C 3254.17,417.17 3266.17,447.503 3279,477.5C 3280.79,474.042 3282.12,470.376 3283,466.5C 3289.99,434.886 3297.99,403.553 3307,372.5C 3308.15,371.364 3309.31,370.364 3310.5,369.5 Z"/></g>
<g><path style="opacity:1" fill="#b43528" d="M 1863.5,370.5 C 1877.73,368.69 1886.56,374.69 1890,388.5C 1891.98,402.082 1892.98,415.749 1893,429.5C 1893.39,461.188 1894.06,492.854 1895,524.5C 1892.08,528.873 1887.92,530.873 1882.5,530.5C 1877.08,530.873 1872.92,528.873 1870,524.5C 1871.39,500.534 1872.06,476.534 1872,452.5C 1866.7,471.76 1858.7,489.76 1848,506.5C 1836.09,522.138 1820.59,527.638 1801.5,523C 1795.51,520.341 1791.67,515.841 1790,509.5C 1787.79,496.288 1788.79,483.288 1793,470.5C 1801.96,441.909 1815.63,415.909 1834,392.5C 1842.35,382.963 1852.18,375.63 1863.5,370.5 Z M 1861.5,398.5 C 1863.24,400.375 1864.24,402.708 1864.5,405.5C 1859.64,437.209 1848.14,466.209 1830,492.5C 1827.5,495 1825,497.5 1822.5,500C 1818.8,502.325 1815.64,501.825 1813,498.5C 1816.57,462.197 1830.4,430.364 1854.5,403C 1856.76,401.212 1859.09,399.712 1861.5,398.5 Z"/></g>
<g><path style="opacity:1" fill="#b43528" d="M 2077.5,370.5 C 2093.63,368.989 2102.47,376.323 2104,392.5C 2105.06,400.464 2105.72,408.464 2106,416.5C 2106.44,452.516 2107.11,488.516 2108,524.5C 2105.08,528.873 2100.92,530.873 2095.5,530.5C 2089.88,530.609 2085.71,528.275 2083,523.5C 2084.85,500.238 2085.52,476.905 2085,453.5C 2080.03,472.091 2072.37,489.424 2062,505.5C 2049.5,522.825 2033,528.325 2012.5,522C 2009.33,520.167 2006.83,517.667 2005,514.5C 2000.88,500.151 2001.22,485.818 2006,471.5C 2014.2,444.101 2026.87,419.101 2044,396.5C 2053.07,384.907 2064.24,376.24 2077.5,370.5 Z M 2074.5,398.5 C 2075.5,398.47 2076.16,398.97 2076.5,400C 2077.7,405.846 2077.53,411.679 2076,417.5C 2069.93,443.718 2059.6,468.052 2045,490.5C 2042.16,494.043 2038.99,497.21 2035.5,500C 2029.21,503.055 2025.88,501.055 2025.5,494C 2030.63,463.251 2042.46,435.418 2061,410.5C 2065.1,405.892 2069.6,401.892 2074.5,398.5 Z"/></g>
<g><path style="opacity:1" fill="#b43528" d="M 2247.5,370.5 C 2263.51,369.669 2272.35,377.335 2274,393.5C 2275.12,403.13 2275.79,412.796 2276,422.5C 2276.4,456.519 2277.06,490.519 2278,524.5C 2275.08,528.873 2270.92,530.873 2265.5,530.5C 2260.08,530.873 2255.92,528.873 2253,524.5C 2254.56,500.878 2255.23,477.211 2255,453.5C 2250.83,466.832 2245.83,479.832 2240,492.5C 2234.95,502.45 2228.11,510.95 2219.5,518C 2207.81,525.003 2195.48,526.336 2182.5,522C 2178.61,519.778 2175.78,516.612 2174,512.5C 2170.88,499.788 2171.21,487.122 2175,474.5C 2183.92,443.323 2198.59,415.323 2219,390.5C 2226.98,381.445 2236.48,374.779 2247.5,370.5 Z M 2244.5,398.5 C 2245.59,398.62 2246.25,399.287 2246.5,400.5C 2247.38,407.551 2246.88,414.551 2245,421.5C 2238.72,446.696 2228.39,470.029 2214,491.5C 2199.48,506.942 2193.82,504.275 2197,483.5C 2204.04,453.254 2217.54,426.42 2237.5,403C 2239.9,401.476 2242.23,399.976 2244.5,398.5 Z"/></g>
<g><path style="opacity:1" fill="#b43528" d="M 2914.5,370.5 C 2929.3,368.642 2938.14,374.975 2941,389.5C 2941.96,394.123 2942.62,398.79 2943,403.5C 2944,443.517 2945,483.517 2946,523.5C 2943.55,528.72 2939.38,531.054 2933.5,530.5C 2928.08,530.873 2923.92,528.873 2921,524.5C 2922.3,500.529 2922.97,476.529 2923,452.5C 2917.7,471.76 2909.7,489.76 2899,506.5C 2887.09,522.138 2871.59,527.638 2852.5,523C 2845.05,519.623 2840.88,513.79 2840,505.5C 2839.03,494.654 2840.03,483.988 2843,473.5C 2851.5,443.493 2865.5,416.493 2885,392.5C 2893.35,382.963 2903.18,375.63 2914.5,370.5 Z M 2911.5,398.5 C 2912.5,398.414 2913.33,398.748 2914,399.5C 2915.21,409.27 2914.21,418.937 2911,428.5C 2904.2,451.434 2894.2,472.768 2881,492.5C 2878.13,495.704 2874.96,498.537 2871.5,501C 2868.32,502.036 2865.82,501.203 2864,498.5C 2863.3,490.309 2864.3,482.309 2867,474.5C 2874.39,450.047 2885.73,427.714 2901,407.5C 2904.1,403.886 2907.6,400.886 2911.5,398.5 Z"/></g>
<g><path style="opacity:1" fill="#b43528" d="M 3106.5,370.5 C 3121.3,368.642 3130.14,374.975 3133,389.5C 3133.93,394.799 3134.6,400.133 3135,405.5C 3135.45,444.869 3136.45,484.202 3138,523.5C 3135.55,528.72 3131.38,531.054 3125.5,530.5C 3120.56,530.687 3116.39,529.021 3113,525.5C 3114.1,501.185 3114.77,476.852 3115,452.5C 3109.61,472.265 3101.28,490.598 3090,507.5C 3075.94,524.64 3058.77,528.807 3038.5,520C 3033.16,513.332 3030.83,505.665 3031.5,497C 3037.43,451.798 3056.43,413.132 3088.5,381C 3094.1,376.703 3100.1,373.203 3106.5,370.5 Z M 3103.5,398.5 C 3104.5,398.414 3105.33,398.748 3106,399.5C 3107.01,410.442 3105.68,421.109 3102,431.5C 3095.19,453.788 3085.19,474.454 3072,493.5C 3059.68,505.937 3054.34,503.604 3056,486.5C 3062.06,460.062 3072.72,435.729 3088,413.5C 3092.4,407.597 3097.57,402.597 3103.5,398.5 Z"/></g>
<g><path style="opacity:1" fill="#b43528" d="M 3539.5,370.5 C 3546.04,369.989 3552.38,370.822 3558.5,373C 3563.76,378.161 3564.76,383.995 3561.5,390.5C 3531.58,392.212 3506.74,404.545 3487,427.5C 3483.98,431.199 3481.81,435.366 3480.5,440C 3480.64,440.772 3480.98,441.439 3481.5,442C 3484.33,442.167 3487.17,442.333 3490,442.5C 3501.86,441.274 3513.69,439.774 3525.5,438C 3533.5,437.333 3541.5,437.333 3549.5,438C 3562.56,440.612 3567.72,448.445 3565,461.5C 3561.5,472.827 3556.17,483.16 3549,492.5C 3539.91,504.926 3529.41,516.093 3517.5,526C 3509.39,528.869 3502.89,526.702 3498,519.5C 3495.95,515.971 3496.28,512.638 3499,509.5C 3515.48,497.696 3528.31,482.863 3537.5,465C 3537.04,464.586 3536.71,464.086 3536.5,463.5C 3534.17,463.167 3531.83,462.833 3529.5,462.5C 3515.22,464.398 3500.88,465.731 3486.5,466.5C 3458.66,467.81 3449.16,455.143 3458,428.5C 3476.43,396.902 3503.6,377.569 3539.5,370.5 Z"/></g>
<g><path style="opacity:1" fill="#b43528" d="M 2134.5,372.5 C 2139.27,372.191 2143.93,372.691 2148.5,374C 2150.73,375.227 2152.23,377.061 2153,379.5C 2155.27,410.964 2156.77,442.464 2157.5,474C 2157.69,498.99 2155.86,523.823 2152,548.5C 2149.14,567.873 2142.14,585.539 2131,601.5C 2114.95,619.3 2095.79,623.466 2073.5,614C 2063.94,610.107 2055.77,604.273 2049,596.5C 2046.31,586.224 2050.14,579.557 2060.5,576.5C 2065.84,579.326 2070.51,583.16 2074.5,588C 2080.45,592.059 2086.95,594.893 2094,596.5C 2101.46,595.269 2107.8,591.936 2113,586.5C 2122.61,572.356 2128.27,556.69 2130,539.5C 2135,487.089 2134.17,434.756 2127.5,382.5C 2127.9,377.654 2130.24,374.32 2134.5,372.5 Z"/></g>
<g><path style="opacity:1" fill="#b43528" d="M 2354.5,372.5 C 2366.7,371.167 2376.2,375.5 2383,385.5C 2392.24,404.103 2397.9,423.769 2400,444.5C 2403.66,468.718 2405.66,493.051 2406,517.5C 2402.62,522.19 2397.95,524.523 2392,524.5C 2387.84,524.382 2384.18,523.049 2381,520.5C 2381.73,489.308 2379.73,458.308 2375,427.5C 2373.33,418.837 2370.67,410.503 2367,402.5C 2365.2,399.363 2362.53,397.363 2359,396.5C 2355.35,398.771 2352.35,401.771 2350,405.5C 2339.74,426.849 2332.41,449.182 2328,472.5C 2324.9,488.427 2322.23,504.427 2320,520.5C 2318.74,523.428 2316.57,525.261 2313.5,526C 2306.23,527.588 2299.73,526.088 2294,521.5C 2293.04,519.801 2292.54,517.967 2292.5,516C 2294.95,493.741 2295.95,471.407 2295.5,449C 2295.48,427.799 2294.98,406.633 2294,385.5C 2298.86,381.716 2304.36,380.549 2310.5,382C 2312.59,382.792 2314.42,383.959 2316,385.5C 2317.28,399.765 2317.95,414.099 2318,428.5C 2321.22,414.491 2326.22,401.158 2333,388.5C 2338.12,380.186 2345.29,374.852 2354.5,372.5 Z"/></g>
<g><path style="opacity:1" fill="#47628e" d="M 995.5,466.5 C 1012.73,473.447 1028.4,482.947 1042.5,495C 1052.73,504 1060.07,514.834 1064.5,527.5C 1031.87,529.818 1003.54,541.985 979.5,564C 968.911,573.918 959.078,584.418 950,595.5C 937.383,583.232 922.883,573.732 906.5,567C 874.297,555.699 847.13,562.866 825,588.5C 810.967,610.365 806.967,634.031 813,659.5C 820.506,688.347 833.672,714.18 852.5,737C 808.389,709.156 779.889,669.656 767,618.5C 754.789,552.606 777.456,502.94 835,469.5C 858.082,507.206 891.249,520.706 934.5,510C 960.034,502.61 980.367,488.11 995.5,466.5 Z"/></g>
<g><path style="opacity:1" fill="#47628e" d="M 723.5,550.5 C 725.167,550.5 726.833,550.5 728.5,550.5C 720.438,585.669 724.604,619.336 741,651.5C 746.235,661.889 752.068,671.889 758.5,681.5C 737.068,691.765 720.234,707.098 708,727.5C 692.415,762.995 699.915,792.495 730.5,816C 755.655,830.583 782.655,835.583 811.5,831C 828.366,828.867 844.699,824.7 860.5,818.5C 860.833,818.833 861.167,819.167 861.5,819.5C 808.736,860.519 750.069,872.019 685.5,854C 639.414,835.398 611.747,801.564 602.5,752.5C 647.211,740.078 670.545,710.411 672.5,663.5C 671.478,638.93 663.811,616.763 649.5,597C 665.428,578.725 684.428,564.725 706.5,555C 712.253,553.314 717.919,551.814 723.5,550.5 Z"/></g>
<g><path style="opacity:1" fill="#47628e" d="M 1074.5,562.5 C 1112.41,562.297 1145.08,575.131 1172.5,601C 1142.98,636.003 1141.14,672.503 1167,710.5C 1181.95,730.736 1201.45,744.736 1225.5,752.5C 1224.49,780.354 1215.99,805.687 1200,828.5C 1197.32,831.35 1194.48,834.016 1191.5,836.5C 1182.57,817.824 1170.57,801.324 1155.5,787C 1135.29,770.892 1112.96,758.392 1088.5,749.5C 1104.3,721.423 1106.47,692.423 1095,662.5C 1081.94,638.46 1061.61,626.127 1034,625.5C 1012.04,626.904 992.204,634.07 974.5,647C 954.895,662.605 938.062,680.771 924,701.5C 936.017,654.819 961.517,617.319 1000.5,589C 1022.94,573.688 1047.61,564.855 1074.5,562.5 Z"/></g>
<g><path style="opacity:1" fill="#47628e" d="M 563.5,583.5 C 607.082,581.271 633.916,601.271 644,643.5C 647.482,676.697 635.315,702.197 607.5,720C 579.928,733.05 553.595,731.05 528.5,714C 503.246,690.485 496.079,662.319 507,629.5C 517.954,604.37 536.787,589.036 563.5,583.5 Z"/></g>
<g><path style="opacity:1" fill="#47628e" d="M 1244.5,586.5 C 1281.7,585.995 1306.86,602.995 1320,637.5C 1329.23,672.492 1319.39,700.659 1290.5,722C 1257.95,738.825 1228.11,734.992 1201,710.5C 1176.48,680.545 1174.15,648.878 1194,615.5C 1206.78,598.694 1223.62,589.028 1244.5,586.5 Z"/></g>
<g><path style="opacity:1" fill="#191919" d="M 2200.5,695.5 C 2234.9,693.197 2260.57,706.864 2277.5,736.5C 2271.17,737.833 2264.83,737.833 2258.5,736.5C 2241.08,713.526 2218.41,706.026 2190.5,714C 2161.44,727.606 2148.61,750.44 2152,782.5C 2161.45,821.277 2185.95,837.777 2225.5,832C 2238.84,828.175 2249.51,820.675 2257.5,809.5C 2263.81,808.336 2270.14,808.169 2276.5,809C 2257.54,841.139 2229.54,853.806 2192.5,847C 2155.37,835.679 2136.03,810.512 2134.5,771.5C 2137.71,729.637 2159.71,704.303 2200.5,695.5 Z"/></g>
<g><path style="opacity:1" fill="#191919" d="M 1623.5,698.5 C 1631.09,698.186 1638.59,698.519 1646,699.5C 1662.13,741.09 1678.8,782.423 1696,823.5C 1712.4,782.127 1728.9,740.794 1745.5,699.5C 1752.8,698.503 1760.14,698.169 1767.5,698.5C 1767.5,747.5 1767.5,796.5 1767.5,845.5C 1762.83,845.5 1758.17,845.5 1753.5,845.5C 1753.67,803.499 1753.5,761.499 1753,719.5C 1736.55,761.51 1719.72,803.343 1702.5,845C 1697.58,845.802 1692.75,845.635 1688,844.5C 1671.67,803.5 1655.33,762.5 1639,721.5C 1638.5,762.832 1638.33,804.165 1638.5,845.5C 1633.5,845.5 1628.5,845.5 1623.5,845.5C 1623.5,796.5 1623.5,747.5 1623.5,698.5 Z"/></g>
<g><path style="opacity:1" fill="#191919" d="M 1803.5,698.5 C 1808.83,698.5 1814.17,698.5 1819.5,698.5C 1819.03,735.874 1819.53,773.207 1821,810.5C 1827.74,829.871 1841.24,837.371 1861.5,833C 1873.99,828.163 1880.82,818.997 1882,805.5C 1883.44,769.859 1883.94,734.192 1883.5,698.5C 1888.5,698.5 1893.5,698.5 1898.5,698.5C 1898.67,733.502 1898.5,768.502 1898,803.5C 1896.58,832.924 1881.24,848.257 1852,849.5C 1829.29,850.094 1814.29,839.761 1807,818.5C 1805.15,810.613 1804.15,802.613 1804,794.5C 1803.5,762.502 1803.33,730.502 1803.5,698.5 Z"/></g>
<g><path style="opacity:1" fill="#191919" d="M 1935.5,698.5 C 1942.09,698.189 1948.59,698.522 1955,699.5C 1981,741.5 2007,783.5 2033,825.5C 2032.98,783.164 2032.48,740.83 2031.5,698.5C 2036.83,698.5 2042.17,698.5 2047.5,698.5C 2047.5,747.5 2047.5,796.5 2047.5,845.5C 2041.16,845.666 2034.82,845.5 2028.5,845C 2001.96,803.419 1975.79,761.586 1950,719.5C 1950.12,761.497 1950.28,803.497 1950.5,845.5C 1945.5,845.5 1940.5,845.5 1935.5,845.5C 1935.5,796.5 1935.5,747.5 1935.5,698.5 Z"/></g>
<g><path style="opacity:1" fill="#191919" d="M 2087.5,698.5 C 2092.5,698.5 2097.5,698.5 2102.5,698.5C 2102.5,747.5 2102.5,796.5 2102.5,845.5C 2097.5,845.5 2092.5,845.5 2087.5,845.5C 2087.5,796.5 2087.5,747.5 2087.5,698.5 Z"/></g>
<g><path style="opacity:1" fill="#191919" d="M 2310.5,698.5 C 2315.5,698.5 2320.5,698.5 2325.5,698.5C 2325.5,747.5 2325.5,796.5 2325.5,845.5C 2320.5,845.5 2315.5,845.5 2310.5,845.5C 2310.5,796.5 2310.5,747.5 2310.5,698.5 Z"/></g>
<g><path style="opacity:1" fill="#191919" d="M 2364.5,698.5 C 2380.17,698.333 2395.84,698.5 2411.5,699C 2436.17,701.84 2449.51,715.673 2451.5,740.5C 2451.23,759.58 2442.56,773.08 2425.5,781C 2422.83,781.667 2420.17,782.333 2417.5,783C 2404.87,784.292 2392.2,784.792 2379.5,784.5C 2379.5,804.833 2379.5,825.167 2379.5,845.5C 2374.5,845.5 2369.5,845.5 2364.5,845.5C 2364.5,796.5 2364.5,747.5 2364.5,698.5 Z M 2379.5,713.5 C 2387.84,713.334 2396.17,713.5 2404.5,714C 2430.16,716.139 2439.33,729.639 2432,754.5C 2426.85,762.67 2419.35,767.17 2409.5,768C 2399.51,768.5 2389.51,768.666 2379.5,768.5C 2379.5,750.167 2379.5,731.833 2379.5,713.5 Z"/></g>
<g><path style="opacity:1" fill="#191919" d="M 2508.5,698.5 C 2514.76,698.19 2520.92,698.524 2527,699.5C 2545.84,748.017 2564.67,796.517 2583.5,845C 2577.8,845.83 2572.14,845.663 2566.5,844.5C 2560.83,829.833 2555.17,815.167 2549.5,800.5C 2528.17,799.334 2506.84,799.167 2485.5,800C 2479.34,814.992 2473.67,830.159 2468.5,845.5C 2462.79,845.829 2457.13,845.495 2451.5,844.5C 2470.51,795.805 2489.51,747.138 2508.5,698.5 Z M 2516.5,714.5 C 2525.86,737.577 2534.86,760.911 2543.5,784.5C 2525.84,785.666 2508.18,785.833 2490.5,785C 2499.66,761.674 2508.33,738.174 2516.5,714.5 Z"/></g>
<g><path style="opacity:1" fill="#191919" d="M 2606.5,698.5 C 2611.83,698.5 2617.17,698.5 2622.5,698.5C 2622.5,742.5 2622.5,786.5 2622.5,830.5C 2639.5,830.5 2656.5,830.5 2673.5,830.5C 2673.5,835.5 2673.5,840.5 2673.5,845.5C 2651.17,845.5 2628.83,845.5 2606.5,845.5C 2606.5,796.5 2606.5,747.5 2606.5,698.5 Z"/></g>
<g><path style="opacity:1" fill="#191919" d="M 2705.5,698.5 C 2710.5,698.5 2715.5,698.5 2720.5,698.5C 2720.5,747.5 2720.5,796.5 2720.5,845.5C 2715.5,845.5 2710.5,845.5 2705.5,845.5C 2705.5,796.5 2705.5,747.5 2705.5,698.5 Z"/></g>
<g><path style="opacity:1" fill="#191919" d="M 2760.5,698.5 C 2779.17,698.333 2797.84,698.5 2816.5,699C 2848.81,702.971 2868.98,720.805 2877,752.5C 2882.44,777.618 2877.78,800.618 2863,821.5C 2851.32,835.255 2836.49,843.089 2818.5,845C 2799.17,845.5 2779.84,845.667 2760.5,845.5C 2760.5,796.5 2760.5,747.5 2760.5,698.5 Z M 2775.5,713.5 C 2791.21,713.118 2806.87,713.618 2822.5,715C 2843.16,721.332 2855.99,735.166 2861,756.5C 2864.99,776.261 2861.66,794.594 2851,811.5C 2842.63,821.936 2831.8,828.102 2818.5,830C 2804.2,831.323 2789.87,831.823 2775.5,831.5C 2775.5,792.167 2775.5,752.833 2775.5,713.5 Z"/></g>
<g><path style="opacity:1" fill="#191919" d="M 2949.5,698.5 C 2955.83,698.5 2962.17,698.5 2968.5,698.5C 2986.59,747.356 3005.26,796.023 3024.5,844.5C 3018.83,845.833 3013.17,845.833 3007.5,844.5C 3001.83,829.833 2996.17,815.167 2990.5,800.5C 2969.17,799.334 2947.84,799.167 2926.5,800C 2920.34,814.992 2914.67,830.159 2909.5,845.5C 2903.82,845.666 2898.16,845.499 2892.5,845C 2911.41,796.115 2930.41,747.282 2949.5,698.5 Z M 2957.5,715.5 C 2967.56,738.303 2976.56,761.636 2984.5,785.5C 2967.17,785.5 2949.83,785.5 2932.5,785.5C 2940.83,762.177 2949.16,738.844 2957.5,715.5 Z"/></g>
<g><path style="opacity:1" fill="#191919" d="M 3048.5,698.5 C 3066.84,698.333 3085.17,698.5 3103.5,699C 3128.98,701.149 3147.48,713.649 3159,736.5C 3171.54,766.881 3168.54,795.547 3150,822.5C 3138.23,835.971 3123.39,843.471 3105.5,845C 3086.5,845.5 3067.5,845.667 3048.5,845.5C 3048.5,796.5 3048.5,747.5 3048.5,698.5 Z M 3063.5,713.5 C 3076.5,713.333 3089.5,713.5 3102.5,714C 3126.29,717.114 3141.45,730.281 3148,753.5C 3153.07,774.669 3149.73,794.336 3138,812.5C 3129.5,821.837 3119,827.671 3106.5,830C 3092.2,831.297 3077.86,831.797 3063.5,831.5C 3063.5,792.167 3063.5,752.833 3063.5,713.5 Z"/></g>
<g><path style="opacity:1" fill="#191919" d="M 3315.5,698.5 C 3334.17,698.333 3352.84,698.5 3371.5,699C 3402.32,702.834 3422.15,719.668 3431,749.5C 3437.85,775.571 3433.52,799.571 3418,821.5C 3406.33,835.253 3391.5,843.086 3373.5,845C 3354.17,845.5 3334.84,845.667 3315.5,845.5C 3315.5,796.5 3315.5,747.5 3315.5,698.5 Z M 3330.5,713.5 C 3346.21,713.118 3361.87,713.618 3377.5,715C 3398.25,721.415 3411.08,735.248 3416,756.5C 3419.88,776.238 3416.54,794.571 3406,811.5C 3397.6,821.889 3386.77,828.055 3373.5,830C 3359.2,831.323 3344.87,831.823 3330.5,831.5C 3330.5,792.167 3330.5,752.833 3330.5,713.5 Z"/></g>
<g><path style="opacity:1" fill="#191919" d="M 3466.5,698.5 C 3492.17,698.5 3517.83,698.5 3543.5,698.5C 3543.5,703.5 3543.5,708.5 3543.5,713.5C 3522.83,713.5 3502.17,713.5 3481.5,713.5C 3481.5,730.5 3481.5,747.5 3481.5,764.5C 3502.17,764.5 3522.83,764.5 3543.5,764.5C 3543.5,769.5 3543.5,774.5 3543.5,779.5C 3522.83,779.5 3502.17,779.5 3481.5,779.5C 3481.5,796.5 3481.5,813.5 3481.5,830.5C 3502.17,830.5 3522.83,830.5 3543.5,830.5C 3543.5,835.5 3543.5,840.5 3543.5,845.5C 3517.83,845.5 3492.17,845.5 3466.5,845.5C 3466.5,796.5 3466.5,747.5 3466.5,698.5 Z"/></g>
<g><path style="opacity:1" fill="#47628e" d="M 979.5,758.5 C 1039.97,756.158 1090.81,777.158 1132,821.5C 1166.48,866.625 1171.48,914.959 1147,966.5C 1097.71,948.267 1059.04,961.6 1031,1006.5C 1021.94,1023 1016.94,1040.67 1016,1059.5C 1015.68,1061.06 1014.85,1062.23 1013.5,1063C 996.9,1065.29 980.234,1065.96 963.5,1065C 950.729,1063.81 938.729,1060.14 927.5,1054C 926.643,1053.31 925.977,1052.48 925.5,1051.5C 951.979,1029.57 968.479,1001.57 975,967.5C 977.651,954.963 979.151,942.296 979.5,929.5C 1005.87,935.034 1030.87,931.534 1054.5,919C 1082.01,900.498 1091.84,874.998 1084,842.5C 1077.43,823.215 1066.27,807.048 1050.5,794C 1029.31,777.405 1005.64,765.572 979.5,758.5 Z"/></g>
<g><path style="opacity:1" fill="#47628e" d="M 944.5,835.5 C 948.552,845.023 951.385,855.023 953,865.5C 960.879,911.028 953.879,954.028 932,994.5C 899.251,1045.95 853.085,1066.12 793.5,1055C 798.084,1012.84 781.084,982.84 742.5,965C 717.199,954.316 691.366,952.816 665,960.5C 650.362,936.24 643.695,909.907 645,881.5C 645.26,877.576 646.26,873.909 648,870.5C 677.594,890.089 710.094,897.589 745.5,893C 757.652,891.586 769.652,889.419 781.5,886.5C 783.562,918.134 797.228,943.3 822.5,962C 849.776,976.321 875.776,974.321 900.5,956C 920.423,937.667 933.256,915.167 939,888.5C 942.651,871.022 944.484,853.356 944.5,835.5 Z"/></g>
<g><path style="opacity:1" fill="#191919" d="M 1681.5,912.5 C 1726.84,910.031 1755.01,930.698 1766,974.5C 1767.41,981.436 1768.24,988.436 1768.5,995.5C 1758.5,995.5 1748.5,995.5 1738.5,995.5C 1738.23,976.789 1730.89,961.623 1716.5,950C 1693.05,938.351 1671.55,941.184 1652,958.5C 1638.53,975.291 1635.2,993.957 1642,1014.5C 1648.68,1026.5 1658.51,1035 1671.5,1040C 1692.4,1047.08 1713.06,1054.74 1733.5,1063C 1762.65,1077.94 1776.65,1101.94 1775.5,1135C 1776.19,1166.96 1765.19,1193.96 1742.5,1216C 1718.88,1233.66 1692.55,1239.33 1663.5,1233C 1630.42,1223.58 1609.92,1202.08 1602,1168.5C 1600.08,1158.92 1598.92,1149.25 1598.5,1139.5C 1608.83,1139.5 1619.17,1139.5 1629.5,1139.5C 1628.78,1163.9 1638.45,1182.73 1658.5,1196C 1681.89,1206.32 1703.89,1203.99 1724.5,1189C 1742.4,1169.51 1747.57,1147.01 1740,1121.5C 1732.11,1106.61 1720.61,1095.45 1705.5,1088C 1689.48,1080.88 1673.15,1074.55 1656.5,1069C 1615.41,1050.98 1599.57,1019.82 1609,975.5C 1619.14,938.179 1643.31,917.179 1681.5,912.5 Z"/></g>
<g><path style="opacity:1" fill="#191919" d="M 2280.5,912.5 C 2346.3,907.82 2397.14,932.82 2433,987.5C 2435.15,991.441 2436.98,995.441 2438.5,999.5C 2425.82,999.832 2413.15,999.499 2400.5,998.5C 2366.21,951.564 2320.55,934.73 2263.5,948C 2214.56,964.943 2184.73,998.776 2174,1049.5C 2166.1,1108.2 2186.27,1154.37 2234.5,1188C 2266.92,1205.79 2300.92,1209.46 2336.5,1199C 2362.08,1190.04 2382.75,1174.54 2398.5,1152.5C 2411.17,1151.17 2423.83,1151.17 2436.5,1152.5C 2408.82,1202.86 2366.16,1230.36 2308.5,1235C 2237.11,1237.24 2185.27,1206.74 2153,1143.5C 2131.72,1091.7 2134.06,1041.03 2160,991.5C 2187.64,946.022 2227.81,919.688 2280.5,912.5 Z"/></g>
<g><path style="opacity:1" fill="#191919" d="M 1936.5,918.5 C 1949.18,918.168 1961.85,918.501 1974.5,919.5C 2014.5,1022.5 2054.5,1125.5 2094.5,1228.5C 2083.17,1229.83 2071.83,1229.83 2060.5,1228.5C 2048.17,1196.5 2035.83,1164.5 2023.5,1132.5C 1977.83,1131.17 1932.17,1131.17 1886.5,1132.5C 1874.06,1164.39 1861.89,1196.39 1850,1228.5C 1838.91,1229.49 1827.75,1229.82 1816.5,1229.5C 1856.22,1125.73 1896.22,1022.07 1936.5,918.5 Z M 1954.5,950.5 C 1974,1000.99 1993.33,1051.66 2012.5,1102.5C 1974.17,1103.67 1935.84,1103.83 1897.5,1103C 1916.41,1052.12 1935.41,1001.28 1954.5,950.5 Z"/></g>
<g><path style="opacity:1" fill="#191919" d="M 2600.5,918.5 C 2613.41,918.178 2626.25,918.511 2639,919.5C 2678.83,1022.5 2718.67,1125.5 2758.5,1228.5C 2747.17,1229.83 2735.83,1229.83 2724.5,1228.5C 2712.46,1196.2 2700.12,1164.03 2687.5,1132C 2641.83,1131.5 2596.17,1131.33 2550.5,1131.5C 2538.64,1163.91 2526.47,1196.25 2514,1228.5C 2502.89,1229.82 2491.73,1229.82 2480.5,1228.5C 2520.7,1125.22 2560.7,1021.89 2600.5,918.5 Z M 2618.5,950.5 C 2638,1000.99 2657.33,1051.66 2676.5,1102.5C 2638.17,1103.67 2599.84,1103.83 2561.5,1103C 2580.8,1052.28 2599.8,1001.44 2618.5,950.5 Z"/></g>
<g><path style="opacity:1" fill="#191919" d="M 2817.5,918.5 C 2830.17,918.333 2842.84,918.5 2855.5,919C 2911.54,1008.92 2967.71,1098.75 3024,1188.5C 3023.21,1098.5 3022.04,1008.5 3020.5,918.5C 3030.83,918.5 3041.17,918.5 3051.5,918.5C 3051.5,1022.17 3051.5,1125.83 3051.5,1229.5C 3038.92,1229.82 3026.42,1229.49 3014,1228.5C 2958,1138.5 2902,1048.5 2846,958.5C 2846.76,1048.83 2847.59,1139.16 2848.5,1229.5C 2838.17,1229.5 2827.83,1229.5 2817.5,1229.5C 2817.5,1125.83 2817.5,1022.17 2817.5,918.5 Z"/></g>
<g><path style="opacity:1" fill="#191919" d="M 3121.5,918.5 C 3173.17,918.5 3224.83,918.5 3276.5,918.5C 3276.5,928.833 3276.5,939.167 3276.5,949.5C 3255.83,949.5 3235.17,949.5 3214.5,949.5C 3214.5,1042.83 3214.5,1136.17 3214.5,1229.5C 3204.17,1229.5 3193.83,1229.5 3183.5,1229.5C 3183.5,1136.17 3183.5,1042.83 3183.5,949.5C 3162.83,949.5 3142.17,949.5 3121.5,949.5C 3121.5,939.167 3121.5,928.833 3121.5,918.5 Z"/></g>
<g><path style="opacity:1" fill="#191919" d="M 3567.5,1226.5 C 3567.5,1227.5 3567.5,1228.5 3567.5,1229.5C 3556.25,1229.82 3545.09,1229.49 3534,1228.5C 3521.53,1196.25 3509.36,1163.91 3497.5,1131.5C 3451.83,1131.33 3406.17,1131.5 3360.5,1132C 3348.27,1164.19 3335.94,1196.36 3323.5,1228.5C 3312.52,1229.5 3301.52,1229.83 3290.5,1229.5C 3330.03,1126.08 3369.86,1022.75 3410,919.5C 3422.75,918.511 3435.59,918.178 3448.5,918.5C 3487.65,1021.45 3527.31,1124.11 3567.5,1226.5 Z M 3427.5,950.5 C 3428.12,950.611 3428.62,950.944 3429,951.5C 3447.98,1002.09 3467.14,1052.59 3486.5,1103C 3448.16,1103.83 3409.83,1103.67 3371.5,1102.5C 3390.74,1052.02 3409.41,1001.35 3427.5,950.5 Z"/></g>
<g><path style="opacity:1" fill="#47628e" d="M 684.5,980.5 C 724.971,979.135 751.805,997.468 765,1035.5C 772.229,1073.54 758.729,1101.37 724.5,1119C 691.291,1130.36 662.791,1123.19 639,1097.5C 618.197,1068.51 617.197,1038.84 636,1008.5C 648.661,992.987 664.828,983.654 684.5,980.5 Z"/></g>
<g><path style="opacity:1" fill="#47628e" d="M 1109.5,988.5 C 1155.26,990.101 1180.6,1013.6 1185.5,1059C 1183.38,1093.26 1166.38,1116.59 1134.5,1129C 1101.72,1137.96 1074.55,1129.46 1053,1103.5C 1039.08,1081.38 1036.75,1058.05 1046,1033.5C 1058.77,1006.55 1079.94,991.551 1109.5,988.5 Z"/></g>
</svg>
