<?xml version="1.0" encoding="UTF-8"?>
<!DOCTYPE svg PUBLIC "-//W3C//DTD SVG 1.1//EN" "http://www.w3.org/Graphics/SVG/1.1/DTD/svg11.dtd">
<svg xmlns="http://www.w3.org/2000/svg" version="1.1" width="2533px" height="3093px" style="shape-rendering:geometricPrecision; text-rendering:geometricPrecision; image-rendering:optimizeQuality; fill-rule:evenodd; clip-rule:evenodd" xmlns:xlink="http://www.w3.org/1999/xlink">
<g><path style="opacity:1" fill="#b43528" d="M 1400.5,-0.5 C 1426.17,-0.5 1451.83,-0.5 1477.5,-0.5C 1669.3,11.7638 1834.3,83.9305 1972.5,216C 1780.81,124.193 1582.81,108.193 1378.5,168C 1203.78,224.05 1065.28,327.883 963,479.5C 855.813,649.464 823.813,832.797 867,1029.5C 910.966,1201.7 1003.8,1340.87 1145.5,1447C 1187.55,1477.71 1232.22,1504.37 1279.5,1527C 1117.67,1491.69 981.166,1413.19 870,1291.5C 725.352,1126.57 659.685,933.905 673,713.5C 692.676,494.958 785.509,315.125 951.5,174C 1082.09,68.0568 1231.76,9.89013 1400.5,-0.5 Z"/></g>
<g><path style="opacity:1" fill="#52903b" d="M 856.5,103.5 C 857.239,103.369 857.906,103.536 858.5,104C 702.541,242.342 606.041,414.842 569,621.5C 537.196,817.879 565.863,1004.88 655,1182.5C 745.152,1353.99 877.319,1482.15 1051.5,1567C 1233.06,1649.63 1420.4,1665.63 1613.5,1615C 1802,1560.23 1954.17,1454.06 2070,1296.5C 2106.67,1245.53 2138,1191.2 2164,1133.5C 2110.8,1345.84 1997.63,1518.34 1824.5,1651C 1617.92,1801.56 1387.59,1858.23 1133.5,1821C 908.438,1781.27 722.938,1674.43 577,1500.5C 431.739,1319.72 362.405,1112.72 369,879.5C 380.579,646.564 465.912,445.898 625,277.5C 693.294,207.33 770.46,149.33 856.5,103.5 Z"/></g>
<g><path style="opacity:1" fill="#e1c038" d="M 1564.5,219.5 C 1762.81,213.288 1929.98,281.622 2066,424.5C 2081.76,442.252 2096.76,460.586 2111,479.5C 2112.29,481.055 2112.96,482.721 2113,484.5C 1907.19,386.224 1692.69,361.057 1469.5,409C 1317.66,445.096 1180.66,510.763 1058.5,606C 1036.75,623.082 1015.58,640.915 995,659.5C 1013.87,598.758 1041.54,542.425 1078,490.5C 1185.13,342.131 1329.63,253.631 1511.5,225C 1529.28,222.772 1546.95,220.938 1564.5,219.5 Z"/></g>
<g><path style="opacity:1" fill="#47628e" d="M 1535.5,438.5 C 1582.35,435.595 1615.52,455.261 1635,497.5C 1648.09,538.99 1638.26,573.823 1605.5,602C 1566.5,628 1527.5,628 1488.5,602C 1454.22,571.963 1445.05,535.463 1461,492.5C 1476.73,461.889 1501.57,443.889 1535.5,438.5 Z"/></g>
<g><path style="opacity:1" fill="#47628e" d="M 1649.5,599.5 C 1680.59,611.768 1706.76,630.768 1728,656.5C 1732.57,662.975 1736.07,669.975 1738.5,677.5C 1705.44,679.353 1675.44,689.853 1648.5,709C 1627.03,725.639 1607.69,744.472 1590.5,765.5C 1574.17,748.999 1555.17,736.499 1533.5,728C 1493.31,714.422 1459.14,723.255 1431,754.5C 1414.64,777.955 1408.31,803.955 1412,832.5C 1416.7,863.933 1427.7,892.933 1445,919.5C 1451.31,928.64 1457.81,937.64 1464.5,946.5C 1464.17,946.833 1463.83,947.167 1463.5,947.5C 1405.66,908.527 1369.16,854.86 1354,786.5C 1342.28,704.951 1371.94,643.951 1443,603.5C 1468.09,646.628 1505.59,665.128 1555.5,659C 1595.11,651.821 1626.45,631.988 1649.5,599.5 Z"/></g>
<g><path style="opacity:1" fill="#47628e" d="M 1300.5,707.5 C 1302.6,707.201 1304.6,707.534 1306.5,708.5C 1298.43,738.515 1298.59,768.515 1307,798.5C 1315.38,826.429 1327.88,852.262 1344.5,876C 1313.78,890.054 1290.95,912.22 1276,942.5C 1260.01,989.544 1272.85,1026.38 1314.5,1053C 1344.44,1068.28 1376.11,1073.61 1409.5,1069C 1432.79,1065.84 1455.45,1060.51 1477.5,1053C 1416.58,1100.73 1347.92,1117.73 1271.5,1104C 1214.97,1090.12 1175.8,1056.29 1154,1002.5C 1149.41,990.475 1145.91,978.142 1143.5,965.5C 1194.01,954.489 1223.51,923.489 1232,872.5C 1236.66,833.635 1227.49,798.468 1204.5,767C 1224.87,744.286 1248.87,726.619 1276.5,714C 1284.46,711.179 1292.46,709.013 1300.5,707.5 Z"/></g>
<g><path style="opacity:1" fill="#47628e" d="M 1745.5,723.5 C 1795.89,721.235 1839.39,737.235 1876,771.5C 1876.32,772.908 1875.98,774.241 1875,775.5C 1846.85,807.265 1839.85,843.265 1854,883.5C 1872.01,925.682 1902.85,953.682 1946.5,967.5C 1944.17,990.169 1939,1012.17 1931,1033.5C 1924.34,1049.33 1914.84,1063.17 1902.5,1075C 1901.83,1075.67 1901.17,1075.67 1900.5,1075C 1881.75,1033.58 1852.08,1002.58 1811.5,982C 1797.67,975.339 1783.67,969.173 1769.5,963.5C 1783.93,936.869 1789.43,908.535 1786,878.5C 1775.92,831.618 1746.92,806.618 1699,803.5C 1675.38,804.706 1653.55,811.539 1633.5,824C 1603.24,844.256 1578.41,869.756 1559,900.5C 1558.28,901.451 1557.45,901.617 1556.5,901C 1574.11,838.757 1609.45,789.424 1662.5,753C 1688.04,736.882 1715.71,727.049 1745.5,723.5 Z"/></g>
<g><path style="opacity:1" fill="#47628e" d="M 1099.5,749.5 C 1142.45,748.211 1172.95,766.877 1191,805.5C 1205.98,849.08 1196.48,886.247 1162.5,917C 1133.11,938.382 1101.45,942.382 1067.5,929C 1029.64,909.071 1012.14,877.571 1015,834.5C 1020.49,796.347 1040.99,769.847 1076.5,755C 1084.13,752.445 1091.8,750.612 1099.5,749.5 Z"/></g>
<g><path style="opacity:1" fill="#47628e" d="M 1965.5,754.5 C 2011.34,751.488 2044.17,770.488 2064,811.5C 2079.17,853.645 2070.67,890.145 2038.5,921C 2001.33,947.558 1963.66,948.225 1925.5,923C 1889.68,892.191 1879.51,854.358 1895,809.5C 1908.97,778.784 1932.47,760.451 1965.5,754.5 Z"/></g>
<g><path style="opacity:1" fill="#47628e" d="M 1629.5,974.5 C 1696.65,972.381 1755.65,993.214 1806.5,1037C 1867.12,1096.88 1879.62,1165.71 1844,1243.5C 1781.65,1219.51 1732.31,1235.84 1696,1292.5C 1682.93,1315.43 1676.1,1340.1 1675.5,1366.5C 1652.27,1370.33 1628.93,1371.16 1605.5,1369C 1590.68,1367.28 1576.68,1362.95 1563.5,1356C 1561.94,1355.06 1560.61,1353.89 1559.5,1352.5C 1592.91,1324.38 1614.08,1288.71 1623,1245.5C 1626.44,1229 1628.61,1212.33 1629.5,1195.5C 1655.57,1200.52 1681.23,1199.02 1706.5,1191C 1752.59,1171.99 1772.09,1137.82 1765,1088.5C 1755.73,1056.9 1737.57,1031.74 1710.5,1013C 1685.6,995.887 1658.6,983.053 1629.5,974.5 Z"/></g>
<g><path style="opacity:1" fill="#47628e" d="M 1583.5,1074.5 C 1585.48,1075.85 1586.65,1077.85 1587,1080.5C 1603.46,1136.29 1602.13,1191.62 1583,1246.5C 1547.48,1332.69 1483.31,1370.02 1390.5,1358.5C 1396.22,1302.78 1373.55,1263.28 1322.5,1240C 1290.63,1227.08 1258.13,1225.24 1225,1234.5C 1222.42,1233.38 1220.75,1231.38 1220,1228.5C 1206.89,1202.71 1199.39,1175.37 1197.5,1146.5C 1197.69,1137.25 1199.19,1128.25 1202,1119.5C 1237.89,1143.35 1277.39,1153.18 1320.5,1149C 1338.36,1147.25 1356.02,1144.41 1373.5,1140.5C 1376.38,1175.42 1390.38,1204.92 1415.5,1229C 1452.22,1255.99 1489.22,1256.32 1526.5,1230C 1553.23,1206.39 1570.07,1176.89 1577,1141.5C 1581.9,1119.43 1584.07,1097.1 1583.5,1074.5 Z"/></g>
<g><path style="opacity:1" fill="#47628e" d="M 1256.5,1260.5 C 1304.25,1261.78 1336.08,1284.78 1352,1329.5C 1361.5,1367.67 1351.66,1399.84 1322.5,1426C 1295.76,1445.59 1266.42,1450.59 1234.5,1441C 1190.61,1423.41 1169.11,1390.91 1170,1343.5C 1174.49,1304.36 1195.33,1278.19 1232.5,1265C 1240.51,1262.76 1248.51,1261.26 1256.5,1260.5 Z"/></g>
<g><path style="opacity:1" fill="#47628e" d="M 1794.5,1271.5 C 1843.89,1270.76 1876.06,1293.76 1891,1340.5C 1898.42,1382.61 1884.92,1416.11 1850.5,1441C 1811.79,1463.26 1774.46,1461.26 1738.5,1435C 1707.94,1405.57 1699.78,1370.73 1714,1330.5C 1730.24,1296.31 1757.07,1276.64 1794.5,1271.5 Z"/></g>
<g><path style="opacity:1" fill="#b43528" d="M 418.5,1919.5 C 427.366,1918.51 433.199,1922.18 436,1930.5C 436.668,1951.87 437.834,1973.21 439.5,1994.5C 451.502,1986.5 464.502,1980.67 478.5,1977C 513.761,1973.59 529.595,1989.43 526,2024.5C 523.701,2038.03 519.701,2051.03 514,2063.5C 493.414,2105.75 466.247,2143.25 432.5,2176C 423.094,2181.29 414.594,2180.13 407,2172.5C 406.138,2170.91 405.471,2169.25 405,2167.5C 405.287,2131.84 405.787,2096.17 406.5,2060.5C 399.489,2060.82 396.156,2057.49 396.5,2050.5C 397.271,2042.35 400.104,2035.02 405,2028.5C 405.509,2009.83 406.009,1991.17 406.5,1972.5C 406.525,1960.29 405.859,1948.13 404.5,1936C 405.769,1927.57 410.436,1922.07 418.5,1919.5 Z M 476.5,2006.5 C 488.515,2003.99 495.515,2008.66 497.5,2020.5C 494.458,2039.13 487.958,2056.46 478,2072.5C 466.012,2093.5 451.345,2112.5 434,2129.5C 433.373,2099.04 435.039,2068.71 439,2038.5C 448.037,2023.62 460.537,2012.95 476.5,2006.5 Z"/></g>
<g><path style="opacity:1" fill="#b43528" d="M 51.5,1923.5 C 56.9007,1922.97 61.9007,1924.13 66.5,1927C 67.8932,1928.17 68.7265,1929.67 69,1931.5C 69.9722,1959.83 70.8055,1988.16 71.5,2016.5C 87.8203,2014 104.154,2011.5 120.5,2009C 133.107,2005.78 139.44,2010.62 139.5,2023.5C 140.075,2028.62 138.408,2032.78 134.5,2036C 114.24,2040.29 93.9063,2044.12 73.5,2047.5C 74.6013,2088.18 75.768,2128.85 77,2169.5C 76.214,2172.58 74.3807,2174.75 71.5,2176C 60.9682,2178.47 52.8016,2175.3 47,2166.5C 45.5559,2128.85 44.5559,2091.18 44,2053.5C 42.9383,2052.9 41.7716,2052.57 40.5,2052.5C 29.5846,2054.77 18.5846,2055.93 7.5,2056C 0.773899,2047.1 0.107232,2037.76 5.5,2028C 17.4993,2025.43 29.4993,2022.93 41.5,2020.5C 42.8172,1991.48 42.8172,1962.48 41.5,1933.5C 42.6696,1927.93 46.0029,1924.6 51.5,1923.5 Z"/></g>
<g><path style="opacity:1" fill="#b43528" d="M 687.5,1925.5 C 695.875,1924.38 703.042,1926.71 709,1932.5C 713.221,1942.45 710.387,1949.62 700.5,1954C 691.744,1956.93 683.91,1955.43 677,1949.5C 670.505,1937.16 674.005,1929.16 687.5,1925.5 Z"/></g>
<g><path style="opacity:1" fill="#b43528" d="M 1163.5,1925.5 C 1169.89,1924.79 1175.89,1925.96 1181.5,1929C 1182.7,1929.9 1183.53,1931.07 1184,1932.5C 1186.84,2011.72 1194.01,2090.56 1205.5,2169C 1205.51,2171.3 1205.01,2173.47 1204,2175.5C 1196.86,2180.17 1189.03,2181.67 1180.5,2180C 1178.32,2179.84 1176.49,2179 1175,2177.5C 1173,2152.17 1171,2126.83 1169,2101.5C 1160.01,2128.35 1144.51,2150.52 1122.5,2168C 1103.65,2180.09 1085.48,2179.26 1068,2165.5C 1063.13,2160.1 1060.13,2153.76 1059,2146.5C 1054.59,2097.39 1071.09,2056.89 1108.5,2025C 1120.27,2015.29 1133.77,2009.46 1149,2007.5C 1151.46,2008.16 1153.96,2008.49 1156.5,2008.5C 1155.4,1982.5 1154.57,1956.5 1154,1930.5C 1156.91,1928.13 1160.07,1926.47 1163.5,1925.5 Z M 1140.5,2038.5 C 1150.73,2038.73 1156.07,2044.07 1156.5,2054.5C 1151.64,2084.56 1139.47,2111.22 1120,2134.5C 1113.89,2140.95 1106.56,2145.28 1098,2147.5C 1088.21,2145.54 1083.37,2139.54 1083.5,2129.5C 1088.46,2098.41 1101.79,2071.58 1123.5,2049C 1128.59,2044.46 1134.26,2040.96 1140.5,2038.5 Z"/></g>
<g><path style="opacity:1" fill="#b43528" d="M 253.5,1975.5 C 267.522,1976.7 273.689,1984.37 272,1998.5C 271.417,2000 270.584,2001.33 269.5,2002.5C 243.142,2016.03 221.642,2035.03 205,2059.5C 198.212,2072.65 194.545,2086.65 194,2101.5C 193.582,2124.84 193.582,2148.17 194,2171.5C 191.221,2176.82 186.721,2179.48 180.5,2179.5C 173.291,2179.48 167.791,2176.48 164,2170.5C 161.095,2131.83 158.095,2093.16 155,2054.5C 153.359,2035.42 151.192,2016.42 148.5,1997.5C 148.919,1992.58 151.585,1989.75 156.5,1989C 165.563,1987.06 173.397,1989.22 180,1995.5C 182.037,2009.73 183.537,2024.06 184.5,2038.5C 196.913,2019.92 211.913,2003.75 229.5,1990C 237.397,1984.89 245.397,1980.06 253.5,1975.5 Z"/></g>
<g><path style="opacity:1" fill="#b43528" d="M 1853.5,1975.5 C 1866.32,1977.78 1871.82,1985.45 1870,1998.5C 1869.53,1999.93 1868.7,2001.1 1867.5,2002C 1841.61,2015.04 1820.44,2033.54 1804,2057.5C 1797.71,2068.33 1794.04,2079.99 1793,2092.5C 1792.02,2103.81 1791.52,2115.14 1791.5,2126.5C 1792.03,2141.5 1792.2,2156.5 1792,2171.5C 1790.33,2175.17 1787.5,2177.33 1783.5,2178C 1774.74,2179.64 1767.91,2176.81 1763,2169.5C 1759.04,2110.75 1754.38,2052.08 1749,1993.5C 1759.06,1986.54 1768.73,1987.21 1778,1995.5C 1780.12,2010.41 1781.79,2025.41 1783,2040.5C 1800.33,2012 1823.83,1990.33 1853.5,1975.5 Z"/></g>
<g><path style="opacity:1" fill="#b43528" d="M 1273.5,1976.5 C 1279.93,1975.35 1285.43,1977.01 1290,1981.5C 1290.48,1982.45 1290.65,1983.45 1290.5,1984.5C 1320.47,1985.24 1339.97,1999.9 1349,2028.5C 1356.29,2065 1353.29,2100.66 1340,2135.5C 1333.39,2151.44 1322.56,2163.61 1307.5,2172C 1277.8,2182.1 1254.64,2173.94 1238,2147.5C 1215.55,2102.47 1214.88,2057.14 1236,2011.5C 1244.58,1995.42 1257.08,1983.75 1273.5,1976.5 Z M 1280.5,2012.5 C 1301.51,2009.74 1315.01,2018.41 1321,2038.5C 1326.69,2068.24 1324.02,2097.24 1313,2125.5C 1309.51,2132.98 1304.67,2139.48 1298.5,2145C 1289.8,2150.93 1281.14,2150.93 1272.5,2145C 1263.02,2133.87 1256.85,2121.04 1254,2106.5C 1248.51,2080.87 1250.51,2055.87 1260,2031.5C 1264.49,2022.5 1271.33,2016.17 1280.5,2012.5 Z"/></g>
<g><path style="opacity:1" fill="#b43528" d="M 2286.5,1976.5 C 2292.88,1975.48 2298.38,1977.14 2303,1981.5C 2303.48,1982.45 2303.65,1983.45 2303.5,1984.5C 2333.47,1985.24 2352.97,1999.9 2362,2028.5C 2369.5,2065.8 2366.17,2102.14 2352,2137.5C 2345.33,2152.5 2334.83,2164 2320.5,2172C 2287.12,2182.23 2262.62,2171.73 2247,2140.5C 2228.42,2097.16 2229.09,2054.16 2249,2011.5C 2257.58,1995.42 2270.08,1983.75 2286.5,1976.5 Z M 2293.5,2012.5 C 2314.51,2009.74 2328.01,2018.41 2334,2038.5C 2339.66,2068.23 2336.99,2097.23 2326,2125.5C 2322.51,2132.98 2317.67,2139.48 2311.5,2145C 2300.06,2152.1 2289.9,2150.6 2281,2140.5C 2269.34,2121.04 2263.51,2099.87 2263.5,2077C 2263.16,2057.66 2267.99,2039.83 2278,2023.5C 2282.13,2018.2 2287.29,2014.54 2293.5,2012.5 Z"/></g>
<g><path style="opacity:1" fill="#b43528" d="M 2203.5,1978.5 C 2209.64,1977.73 2215.3,1978.9 2220.5,1982C 2223.7,1985.59 2224.86,1989.76 2224,1994.5C 2208.98,2053.92 2193.65,2113.25 2178,2172.5C 2175.96,2174.6 2173.46,2175.77 2170.5,2176C 2164.61,2177.04 2158.94,2176.37 2153.5,2174C 2130.48,2119.93 2107.64,2065.77 2085,2011.5C 2085.07,2002.75 2089.57,1997.58 2098.5,1996C 2104.96,1994.35 2110.46,1995.85 2115,2000.5C 2129.58,2040.31 2145.24,2079.65 2162,2118.5C 2173.46,2074.21 2184.79,2029.88 2196,1985.5C 2197.77,1982.23 2200.27,1979.89 2203.5,1978.5 Z"/></g>
<g><path style="opacity:1" fill="#b43528" d="M 343.5,1979.5 C 363.058,1979.22 373.558,1988.89 375,2008.5C 375.997,2014.46 376.663,2020.46 377,2026.5C 378,2060.49 378.667,2094.49 379,2128.5C 379.486,2143.02 380.319,2157.52 381.5,2172C 380.326,2181.53 374.826,2186.03 365,2185.5C 360.187,2185.51 355.687,2184.34 351.5,2182C 350.299,2181.1 349.465,2179.93 349,2178.5C 350.182,2147.17 351.182,2115.84 352,2084.5C 345.571,2104.45 337.571,2123.78 328,2142.5C 320.983,2154.39 311.816,2164.23 300.5,2172C 286.928,2178.16 272.928,2179.16 258.5,2175C 252.939,2172.44 249.106,2168.27 247,2162.5C 245.101,2156.31 243.934,2149.98 243.5,2143.5C 250.543,2092.43 270.376,2047.09 303,2007.5C 314.032,1994.26 327.532,1984.93 343.5,1979.5 Z M 337.5,2015.5 C 338.75,2015.58 339.583,2016.24 340,2017.5C 341.23,2025.48 340.896,2033.48 339,2041.5C 330.805,2077.21 316.138,2109.88 295,2139.5C 290.792,2145.19 285.292,2148.02 278.5,2148C 276.667,2147.5 275.5,2146.33 275,2144.5C 274.118,2133.9 275.451,2123.57 279,2113.5C 287.195,2086.78 298.862,2061.78 314,2038.5C 320.403,2029.26 328.236,2021.6 337.5,2015.5 Z"/></g>
<g><path style="opacity:1" fill="#b43528" d="M 617.5,1979.5 C 635.688,1978.85 646.188,1987.52 649,2005.5C 650.838,2016.42 651.838,2027.42 652,2038.5C 652.253,2084.86 653.253,2131.2 655,2177.5C 651.301,2183.19 645.968,2185.86 639,2185.5C 632.131,2185.73 626.797,2183.07 623,2177.5C 624.897,2146.21 625.897,2114.87 626,2083.5C 618.953,2110.25 607.619,2134.92 592,2157.5C 576.4,2176.25 556.9,2182.09 533.5,2175C 527.608,2172.11 523.441,2167.61 521,2161.5C 517.24,2143.6 518.24,2125.94 524,2108.5C 536.293,2067.73 556.46,2031.56 584.5,2000C 593.884,1990.43 604.884,1983.59 617.5,1979.5 Z M 611.5,2015.5 C 612.496,2015.41 613.329,2015.75 614,2016.5C 615.833,2025.53 615.5,2034.53 613,2043.5C 605.024,2077.11 591.357,2108.11 572,2136.5C 568.088,2141.08 563.588,2144.92 558.5,2148C 554.114,2149.06 550.947,2147.56 549,2143.5C 548.977,2132.61 550.644,2121.94 554,2111.5C 562.38,2084.65 574.38,2059.65 590,2036.5C 595.737,2027.93 602.904,2020.93 611.5,2015.5 Z"/></g>
<g><path style="opacity:1" fill="#b43528" d="M 836.5,1979.5 C 855.59,1979.09 866.09,1988.42 868,2007.5C 868.907,2013.47 869.573,2019.47 870,2025.5C 871.014,2059.49 871.681,2093.49 872,2127.5C 872.458,2142.36 873.291,2157.19 874.5,2172C 873.326,2181.53 867.826,2186.03 858,2185.5C 853.187,2185.51 848.687,2184.34 844.5,2182C 843.299,2181.1 842.465,2179.93 842,2178.5C 843.285,2146.51 844.285,2114.51 845,2082.5C 838.109,2108.27 827.443,2132.27 813,2154.5C 797.384,2175.71 776.884,2182.54 751.5,2175C 745.939,2172.44 742.106,2168.27 740,2162.5C 738.144,2156.3 736.977,2149.97 736.5,2143.5C 743.627,2091.93 763.794,2046.26 797,2006.5C 807.882,1993.84 821.049,1984.84 836.5,1979.5 Z M 830.5,2015.5 C 831.75,2015.58 832.583,2016.24 833,2017.5C 834.23,2025.48 833.896,2033.48 832,2041.5C 823.805,2077.21 809.138,2109.88 788,2139.5C 783.792,2145.19 778.292,2148.02 771.5,2148C 769.667,2147.5 768.5,2146.33 768,2144.5C 767.311,2138.12 767.645,2131.78 769,2125.5C 776.511,2094.15 789.178,2065.15 807,2038.5C 813.403,2029.26 821.236,2021.6 830.5,2015.5 Z"/></g>
<g><path style="opacity:1" fill="#b43528" d="M 1564.5,1979.5 C 1570.51,1979.33 1576.51,1979.5 1582.5,1980C 1590.5,1982 1596,1986.84 1599,1994.5C 1606.12,2018.72 1604.45,2042.38 1594,2065.5C 1573.29,2106.88 1543.96,2140.88 1506,2167.5C 1505.27,2202.84 1505.43,2238.17 1506.5,2273.5C 1509.38,2292.79 1501.38,2300.62 1482.5,2297C 1479.42,2296.21 1477.25,2294.38 1476,2291.5C 1475.9,2222.49 1476.4,2153.49 1477.5,2084.5C 1467.74,2086.6 1463.07,2082.6 1463.5,2072.5C 1464.22,2062.73 1468.39,2054.73 1476,2048.5C 1476.33,2040.17 1476.67,2031.83 1477,2023.5C 1478.69,2010.46 1485.85,2005.29 1498.5,2008C 1501.17,2009 1503.51,2010.5 1505.5,2012.5C 1523.02,1997.58 1542.69,1986.58 1564.5,1979.5 Z M 1569.5,2008.5 C 1572.67,2008.84 1574.84,2010.51 1576,2013.5C 1577.94,2024.83 1576.61,2035.83 1572,2046.5C 1559.34,2076 1541.18,2101.5 1517.5,2123C 1513.58,2125.88 1509.42,2128.38 1505,2130.5C 1505.47,2104.88 1506.47,2079.22 1508,2053.5C 1524.27,2032.47 1544.77,2017.47 1569.5,2008.5 Z"/></g>
<g><path style="opacity:1" fill="#b43528" d="M 1695.5,1979.5 C 1714.11,1978.94 1724.61,1987.94 1727,2006.5C 1728.88,2018.76 1729.88,2031.09 1730,2043.5C 1729.96,2085.7 1731.12,2127.87 1733.5,2170C 1733.61,2180.88 1728.11,2186.05 1717,2185.5C 1710.51,2185.68 1705.18,2183.34 1701,2178.5C 1702.69,2146.86 1703.69,2115.2 1704,2083.5C 1697.32,2108.55 1686.99,2131.89 1673,2153.5C 1656.57,2176.2 1635.07,2183.03 1608.5,2174C 1603.05,2170.21 1599.55,2165.04 1598,2158.5C 1595.07,2140.1 1596.73,2122.1 1603,2104.5C 1615.77,2063.76 1636.61,2027.93 1665.5,1997C 1674.19,1988.82 1684.19,1982.99 1695.5,1979.5 Z M 1689.5,2015.5 C 1690.5,2015.41 1691.33,2015.75 1692,2016.5C 1693.8,2023.48 1693.8,2030.48 1692,2037.5C 1684.19,2073.77 1669.86,2107.1 1649,2137.5C 1645.42,2141.75 1641.25,2145.25 1636.5,2148C 1629.3,2148.8 1625.97,2145.47 1626.5,2138C 1632.77,2101.53 1646.27,2068.03 1667,2037.5C 1673.07,2028.6 1680.57,2021.26 1689.5,2015.5 Z"/></g>
<g><path style="opacity:1" fill="#b43528" d="M 1942.5,1979.5 C 1961.11,1978.94 1971.61,1987.94 1974,2006.5C 1975.89,2020.77 1976.89,2035.1 1977,2049.5C 1977.16,2091.87 1978.16,2134.21 1980,2176.5C 1976.67,2182.84 1971.34,2185.84 1964,2185.5C 1957.47,2185.67 1952.14,2183.33 1948,2178.5C 1949.53,2146.52 1950.53,2114.52 1951,2082.5C 1944.18,2107.8 1933.85,2131.47 1920,2153.5C 1904.3,2175.4 1883.47,2182.57 1857.5,2175C 1850.81,2171.47 1846.64,2165.97 1845,2158.5C 1842.21,2141.2 1843.54,2124.2 1849,2107.5C 1860.59,2069.64 1878.92,2035.64 1904,2005.5C 1914.64,1993.31 1927.48,1984.65 1942.5,1979.5 Z M 1936.5,2015.5 C 1937.5,2015.41 1938.33,2015.75 1939,2016.5C 1940.67,2025.2 1940.33,2033.87 1938,2042.5C 1929.64,2077.29 1915.3,2109.29 1895,2138.5C 1892.13,2141.7 1888.96,2144.54 1885.5,2147C 1880.81,2149.53 1876.98,2148.7 1874,2144.5C 1874.12,2128.66 1877.12,2113.32 1883,2098.5C 1890.97,2076.89 1901.31,2056.55 1914,2037.5C 1920.07,2028.6 1927.57,2021.26 1936.5,2015.5 Z"/></g>
<g><path style="opacity:1" fill="#b43528" d="M 2504.5,1979.5 C 2512.67,1978.94 2519.5,1981.61 2525,1987.5C 2528.33,1993.5 2528.33,1999.5 2525,2005.5C 2524.1,2006.7 2522.93,2007.53 2521.5,2008C 2498.81,2007.12 2478.14,2013.12 2459.5,2026C 2445.38,2035.12 2433.54,2046.62 2424,2060.5C 2417.77,2068.82 2419.77,2073.16 2430,2073.5C 2449.13,2070.72 2468.29,2068.22 2487.5,2066C 2499.85,2064.5 2511.52,2066.5 2522.5,2072C 2529.17,2077.69 2531.67,2084.85 2530,2093.5C 2528.01,2103.48 2524.34,2112.81 2519,2121.5C 2504.73,2144.11 2487.23,2163.94 2466.5,2181C 2455.82,2182.91 2447.98,2179.07 2443,2169.5C 2442.33,2166.83 2442.33,2164.17 2443,2161.5C 2455.58,2151.26 2467.25,2139.92 2478,2127.5C 2483.16,2121.18 2487.83,2114.52 2492,2107.5C 2495.46,2100.65 2493.46,2097.31 2486,2097.5C 2466.72,2100.08 2447.39,2102.08 2428,2103.5C 2392.75,2104.56 2380.75,2088.22 2392,2054.5C 2409.52,2023.66 2434.68,2001.49 2467.5,1988C 2479.55,1983.29 2491.89,1980.46 2504.5,1979.5 Z"/></g>
<g><path style="opacity:1" fill="#b43528" d="M 694.5,1981.5 C 701.686,1981.34 707.519,1984.01 712,1989.5C 715.281,2031.11 717.448,2072.78 718.5,2114.5C 718.712,2149.82 715.546,2184.82 709,2219.5C 704.298,2245.07 693.131,2267.24 675.5,2286C 654.44,2301.12 632.107,2303.12 608.5,2292C 595.949,2286.45 585.449,2278.28 577,2267.5C 576.439,2255.27 582.106,2247.93 594,2245.5C 595.967,2245.54 597.801,2246.04 599.5,2247C 608.835,2259.49 621.168,2267.32 636.5,2270.5C 647.626,2269.52 656.459,2264.52 663,2255.5C 672.875,2239.88 679.208,2222.88 682,2204.5C 684.627,2188.27 686.294,2171.93 687,2155.5C 687.667,2132.83 687.667,2110.17 687,2087.5C 685.049,2055.14 683.049,2022.81 681,1990.5C 684.122,1985.36 688.622,1982.36 694.5,1981.5 Z"/></g>
<g><path style="opacity:1" fill="#b43528" d="M 973.5,1982.5 C 989.264,1980.96 1001.1,1986.96 1009,2000.5C 1017.43,2016.21 1023.1,2032.88 1026,2050.5C 1033.45,2089.92 1037.45,2129.59 1038,2169.5C 1031.68,2176.38 1023.85,2178.88 1014.5,2177C 1011.3,2176.15 1008.47,2174.65 1006,2172.5C 1005.67,2152.17 1005.33,2131.83 1005,2111.5C 1004.64,2081.66 999.638,2052.66 990,2024.5C 982.202,2009.9 974.202,2009.9 966,2024.5C 952.871,2051.55 943.538,2079.89 938,2109.5C 933.589,2131.05 929.922,2152.71 927,2174.5C 924.9,2177.47 922.066,2179.3 918.5,2180C 909.216,2181.8 901.049,2179.64 894,2173.5C 892.978,2171.3 892.478,2168.96 892.5,2166.5C 895.67,2137.59 897.004,2108.59 896.5,2079.5C 896.333,2065.83 896.167,2052.17 896,2038.5C 895.901,2027.03 894.734,2015.7 892.5,2004.5C 893.833,1998 897.833,1994.5 904.5,1994C 919.149,1991.72 925.649,1997.89 924,2012.5C 924.333,2026.5 924.667,2040.5 925,2054.5C 929.41,2034.93 936.743,2016.59 947,1999.5C 950.509,1995.29 954.342,1991.46 958.5,1988C 963.299,1985.24 968.299,1983.4 973.5,1982.5 Z"/></g>
<g><path style="opacity:1" fill="#191919" d="M 771.5,2398.5 C 816.72,2393.94 850.387,2411.27 872.5,2450.5C 864.5,2451.83 856.5,2451.83 848.5,2450.5C 826.566,2421.47 797.899,2411.63 762.5,2421C 728.991,2434.83 711.658,2459.83 710.5,2496C 711.459,2535.28 730.459,2561.28 767.5,2574C 800.619,2580.76 827.286,2570.76 847.5,2544C 855.159,2543.5 862.826,2543.33 870.5,2543.5C 853.214,2577.21 825.381,2594.54 787,2595.5C 743.831,2594.1 713.498,2573.76 696,2534.5C 681.043,2489.49 690.877,2450.99 725.5,2419C 739.123,2408.19 754.456,2401.35 771.5,2398.5 Z"/></g>
<g><path style="opacity:1" fill="#191919" d="M 31.5,2401.5 C 40.8571,2401.17 50.1904,2401.5 59.5,2402.5C 81.2769,2456.39 102.777,2510.39 124,2564.5C 145.223,2510.39 166.723,2456.39 188.5,2402.5C 197.81,2401.5 207.143,2401.17 216.5,2401.5C 216.5,2464.83 216.5,2528.17 216.5,2591.5C 210.5,2591.5 204.5,2591.5 198.5,2591.5C 198.667,2536.83 198.5,2482.17 198,2427.5C 176.203,2482.09 154.703,2536.75 133.5,2591.5C 127.242,2591.81 121.076,2591.48 115,2590.5C 93.3333,2536.17 71.6667,2481.83 50,2427.5C 49.5,2482.17 49.3333,2536.83 49.5,2591.5C 43.5,2591.5 37.5,2591.5 31.5,2591.5C 31.5,2528.17 31.5,2464.83 31.5,2401.5 Z"/></g>
<g><path style="opacity:1" fill="#191919" d="M 263.5,2401.5 C 270.167,2401.5 276.833,2401.5 283.5,2401.5C 283.029,2449.53 283.529,2497.53 285,2545.5C 293.515,2570.97 311.015,2580.8 337.5,2575C 351.737,2569.73 360.237,2559.56 363,2544.5C 363.912,2540.21 364.579,2535.87 365,2531.5C 365.5,2488.17 365.667,2444.83 365.5,2401.5C 371.833,2401.5 378.167,2401.5 384.5,2401.5C 384.667,2447.83 384.5,2494.17 384,2540.5C 382.713,2558.91 375.213,2574.07 361.5,2586C 336.89,2598.63 312.223,2598.63 287.5,2586C 277.914,2578.68 271.414,2569.18 268,2557.5C 265.802,2549.65 264.469,2541.65 264,2533.5C 263.5,2489.5 263.333,2445.5 263.5,2401.5 Z"/></g>
<g><path style="opacity:1" fill="#191919" d="M 433.5,2401.5 C 441.42,2401.18 449.253,2401.52 457,2402.5C 490.667,2456.5 524.333,2510.5 558,2564.5C 558.295,2510.16 557.795,2455.83 556.5,2401.5C 563.167,2401.5 569.833,2401.5 576.5,2401.5C 576.5,2464.83 576.5,2528.17 576.5,2591.5C 568.472,2591.83 560.472,2591.5 552.5,2590.5C 518.667,2536.17 484.833,2481.83 451,2427.5C 451.2,2482.17 451.7,2536.83 452.5,2591.5C 446.167,2591.5 439.833,2591.5 433.5,2591.5C 433.5,2528.17 433.5,2464.83 433.5,2401.5 Z"/></g>
<g><path style="opacity:1" fill="#191919" d="M 627.5,2401.5 C 634.167,2401.5 640.833,2401.5 647.5,2401.5C 647.5,2464.83 647.5,2528.17 647.5,2591.5C 640.833,2591.5 634.167,2591.5 627.5,2591.5C 627.5,2528.17 627.5,2464.83 627.5,2401.5 Z"/></g>
<g><path style="opacity:1" fill="#191919" d="M 915.5,2401.5 C 922.167,2401.5 928.833,2401.5 935.5,2401.5C 935.5,2464.83 935.5,2528.17 935.5,2591.5C 928.833,2591.5 922.167,2591.5 915.5,2591.5C 915.5,2528.17 915.5,2464.83 915.5,2401.5 Z"/></g>
<g><path style="opacity:1" fill="#191919" d="M 984.5,2401.5 C 1008.23,2400.93 1031.89,2401.76 1055.5,2404C 1081.58,2411.6 1095.24,2429.1 1096.5,2456.5C 1096.17,2478.69 1086.5,2495.19 1067.5,2506C 1061.37,2508.45 1055.04,2510.12 1048.5,2511C 1033.86,2512.19 1019.19,2512.69 1004.5,2512.5C 1004.5,2538.83 1004.5,2565.17 1004.5,2591.5C 997.833,2591.5 991.167,2591.5 984.5,2591.5C 984.5,2528.17 984.5,2464.83 984.5,2401.5 Z M 1004.5,2421.5 C 1016.84,2421.33 1029.17,2421.5 1041.5,2422C 1067.58,2425.44 1078.41,2440.28 1074,2466.5C 1070.11,2481.05 1060.61,2489.22 1045.5,2491C 1031.87,2492.31 1018.2,2492.81 1004.5,2492.5C 1004.5,2468.83 1004.5,2445.17 1004.5,2421.5 Z"/></g>
<g><path style="opacity:1" fill="#191919" d="M 1169.5,2401.5 C 1177.94,2400.88 1186.11,2401.55 1194,2403.5C 1218.07,2465.87 1242.24,2528.21 1266.5,2590.5C 1259.28,2591.81 1252.11,2591.81 1245,2590.5C 1237.53,2571.25 1230.36,2551.91 1223.5,2532.5C 1195.49,2532.17 1167.49,2532.5 1139.5,2533.5C 1132.17,2552.5 1124.83,2571.5 1117.5,2590.5C 1110.52,2591.66 1103.52,2591.83 1096.5,2591C 1121.33,2528.01 1145.66,2464.84 1169.5,2401.5 Z M 1180.5,2422.5 C 1192.93,2452.79 1204.6,2483.46 1215.5,2514.5C 1192.5,2514.67 1169.5,2514.5 1146.5,2514C 1158.13,2483.61 1169.46,2453.11 1180.5,2422.5 Z"/></g>
<g><path style="opacity:1" fill="#191919" d="M 1296.5,2401.5 C 1303.17,2401.5 1309.83,2401.5 1316.5,2401.5C 1316.5,2458.5 1316.5,2515.5 1316.5,2572.5C 1338.5,2572.5 1360.5,2572.5 1382.5,2572.5C 1382.5,2578.83 1382.5,2585.17 1382.5,2591.5C 1353.83,2591.5 1325.17,2591.5 1296.5,2591.5C 1296.5,2528.17 1296.5,2464.83 1296.5,2401.5 Z"/></g>
<g><path style="opacity:1" fill="#191919" d="M 1423.5,2401.5 C 1429.83,2401.5 1436.17,2401.5 1442.5,2401.5C 1442.5,2464.83 1442.5,2528.17 1442.5,2591.5C 1436.17,2591.5 1429.83,2591.5 1423.5,2591.5C 1423.5,2528.17 1423.5,2464.83 1423.5,2401.5 Z"/></g>
<g><path style="opacity:1" fill="#191919" d="M 1494.5,2401.5 C 1519.52,2401.13 1544.52,2401.63 1569.5,2403C 1601.72,2407.03 1624.56,2423.87 1638,2453.5C 1649.59,2483.31 1649.26,2512.97 1637,2542.5C 1619.97,2574.61 1593.14,2590.78 1556.5,2591C 1535.84,2591.5 1515.17,2591.67 1494.5,2591.5C 1494.5,2528.17 1494.5,2464.83 1494.5,2401.5 Z M 1513.5,2420.5 C 1531.86,2420.19 1550.19,2420.69 1568.5,2422C 1593.33,2426.15 1610.49,2439.98 1620,2463.5C 1627.59,2486.96 1627.25,2510.29 1619,2533.5C 1607.81,2557.33 1588.97,2570.17 1562.5,2572C 1546.17,2572.5 1529.84,2572.67 1513.5,2572.5C 1513.5,2521.83 1513.5,2471.17 1513.5,2420.5 Z"/></g>
<g><path style="opacity:1" fill="#191919" d="M 1737.5,2401.5 C 1745.5,2401.5 1753.5,2401.5 1761.5,2401.5C 1785.7,2464.76 1809.7,2528.09 1833.5,2591.5C 1826.5,2591.5 1819.5,2591.5 1812.5,2591.5C 1805.66,2571.82 1798.33,2552.32 1790.5,2533C 1762.83,2532.33 1735.17,2532.33 1707.5,2533C 1700.04,2552.1 1692.7,2571.26 1685.5,2590.5C 1678.5,2591.83 1671.5,2591.83 1664.5,2590.5C 1689.04,2527.55 1713.37,2464.55 1737.5,2401.5 Z M 1748.5,2422.5 C 1760.39,2452.63 1772.06,2482.97 1783.5,2513.5C 1760.5,2514.83 1737.5,2514.83 1714.5,2513.5C 1726.12,2483.26 1737.46,2452.92 1748.5,2422.5 Z"/></g>
<g><path style="opacity:1" fill="#191919" d="M 1864.5,2401.5 C 1889.86,2401.14 1915.19,2401.64 1940.5,2403C 1968.95,2406.48 1990.12,2420.65 2004,2445.5C 2016.74,2469.88 2020.07,2495.55 2014,2522.5C 2004.13,2561.04 1979.63,2583.54 1940.5,2590C 1915.19,2591.35 1889.85,2591.85 1864.5,2591.5C 1864.5,2528.17 1864.5,2464.83 1864.5,2401.5 Z M 1883.5,2420.5 C 1901.86,2420.19 1920.19,2420.69 1938.5,2422C 1961.51,2425.35 1978.01,2437.52 1988,2458.5C 1995.1,2475.49 1997.43,2493.16 1995,2511.5C 1990.24,2544.26 1971.74,2564.09 1939.5,2571C 1920.87,2572.4 1902.2,2572.9 1883.5,2572.5C 1883.5,2521.83 1883.5,2471.17 1883.5,2420.5 Z"/></g>
<g><path style="opacity:1" fill="#191919" d="M 2208.5,2401.5 C 2233.52,2401.13 2258.52,2401.63 2283.5,2403C 2317.82,2407.65 2341.32,2426.15 2354,2458.5C 2367.06,2496.16 2361.72,2530.82 2338,2562.5C 2323.43,2578.7 2305.27,2587.87 2283.5,2590C 2258.52,2591.36 2233.52,2591.86 2208.5,2591.5C 2208.5,2528.17 2208.5,2464.83 2208.5,2401.5 Z M 2227.5,2420.5 C 2245.86,2420.19 2264.19,2420.69 2282.5,2422C 2299.7,2423.87 2313.54,2431.7 2324,2445.5C 2338.65,2467.07 2343.32,2490.73 2338,2516.5C 2330.81,2549.69 2310.31,2568.19 2276.5,2572C 2260.17,2572.5 2243.84,2572.67 2227.5,2572.5C 2227.5,2521.83 2227.5,2471.17 2227.5,2420.5 Z"/></g>
<g><path style="opacity:1" fill="#191919" d="M 2402.5,2401.5 C 2435.5,2401.5 2468.5,2401.5 2501.5,2401.5C 2501.5,2408.17 2501.5,2414.83 2501.5,2421.5C 2475.17,2421.5 2448.83,2421.5 2422.5,2421.5C 2422.5,2443.17 2422.5,2464.83 2422.5,2486.5C 2448.83,2486.5 2475.17,2486.5 2501.5,2486.5C 2501.5,2492.83 2501.5,2499.17 2501.5,2505.5C 2475.17,2505.5 2448.83,2505.5 2422.5,2505.5C 2422.5,2527.83 2422.5,2550.17 2422.5,2572.5C 2448.83,2572.5 2475.17,2572.5 2501.5,2572.5C 2501.5,2578.83 2501.5,2585.17 2501.5,2591.5C 2468.5,2591.5 2435.5,2591.5 2402.5,2591.5C 2402.5,2528.17 2402.5,2464.83 2402.5,2401.5 Z"/></g>
<g><path style="opacity:1" fill="#191919" d="M 120.5,3092.5 C 113.833,3092.5 107.167,3092.5 100.5,3092.5C 49.4774,3085.86 17.3107,3057.53 4,3007.5C 2.15725,2998.41 0.657248,2989.41 -0.5,2980.5C -0.5,2976.83 -0.5,2973.17 -0.5,2969.5C 12.5,2969.5 25.5,2969.5 38.5,2969.5C 38.1851,2996.77 48.1851,3019.27 68.5,3037C 96.3433,3054.25 124.677,3054.91 153.5,3039C 175.712,3022.6 186.379,3000.43 185.5,2972.5C 186.106,2956.82 181.606,2942.82 172,2930.5C 158.961,2915.55 143.127,2904.38 124.5,2897C 108.986,2890.94 93.3194,2885.27 77.5,2880C 26.5698,2860.66 4.40313,2823.83 11,2769.5C 16.1782,2730.68 36.3448,2702.84 71.5,2686C 100.7,2675.09 130.033,2674.76 159.5,2685C 187.519,2698.37 205.352,2720.2 213,2750.5C 215.762,2761.33 217.262,2772.33 217.5,2783.5C 204.833,2783.5 192.167,2783.5 179.5,2783.5C 178.724,2759.45 169.058,2739.95 150.5,2725C 136.149,2716.98 120.816,2714.31 104.5,2717C 76.5614,2722.94 59.0614,2739.77 52,2767.5C 45.3698,2800.74 57.2032,2824.57 87.5,2839C 111.347,2848.06 135.347,2856.73 159.5,2865C 204.569,2882.26 226.903,2915.09 226.5,2963.5C 227.164,2996.88 217.664,3026.88 198,3053.5C 177.547,3077.31 151.714,3090.31 120.5,3092.5 Z"/></g>
<g><path style="opacity:1" fill="#191919" d="M 912.5,3092.5 C 904.167,3092.5 895.833,3092.5 887.5,3092.5C 801.681,3085.01 741.848,3041.68 708,2962.5C 690.477,2911.92 690.143,2861.25 707,2810.5C 728.781,2756.05 766.281,2716.55 819.5,2692C 854.661,2678.17 890.995,2673.83 928.5,2679C 997.573,2690.28 1048.24,2726.78 1080.5,2788.5C 1064.51,2789.67 1048.51,2789.83 1032.5,2789C 987.747,2727.3 928.08,2705.3 853.5,2723C 811.393,2737.44 779.227,2763.94 757,2802.5C 735.9,2844.77 731.567,2888.77 744,2934.5C 756.79,2976.94 781.956,3009.77 819.5,3033C 862.859,3056.11 907.859,3059.78 954.5,3044C 985.393,3031.77 1010.39,3012.1 1029.5,2985C 1045.51,2984.17 1061.51,2984.33 1077.5,2985.5C 1041.7,3050.58 986.704,3086.24 912.5,3092.5 Z"/></g>
<g><path style="opacity:1" fill="#191919" d="M 434.5,2684.5 C 450.514,2684.17 466.514,2684.5 482.5,2685.5C 534.236,2818.38 585.569,2951.38 636.5,3084.5C 622.151,3084.83 607.818,3084.5 593.5,3083.5C 577.637,3042.58 561.97,3001.58 546.5,2960.5C 487.5,2959.17 428.5,2959.17 369.5,2960.5C 353.637,3001.42 337.97,3042.42 322.5,3083.5C 308.178,3084.67 293.845,3084.83 279.5,3084C 331.309,2950.88 382.976,2817.72 434.5,2684.5 Z M 456.5,2725.5 C 458.814,2728.8 460.648,2732.46 462,2736.5C 485.472,2798.42 508.639,2860.42 531.5,2922.5C 482.5,2922.5 433.5,2922.5 384.5,2922.5C 408.5,2856.83 432.5,2791.17 456.5,2725.5 Z"/></g>
<g><path style="opacity:1" fill="#191919" d="M 1289.5,2684.5 C 1305.91,2683.86 1322.07,2684.52 1338,2686.5C 1388.87,2818.95 1440.04,2951.28 1491.5,3083.5C 1476.94,3084.82 1462.44,3084.82 1448,3083.5C 1432.2,3042.24 1416.7,3000.91 1401.5,2959.5C 1342.5,2959.33 1283.5,2959.5 1224.5,2960C 1208.41,3001.35 1192.74,3042.85 1177.5,3084.5C 1163.15,3084.83 1148.82,3084.5 1134.5,3083.5C 1185.98,2950.39 1237.65,2817.39 1289.5,2684.5 Z M 1311.5,2725.5 C 1336.86,2790.58 1361.86,2855.91 1386.5,2921.5C 1337.17,2922.67 1287.84,2922.83 1238.5,2922C 1263.13,2856.61 1287.46,2791.11 1311.5,2725.5 Z"/></g>
<g><path style="opacity:1" fill="#191919" d="M 1568.5,2684.5 C 1584.74,2684.18 1600.91,2684.51 1617,2685.5C 1688.75,2801.33 1760.75,2917 1833,3032.5C 1832.41,2916.5 1831.24,2800.5 1829.5,2684.5C 1842.83,2684.5 1856.17,2684.5 1869.5,2684.5C 1869.5,2817.83 1869.5,2951.17 1869.5,3084.5C 1853.15,3084.83 1836.82,3084.5 1820.5,3083.5C 1748.58,2967.33 1676.42,2851.33 1604,2735.5C 1605.17,2851.83 1606.34,2968.16 1607.5,3084.5C 1594.5,3084.5 1581.5,3084.5 1568.5,3084.5C 1568.5,2951.17 1568.5,2817.83 1568.5,2684.5 Z"/></g>
<g><path style="opacity:1" fill="#191919" d="M 1958.5,2684.5 C 2025.17,2684.5 2091.83,2684.5 2158.5,2684.5C 2158.5,2698.17 2158.5,2711.83 2158.5,2725.5C 2131.83,2725.5 2105.17,2725.5 2078.5,2725.5C 2078.5,2845.17 2078.5,2964.83 2078.5,3084.5C 2065.17,3084.5 2051.83,3084.5 2038.5,3084.5C 2038.5,2964.83 2038.5,2845.17 2038.5,2725.5C 2011.83,2725.5 1985.17,2725.5 1958.5,2725.5C 1958.5,2711.83 1958.5,2698.17 1958.5,2684.5 Z"/></g>
<g><path style="opacity:1" fill="#191919" d="M 2532.5,3081.5 C 2532.5,3082.5 2532.5,3083.5 2532.5,3084.5C 2518.17,3084.5 2503.83,3084.5 2489.5,3084.5C 2474.26,3042.85 2458.59,3001.35 2442.5,2960C 2383.5,2959.5 2324.5,2959.33 2265.5,2959.5C 2250.24,3000.95 2234.57,3042.29 2218.5,3083.5C 2204.52,3084.5 2190.52,3084.83 2176.5,3084.5C 2227.36,2951.75 2278.53,2819.08 2330,2686.5C 2337.93,2685.18 2346.1,2684.52 2354.5,2684.5C 2362.74,2684.51 2370.91,2684.84 2379,2685.5C 2430.1,2817.64 2481.26,2949.64 2532.5,3081.5 Z M 2353.5,2725.5 C 2378.57,2790.88 2403.57,2856.38 2428.5,2922C 2379.16,2922.83 2329.83,2922.67 2280.5,2921.5C 2304.84,2856.14 2329.18,2790.8 2353.5,2725.5 Z"/></g>
</svg>
