<?xml version="1.0" encoding="UTF-8"?>
<!DOCTYPE svg PUBLIC "-//W3C//DTD SVG 1.1//EN" "http://www.w3.org/Graphics/SVG/1.1/DTD/svg11.dtd">
<svg xmlns="http://www.w3.org/2000/svg" version="1.1" width="2085px" height="1103px" style="shape-rendering:geometricPrecision; text-rendering:geometricPrecision; image-rendering:optimizeQuality; fill-rule:evenodd; clip-rule:evenodd" xmlns:xlink="http://www.w3.org/1999/xlink">
<g><path style="opacity:1" fill="#ea2425" d="M 1442.5,-0.5 C 1448.17,-0.5 1453.83,-0.5 1459.5,-0.5C 1483.28,2.77137 1498.11,16.1047 1504,39.5C 1506.93,77.4956 1490.43,102.662 1454.5,115C 1434.12,120.83 1414.78,118.496 1396.5,108C 1384.57,97.8078 1378.57,84.8078 1378.5,69C 1382.35,29.651 1403.69,6.48429 1442.5,-0.5 Z"/></g>
<g><path style="opacity:1" fill="#ea2425" d="M -0.5,524.5 C -0.5,522.833 -0.5,521.167 -0.5,519.5C 35.6573,364.397 71.324,209.063 106.5,53.5C 148.167,53.5 189.833,53.5 231.5,53.5C 246.737,142.015 262.737,230.348 279.5,318.5C 326.961,230.413 374.294,142.246 421.5,54C 463.165,53.5 504.832,53.3333 546.5,53.5C 527.335,210.157 508.168,366.823 489,523.5C 451.239,524.496 413.406,524.83 375.5,524.5C 385.264,442.736 394.597,361.069 403.5,279.5C 366.802,345.057 330.468,410.891 294.5,477C 266.161,477.833 237.827,477.667 209.5,476.5C 195.938,411.858 182.438,347.191 169,282.5C 149.858,362.699 131.025,443.032 112.5,523.5C 74.8392,524.5 37.1726,524.833 -0.5,524.5 Z"/></g>
<g><path style="opacity:1" fill="#099747" d="M 2084.5,437.5 C 2084.5,441.5 2084.5,445.5 2084.5,449.5C 2083.12,452.074 2081.45,454.574 2079.5,457C 2018.17,501.667 1956.83,546.333 1895.5,591C 1888.44,592.745 1882.27,591.245 1877,586.5C 1862.5,566 1848,545.5 1833.5,525C 1802.56,515.847 1771.56,506.847 1740.5,498C 1736.05,495.886 1732.55,492.719 1730,488.5C 1698,443.167 1666,397.833 1634,352.5C 1616.66,326.543 1619.16,302.71 1641.5,281C 1645.81,278.012 1650.48,275.845 1655.5,274.5C 1655.65,273.448 1655.48,272.448 1655,271.5C 1628,233.5 1601,195.5 1574,157.5C 1560.4,137.407 1560.07,117.073 1573,96.5C 1583.58,84.1285 1597.08,78.1285 1613.5,78.5C 1627.97,78.6494 1639.8,84.3161 1649,95.5C 1671.09,127.342 1693.42,159.009 1716,190.5C 1721.77,181.867 1729.61,176.033 1739.5,173C 1750.5,172.667 1761.5,172.333 1772.5,172C 1786.42,148.694 1806.26,141.194 1832,149.5C 1843.65,127.493 1861.82,118.66 1886.5,123C 1897,125.832 1905.83,131.332 1913,139.5C 1947.33,188.167 1981.67,236.833 2016,285.5C 2023.64,314.07 2030.98,342.737 2038,371.5C 2053.36,393.68 2068.86,415.68 2084.5,437.5 Z M 1609.5,110.5 C 1615.31,110.821 1620.14,113.154 1624,117.5C 1666.64,178.463 1709.64,239.13 1753,299.5C 1762.26,293.785 1771.09,287.452 1779.5,280.5C 1767.53,263.361 1755.36,246.361 1743,229.5C 1737.89,221.341 1738.72,213.841 1745.5,207C 1754.25,201.894 1761.75,203.394 1768,211.5C 1779.69,228.89 1791.85,245.89 1804.5,262.5C 1813.31,256.192 1821.97,249.692 1830.5,243C 1820.28,229.109 1810.44,214.942 1801,200.5C 1798.33,188.502 1803,181.169 1815,178.5C 1817.45,179.406 1819.95,180.239 1822.5,181C 1824.33,182.833 1826.17,184.667 1828,186.5C 1836.62,199.61 1845.78,212.276 1855.5,224.5C 1864.17,218.167 1872.83,211.833 1881.5,205.5C 1874.47,195.637 1867.64,185.637 1861,175.5C 1859.55,158.319 1867.05,152.152 1883.5,157C 1918.39,204.888 1952.89,253.055 1987,301.5C 1993.84,329.875 2000.84,358.209 2008,386.5C 2020.5,404.333 2033,422.167 2045.5,440C 1994.97,477.36 1944.31,514.526 1893.5,551.5C 1881.43,535.047 1869.6,518.38 1858,501.5C 1856.17,499.667 1854.33,497.833 1852.5,496C 1820.6,486.358 1788.6,477.025 1756.5,468C 1724,422.167 1691.5,376.333 1659,330.5C 1653.45,321.295 1654.95,313.462 1663.5,307C 1671.73,303.726 1678.56,305.56 1684,312.5C 1701.71,338.087 1719.54,363.587 1737.5,389C 1738.5,389.667 1739.5,389.667 1740.5,389C 1747.99,383.089 1755.66,377.423 1763.5,372C 1764.52,370.951 1764.68,369.784 1764,368.5C 1708.09,289.675 1652.42,210.675 1597,131.5C 1595.06,120.697 1599.23,113.697 1609.5,110.5 Z"/></g>
<g><path style="opacity:1" fill="#ea2425" d="M 1168.5,151.5 C 1183.54,151.124 1198.54,151.624 1213.5,153C 1248.16,158.659 1269.66,178.493 1278,212.5C 1281.22,232.818 1281.22,253.152 1278,273.5C 1263.5,357.177 1249,440.844 1234.5,524.5C 1195.5,524.5 1156.5,524.5 1117.5,524.5C 1130.78,444.807 1144.28,365.14 1158,285.5C 1162.94,250.428 1148.44,237.261 1114.5,246C 1098.9,253.945 1088.74,266.445 1084,283.5C 1069.52,363.732 1055.68,444.065 1042.5,524.5C 1003.49,524.833 964.494,524.5 925.5,523.5C 942.213,428.553 958.713,333.553 975,238.5C 977.017,212.862 978.517,187.195 979.5,161.5C 1011.83,161.5 1044.17,161.5 1076.5,161.5C 1077.09,174.159 1077.59,186.825 1078,199.5C 1102.39,172.556 1132.56,156.556 1168.5,151.5 Z"/></g>
<g><path style="opacity:1" fill="#ea2425" d="M 607.5,161.5 C 646.5,161.5 685.5,161.5 724.5,161.5C 711.659,238.211 698.493,314.877 685,391.5C 682.965,402.426 682.299,413.426 683,424.5C 686.133,438.504 694.966,444.838 709.5,443.5C 726.702,442.487 740.202,434.821 750,420.5C 753.216,414.736 755.883,408.736 758,402.5C 771.943,322.507 785.776,242.507 799.5,162.5C 838.494,161.5 877.494,161.167 916.5,161.5C 900.002,258.487 883.502,355.487 867,452.5C 864.93,476.486 863.096,500.486 861.5,524.5C 828.833,524.5 796.167,524.5 763.5,524.5C 763.832,513.147 763.499,501.814 762.5,490.5C 761.833,490.167 761.167,489.833 760.5,489.5C 723.01,529.469 677.343,542.969 623.5,530C 588.788,520.621 568.955,498.121 564,462.5C 562.063,448.17 562.063,433.837 564,419.5C 578.393,333.473 592.893,247.473 607.5,161.5 Z"/></g>
<g><path style="opacity:1" fill="#ea2425" d="M 1365.5,161.5 C 1404.5,161.5 1443.5,161.5 1482.5,161.5C 1461.94,282.518 1441.27,403.518 1420.5,524.5C 1381.5,524.5 1342.5,524.5 1303.5,524.5C 1324.17,403.5 1344.83,282.5 1365.5,161.5 Z"/></g>
<g><path style="opacity:1" fill="#099747" d="M 961.5,565.5 C 1003.25,565.408 1022.75,586.075 1020,627.5C 1011.63,661.2 990.128,680.033 955.5,684C 937.909,686.223 922.243,681.889 908.5,671C 895.528,655.247 891.695,637.413 897,617.5C 907.656,586.675 929.156,569.341 961.5,565.5 Z"/></g>
<g><path style="opacity:1" fill="#099747" d="M 704.5,1102.5 C 693.833,1102.5 683.167,1102.5 672.5,1102.5C 618.162,1097.48 591.496,1067.48 592.5,1012.5C 593.23,997.428 594.73,982.428 597,967.5C 618.385,844.522 639.552,721.522 660.5,598.5C 699.5,598.5 738.5,598.5 777.5,598.5C 757.101,719.561 736.268,840.561 715,961.5C 712.733,972.48 712.399,983.48 714,994.5C 715.833,1001.67 720.333,1006.17 727.5,1008C 733.5,1008.67 739.5,1008.67 745.5,1008C 757.471,1005.4 769.138,1001.9 780.5,997.5C 784.449,1024.19 788.283,1050.86 792,1077.5C 764.367,1091.53 735.2,1099.86 704.5,1102.5 Z"/></g>
<g><path style="opacity:1" fill="#099747" d="M 210.5,664.5 C 272.766,665.045 295.933,695.379 280,755.5C 268.831,777.995 251.331,793.495 227.5,802C 204.525,810.128 180.858,814.795 156.5,816C 156.195,839.202 167.861,851.369 191.5,852.5C 212.044,850.763 231.044,844.43 248.5,833.5C 254.328,849.15 259.661,864.983 264.5,881C 257.54,887.157 249.54,891.824 240.5,895C 206.749,908.936 172.082,911.936 136.5,904C 106.134,893.962 88.3004,873.129 83,841.5C 75.3627,789.768 88.3627,744.102 122,704.5C 146.388,679.87 175.888,666.537 210.5,664.5 Z M 200.5,718.5 C 215.832,717.657 221.999,724.657 219,739.5C 215.947,747.218 210.781,753.052 203.5,757C 190.193,764.714 175.86,768.88 160.5,769.5C 163.749,750.824 172.749,735.657 187.5,724C 191.741,721.651 196.075,719.818 200.5,718.5 Z"/></g>
<g><path style="opacity:1" fill="#099747" d="M 448.5,664.5 C 463.693,663.905 478.027,667.071 491.5,674C 506.802,686.202 513.802,702.202 512.5,722C 512.38,728.53 511.88,735.03 511,741.5C 501.723,794.828 492.557,848.161 483.5,901.5C 458.498,901.667 433.498,901.5 408.5,901C 418.142,848.148 427.142,795.148 435.5,742C 433.877,725.087 424.877,719.42 408.5,725C 397.682,730.165 390.848,738.665 388,750.5C 379.118,800.459 370.451,850.459 362,900.5C 337.239,901.661 312.406,901.827 287.5,901C 298.263,840.923 308.763,780.756 319,720.5C 320.226,704.153 321.393,687.82 322.5,671.5C 342.833,671.5 363.167,671.5 383.5,671.5C 383.905,679.168 384.405,686.835 385,694.5C 402.336,676.247 423.503,666.247 448.5,664.5 Z"/></g>
<g><path style="opacity:1" fill="#099747" d="M 1253.5,717.5 C 1277.42,715.274 1300.42,718.774 1322.5,728C 1343.08,739.602 1355.58,757.102 1360,780.5C 1363.18,799.487 1363.18,818.487 1360,837.5C 1345.44,921.851 1330.77,1006.18 1316,1090.5C 1276.9,1091.83 1237.73,1091.83 1198.5,1090.5C 1213.42,1007.15 1227.42,923.651 1240.5,840C 1241.57,821.252 1232.9,810.752 1214.5,808.5C 1189.18,810.647 1173.01,823.98 1166,848.5C 1151.4,929.431 1137.23,1010.43 1123.5,1091.5C 1084.83,1091.5 1046.17,1091.5 1007.5,1091.5C 1023.78,995.142 1040.28,898.808 1057,802.5C 1058.65,777.505 1060.15,752.505 1061.5,727.5C 1093.83,727.5 1126.17,727.5 1158.5,727.5C 1158.6,740.18 1159.1,752.847 1160,765.5C 1185.12,737.688 1216.29,721.688 1253.5,717.5 Z"/></g>
<g><path style="opacity:1" fill="#099747" d="M 1554.5,1102.5 C 1542.5,1102.5 1530.5,1102.5 1518.5,1102.5C 1447.55,1096.72 1406.05,1058.72 1394,988.5C 1386.48,922.242 1400.82,861.242 1437,805.5C 1490.83,732.989 1562.33,705.489 1651.5,723C 1688.38,733.882 1709.55,758.382 1715,796.5C 1719.36,856.294 1694.86,899.461 1641.5,926C 1600.11,944.147 1556.77,954.147 1511.5,956C 1509,987.874 1523.67,1006.87 1555.5,1013C 1579.5,1014.8 1602.5,1010.8 1624.5,1001C 1636.05,995.724 1647.38,990.224 1658.5,984.5C 1666.19,1009.74 1674.19,1034.91 1682.5,1060C 1662.37,1074.06 1640.37,1084.39 1616.5,1091C 1596.03,1096.69 1575.37,1100.52 1554.5,1102.5 Z M 1584.5,801.5 C 1608.32,802.502 1616.82,814.502 1610,837.5C 1604.94,848.558 1597.11,857.058 1586.5,863C 1564.79,875.348 1541.46,882.014 1516.5,883C 1521.51,861.48 1530.68,841.98 1544,824.5C 1554.71,811.734 1568.21,804.068 1584.5,801.5 Z"/></g>
<g><path style="opacity:1" fill="#099747" d="M 2084.5,745.5 C 2084.5,747.833 2084.5,750.167 2084.5,752.5C 2069.04,838.642 2053.87,924.976 2039,1011.5C 2037,1038.16 2035.17,1064.83 2033.5,1091.5C 2000.5,1091.5 1967.5,1091.5 1934.5,1091.5C 1934.5,1080.17 1934.5,1068.83 1934.5,1057.5C 1933.45,1057.35 1932.45,1057.52 1931.5,1058C 1910.74,1083.05 1884.07,1097.38 1851.5,1101C 1786.6,1107.07 1746.43,1078.57 1731,1015.5C 1719.78,947.514 1729.78,882.848 1761,821.5C 1796.49,761.135 1849.32,726.968 1919.5,719C 1976.63,714.633 2031.63,723.466 2084.5,745.5 Z M 1919.5,801.5 C 1931.71,800.718 1943.71,801.885 1955.5,805C 1957.22,805.523 1958.56,806.523 1959.5,808C 1949.61,864.819 1939.78,921.652 1930,978.5C 1921.87,1005.63 1903.71,1018.13 1875.5,1016C 1858.37,1011.87 1848.54,1001.04 1846,983.5C 1839.85,934.561 1847.52,887.894 1869,843.5C 1877.89,826.279 1891.05,813.445 1908.5,805C 1912.25,803.691 1915.92,802.525 1919.5,801.5 Z"/></g>
<g><path style="opacity:1" fill="#099747" d="M 881.5,727.5 C 920.5,727.5 959.5,727.5 998.5,727.5C 977.833,848.833 957.167,970.167 936.5,1091.5C 897.5,1091.5 858.5,1091.5 819.5,1091.5C 840.037,970.147 860.704,848.813 881.5,727.5 Z"/></g>
</svg>
