<svg xmlns="http://www.w3.org/2000/svg" width="39" height="71" viewBox="0 0 39 71" fill="none">
  <path d="M7.17002 45.56C5.31002 45.56 3.45 45.57 1.59 45.55C1.1 45.55 0.810014 45.62 0.820014 46.23C0.880014 52.54 3.12 57.66 8.81 60.88C11.06 62.15 13.5 62.96 16.07 63.23C17.23 63.35 17.56 63.76 17.49 64.9C17.38 66.61 17.48 68.34 17.45 70.06C17.44 70.62 17.56 70.87 18.19 70.86C19.66 70.82 21.14 70.82 22.61 70.86C23.21 70.88 23.39 70.69 23.38 70.09C23.34 68.55 23.37 67 23.37 65.46C23.37 63.41 23.37 63.41 25.36 63.06C34.48 61.43 39.35 54.78 38.08 45.65C37.43 40.99 34.61 37.88 30.79 35.49C27.9 33.68 24.84 32.2 21.73 30.82C20.32 30.19 18.96 29.48 17.7 28.56C14.71 26.37 15.2 21.46 16.82 19.61C17.35 19.01 17.99 18.61 18.75 18.4C21.52 17.63 24 18.88 25.05 21.55C25.5 22.71 25.71 23.92 25.69 25.15C25.68 25.73 25.87 25.95 26.47 25.94C30.19 25.92 33.91 25.92 37.64 25.93C38.09 25.93 38.33 25.86 38.33 25.3C38.33 21.7 37.56 18.33 35.43 15.37C32.95 11.93 29.56 9.87999 25.43 9.10999C24.29 8.89999 23.96 8.47999 24.02 7.35999C24.12 5.49999 24.01 3.64003 24.06 1.78003C24.08 1.02003 23.83 0.829976 23.1 0.849976C21.77 0.899976 20.43 0.909976 19.1 0.849976C18.35 0.819976 18.15 1.06999 18.16 1.79999C18.2 3.79999 18.16 5.79999 18.18 7.79999C18.19 8.38999 18.05 8.65997 17.39 8.71997C16.1 8.84997 14.82 9.1 13.58 9.5C7.69999 11.4 3.63999 15.04 2.79999 21.4C1.97999 27.56 3.84002 32.7 9.29002 36.19C11.36 37.52 13.56 38.6 15.79 39.63C17.8 40.55 19.91 41.23 21.8 42.4C24.67 44.17 25.81 46.72 25.17 50.02C24.86 51.62 24.08 52.9 22.5 53.55C19.54 54.76 15.85 53.35 14.42 50.49C13.78 49.2 13.53 47.82 13.5 46.42C13.48 45.66 13.21 45.5 12.51 45.52C10.75 45.59 8.96002 45.56 7.17002 45.56Z" fill="url(#paint0_linear_334_333)"/>
  <defs>
    <linearGradient id="paint0_linear_334_333" x1="1.77031" y1="35.8659" x2="37.3951" y2="35.8659" gradientUnits="userSpaceOnUse">
      <stop stop-color="#9CBD1D"/>
      <stop offset="1" stop-color="#038638"/>
    </linearGradient>
  </defs>
</svg>