<svg width="64" height="64" viewBox="0 0 64 64" fill="none" xmlns="http://www.w3.org/2000/svg">
<g id="Group">
<path id="Vector" d="M47.8518 47.8196C56.537 39.1344 56.537 25.053 47.8518 16.3678C39.1666 7.6826 25.0851 7.68255 16.4 16.3677C7.71479 25.0529 7.71484 39.1344 16.4 47.8196C25.0852 56.5047 39.1666 56.5047 47.8518 47.8196Z" fill="#008938" stroke="#008938" stroke-width="0.4168" stroke-miterlimit="10"/>
<path id="Vector_2" d="M25.75 28.96C25.53 28.45 25.1 27.26 25.16 25.71C25.19 25.1 25.3 23.14 26.73 21.4C28.72 18.98 31.65 18.92 32.08 18.91C32.54 18.91 35.31 18.94 37.33 21.2C38.91 22.97 39.05 25.02 39.1 25.77C39.14 26.43 39.19 27.72 38.51 29.15C38 30.21 37.3 30.89 36.86 31.26C37.34 31.52 38.01 31.92 38.71 32.53C39.41 33.15 40.57 34.36 41.26 36.19C41.68 37.3 41.74 38.15 41.85 39.68C41.94 41.04 41.98 42.94 41.7 45.25C35.29 45.25 28.88 45.25 22.46 45.25C22.3 42.83 22.36 40.85 22.46 39.43C22.58 37.8 22.72 37.17 22.89 36.63C23.54 34.59 24.75 33.28 25.27 32.77C26.02 32.03 26.7601 31.55 27.3001 31.25C26.8701 30.83 26.22 30.07 25.75 28.96Z" stroke="#EDEDED" stroke-width="0.955" stroke-miterlimit="10"/>
</g>
</svg>
