<svg width="251" height="269" viewBox="0 0 251 269" fill="none" xmlns="http://www.w3.org/2000/svg">
<path d="M37.2 108C37.2 108 28.9 98.45 25.77 88.9C22.64 79.35 24.13 80.45 24.13 80.45C24.13 80.45 28.36 89.73 31.56 94.21C34.77 98.69 40.48 105.26 40.48 105.26L37.2 108Z" fill="#375A64"/>
<path d="M38.85 81.94C38.58 81.47 37.87 81.72 37.95 82.25C38.46 85.6 39.55 93.47 39.51 98.58C39.45 105.21 39.51 107.77 39.51 107.77H42.96C42.96 107.77 42.35 94.06 41.57 89.88C41.03 86.96 39.86 83.7 38.85 81.94Z" fill="#375A64"/>
<path d="M40.74 106.66C40.74 106.66 42.91 102.09 43.58 96.35C43.86 93.91 43.36 90.61 42.6 86.21C42.23 84.08 42.15 82.46 42.16 81.33C42.17 80.48 43.29 80.2 43.71 80.94C44.13 81.68 45.33 84.22 45.64 85.82C46.48 90.17 47.42 92.34 46.7 96.46C45.98 100.58 43.3 106.94 43.3 106.94L40.74 106.66Z" fill="#375A64"/>
<path d="M43.85 106.94C43.85 106.94 52.96 87.37 53.59 84.46C54.22 81.56 56.37 74.86 56.62 75.24C56.87 75.62 57.25 79.15 55.61 83.19C53.97 87.23 46.96 107.53 46.96 107.53H43.85" fill="#375A64"/>
<path d="M39.74 106.06C39.74 106.07 39.65 106 39.48 105.88C39.32 105.76 39.07 105.59 38.77 105.34C38.16 104.86 37.31 104.14 36.32 103.18C34.33 101.27 31.86 98.33 29.71 94.7C27.56 91.07 26.11 87.53 25.2 84.93C24.74 83.63 24.41 82.57 24.19 81.83C24.08 81.46 24 81.17 23.95 80.98C23.9 80.78 23.87 80.68 23.88 80.68C23.89 80.68 23.92 80.78 23.99 80.97C24.06 81.18 24.15 81.46 24.27 81.81C24.51 82.54 24.8601 83.6 25.3401 84.89C26.2901 87.47 27.75 91 29.89 94.61C32.03 98.22 34.47 101.16 36.43 103.09C37.4 104.06 38.24 104.8 38.83 105.29C39.12 105.54 39.36 105.72 39.51 105.86C39.66 105.99 39.74 106.06 39.74 106.06Z" fill="#1A2E35"/>
<path d="M40.74 96.67C40.73 96.67 40.7 96.47 40.66 96.1C40.62 95.69 40.56 95.17 40.49 94.53C40.35 93.21 40.12 91.38 39.8 89.37C39.48 87.36 39.1201 85.56 38.8401 84.26C38.7101 83.63 38.59 83.12 38.51 82.72C38.43 82.36 38.39 82.15 38.41 82.15C38.42 82.15 38.4801 82.34 38.5901 82.7C38.6901 83.06 38.83 83.58 38.98 84.23C39.29 85.53 39.67 87.33 40 89.34C40.32 91.35 40.53 93.18 40.64 94.51C40.7 95.17 40.73 95.71 40.75 96.09C40.75 96.46 40.75 96.67 40.74 96.67Z" fill="#1A2E35"/>
<path d="M42.87 80.79C42.88 80.79 42.91 80.87 42.98 81.04C43.05 81.22 43.14 81.47 43.25 81.77C43.37 82.09 43.51 82.47 43.64 82.94C43.78 83.4 43.95 83.92 44.08 84.51C44.15 84.8 44.23 85.11 44.31 85.43C44.39 85.75 44.44 86.09 44.51 86.44C44.66 87.14 44.75 87.89 44.86 88.68C45.04 90.27 45.14 92.02 45.08 93.87C45.01 95.71 44.78 97.46 44.49 99.03C44.32 99.81 44.18 100.56 43.98 101.24C43.89 101.58 43.81 101.92 43.71 102.23C43.61 102.54 43.51 102.84 43.42 103.13C43.25 103.71 43.03 104.21 42.87 104.66C42.71 105.11 42.54 105.49 42.4 105.79C42.27 106.08 42.16 106.32 42.08 106.5C42 106.66 41.96 106.74 41.95 106.74C41.94 106.74 41.97 106.65 42.04 106.48C42.11 106.3 42.21 106.06 42.33 105.76C42.46 105.45 42.62 105.07 42.77 104.62C42.93 104.17 43.13 103.66 43.29 103.08C43.38 102.79 43.47 102.49 43.57 102.18C43.67 101.87 43.74 101.53 43.83 101.19C44.02 100.51 44.16 99.77 44.32 98.99C44.6 97.43 44.82 95.69 44.89 93.86C44.95 92.03 44.86 90.28 44.69 88.7C44.58 87.91 44.5 87.16 44.36 86.47C44.29 86.12 44.24 85.78 44.17 85.46C44.1 85.14 44.03 84.83 43.96 84.54C43.84 83.95 43.67 83.43 43.55 82.97C43.43 82.51 43.3 82.12 43.19 81.8C43.09 81.49 43.01 81.25 42.95 81.06C42.89 80.88 42.86 80.79 42.87 80.79Z" fill="#1A2E35"/>
<path d="M56.51 75.64C56.51 75.64 56.51 75.67 56.5 75.73C56.49 75.8 56.48 75.88 56.46 75.98C56.42 76.2 56.37 76.53 56.28 76.95C56.1 77.79 55.81 79 55.36 80.47C54.91 81.94 54.28 83.66 53.55 85.56C52.82 87.46 51.96 89.52 51.15 91.72C50.33 93.91 49.7 96.06 49.1 98C48.51 99.94 47.95 101.69 47.41 103.13C46.88 104.57 46.36 105.71 45.97 106.48C45.78 106.87 45.62 107.16 45.51 107.36C45.46 107.45 45.42 107.52 45.38 107.58C45.35 107.63 45.33 107.65 45.33 107.65C45.33 107.65 45.34 107.62 45.36 107.57C45.39 107.51 45.43 107.43 45.47 107.34C45.57 107.14 45.72 106.84 45.9 106.45C46.27 105.67 46.76 104.53 47.28 103.09C47.8 101.65 48.35 99.9 48.93 97.95C49.51 96 50.14 93.86 50.97 91.66C51.78 89.46 52.64 87.39 53.38 85.5C54.13 83.61 54.76 81.9 55.23 80.44C55.7 78.98 56.01 77.78 56.21 76.94C56.31 76.52 56.37 76.19 56.42 75.97C56.44 75.87 56.46 75.79 56.48 75.72C56.5 75.66 56.51 75.64 56.51 75.64Z" fill="#1A2E35"/>
<path d="M28.43 71.31C27.86 70.74 26.9 71.34 27.14 72.11C27.38 72.89 27.75 73.91 28.28 75.05C29.53 77.71 33.21 87.26 34.93 92.5C36.65 97.74 39.08 107.53 39.08 107.53L42.76 106.93C42.76 106.93 39.4 90.86 36.11 85.07C33.46 80.42 30.82 73.7 28.43 71.31Z" fill="#375A64"/>
<path d="M35.94 95.79C35.95 95.79 36.02 95.94 36.13 96.23C36.24 96.52 36.39 96.94 36.55 97.46C36.89 98.51 37.3 99.97 37.72 101.6C38.14 103.23 38.48 104.71 38.73 105.78C38.84 106.29 38.93 106.71 39.01 107.05C39.07 107.35 39.1 107.52 39.09 107.52C39.08 107.52 39.02 107.36 38.94 107.06C38.85 106.72 38.74 106.3 38.6 105.8C38.32 104.69 37.95 103.24 37.54 101.63C37.12 100 36.73 98.54 36.43 97.48C36.28 96.98 36.16 96.56 36.07 96.23C35.97 95.96 35.92 95.79 35.94 95.79Z" fill="#1A2E35"/>
<path d="M40.93 107.24C40.93 107.24 40.92 107.21 40.91 107.14C40.9 107.06 40.89 106.97 40.87 106.85C40.83 106.6 40.8 106.22 40.72 105.74C40.59 104.77 40.34 103.38 39.95 101.68C39.56 99.98 38.98 97.98 38.23 95.81C37.48 93.63 36.53 91.28 35.46 88.84C33.3 83.97 31.14 79.66 29.72 76.47C29 74.88 28.45 73.58 28.08 72.67C27.89 72.22 27.76 71.86 27.67 71.62C27.63 71.51 27.59 71.42 27.57 71.35C27.55 71.29 27.54 71.26 27.54 71.25C27.54 71.25 27.56 71.28 27.59 71.34C27.62 71.41 27.66 71.5 27.71 71.61C27.82 71.86 27.97 72.2 28.16 72.64C28.55 73.54 29.12 74.83 29.85 76.41C31.3 79.58 33.48 83.89 35.65 88.76C36.72 91.2 37.67 93.56 38.41 95.75C39.16 97.94 39.72 99.94 40.1 101.65C40.48 103.36 40.7 104.76 40.81 105.73C40.88 106.21 40.9 106.59 40.92 106.85C40.93 106.97 40.94 107.06 40.94 107.14C40.93 107.2 40.93 107.24 40.93 107.24Z" fill="#1A2E35"/>
<path d="M42.76 106.94C42.75 106.94 42.7 106.72 42.64 106.32C42.57 105.89 42.47 105.32 42.35 104.63C42.1 103.21 41.71 101.24 41.15 99.11C40.6 96.97 39.98 95.07 39.5 93.71C39.27 93.05 39.07 92.51 38.92 92.1C38.78 91.72 38.71 91.51 38.72 91.5C38.73 91.49 38.83 91.7 38.99 92.07C39.15 92.44 39.37 92.99 39.62 93.67C40.13 95.03 40.77 96.93 41.33 99.07C41.89 101.21 42.25 103.19 42.47 104.62C42.57 105.34 42.65 105.92 42.7 106.32C42.75 106.71 42.77 106.94 42.76 106.94Z" fill="#1A2E35"/>
<path d="M50.3 106.41H35.95V123.9H50.3V106.41Z" fill="#FF735D"/>
<g opacity="0.3">
<path d="M50.3 106.41H35.95V123.9H50.3V106.41Z" fill="black"/>
</g>
<path d="M45.72 106.41H32.99V123.9H45.72V106.41Z" fill="#FF735D"/>
<path d="M240.45 183.4C240.45 183.4 222.66 191.41 204.14 191.41C186.98 191.41 168.83 182.77 168.83 182.77L240.45 183.4Z" fill="#E1E1E1"/>
<path d="M202.2 260.506L209.55 260.506L209.55 183.556L202.2 183.556L202.2 260.506Z" fill="#E1E1E1"/>
<path d="M173.27 260.509L238.48 260.509L238.48 255.999L173.27 255.999L173.27 260.509Z" fill="#E1E1E1"/>
<path d="M230.5 261.98C230.5 264.73 232.73 266.96 235.48 266.96C238.23 266.96 240.46 264.73 240.46 261.98C240.46 259.23 238.23 257 235.48 257C232.73 257 230.5 259.23 230.5 261.98Z" fill="#1A2E35"/>
<path d="M201.52 261.98C201.52 264.73 203.75 266.96 206.5 266.96C209.25 266.96 211.48 264.73 211.48 261.98C211.48 259.23 209.25 257 206.5 257C203.75 257 201.52 259.23 201.52 261.98Z" fill="#1A2E35"/>
<path d="M167.96 261.98C167.96 264.73 170.19 266.96 172.94 266.96C175.69 266.96 177.92 264.73 177.92 261.98C177.92 259.23 175.69 257 172.94 257C170.19 257 167.96 259.23 167.96 261.98Z" fill="#1A2E35"/>
<path d="M204.145 215.381L214.135 215.381L214.135 211.241L204.145 211.241L204.145 215.381Z" fill="#E1E1E1"/>
<path d="M212.318 218.281L215.958 218.281L215.958 208.351L212.318 208.351L212.318 218.281Z" fill="#E1E1E1"/>
<path d="M212.38 173.61H250.34V74.42C250.34 69.92 246.69 66.27 242.19 66.27H212.38V173.61Z" fill="#375A64"/>
<path d="M241.93 171.98C242.03 171.98 242.11 148.69 242.11 119.96C242.11 91.23 242.03 67.94 241.93 67.94C241.83 67.94 241.75 91.23 241.75 119.96C241.75 148.69 241.83 171.98 241.93 171.98Z" fill="#1A2E35"/>
<path d="M156.36 185.06H244.75C247.84 185.06 250.34 182.56 250.34 179.47V173.39H156.36V185.06Z" fill="#375A64"/>
<path d="M197.14 23.82L201.21 62.65C201.9 69.25 201.57 79.1 191.08 79.71C181.94 79.56 178.75 71.21 178.11 65.05C177.81 62.13 177.55 59.69 177.5 59.39C177.5 59.39 167.52 59.5 165.78 49.79C164.94 45.1 164 35.29 163.24 26.41C162.43 16.87 169.1 8.32 178.54 6.75L179.48 6.59C189.69 5.51 196.33 13.58 197.14 23.82Z" fill="#FFBF9D"/>
<path d="M177.49 59.4C177.49 59.4 183.68 58.74 189.54 53.55C189.54 53.55 187.63 61.17 177.78 61.91L177.49 59.4Z" fill="#FF9A6C"/>
<path d="M180.34 28.89C180.55 29.07 181.6 28.06 183.23 27.86C184.86 27.64 186.16 28.36 186.32 28.13C186.4 28.03 186.16 27.69 185.59 27.36C185.03 27.03 184.11 26.76 183.09 26.89C182.07 27.02 181.26 27.51 180.82 27.96C180.36 28.42 180.23 28.81 180.34 28.89Z" fill="#1A2E35"/>
<path d="M180.5 32.65C180.59 33.35 181.26 33.85 181.99 33.77C182.72 33.69 183.24 33.06 183.15 32.36C183.06 31.66 182.39 31.16 181.66 31.24C180.93 31.32 180.41 31.95 180.5 32.65Z" fill="#1A2E35"/>
<path d="M177.28 40.67C177.27 40.58 176.32 40.58 174.78 40.64C174.39 40.66 174.02 40.65 173.91 40.4C173.77 40.14 173.87 39.7 173.98 39.23C174.19 38.25 174.4 37.22 174.63 36.13C175.51 31.73 176.08 28.14 175.9 28.1C175.72 28.07 174.87 31.61 173.99 36.01C173.78 37.09 173.58 38.13 173.39 39.11C173.32 39.57 173.15 40.1 173.44 40.64C173.59 40.91 173.9 41.07 174.16 41.09C174.42 41.12 174.63 41.09 174.82 41.07C176.35 40.91 177.29 40.76 177.28 40.67Z" fill="#1A2E35"/>
<path d="M180.47 22.66C180.66 23.01 181.95 22.61 183.53 22.55C185.11 22.45 186.43 22.71 186.58 22.35C186.64 22.18 186.37 21.86 185.81 21.59C185.25 21.32 184.4 21.11 183.45 21.15C182.5 21.2 181.68 21.49 181.15 21.82C180.62 22.15 180.38 22.49 180.47 22.66Z" fill="#1A2E35"/>
<path d="M165.17 27.13C165.37 27.41 166.62 26.96 168.16 26.77C169.7 26.55 171.01 26.66 171.15 26.33C171.21 26.18 170.93 25.93 170.37 25.75C169.81 25.56 168.97 25.46 168.04 25.58C167.11 25.7 166.31 26.03 165.81 26.35C165.31 26.69 165.08 27 165.17 27.13Z" fill="#1A2E35"/>
<path d="M197.55 31.16C197.7 31.06 203.91 28.07 204.8 34.76C205.69 41.45 198.8 40.97 198.76 40.78C198.72 40.58 197.55 31.16 197.55 31.16Z" fill="#FFBF9D"/>
<path d="M200.46 37.97C200.49 37.94 200.59 38.04 200.8 38.1C201 38.16 201.34 38.18 201.67 38C202.34 37.65 202.79 36.44 202.66 35.24C202.6 34.63 202.39 34.07 202.11 33.62C201.84 33.16 201.48 32.86 201.11 32.84C200.75 32.81 200.52 33.05 200.47 33.25C200.41 33.45 200.47 33.58 200.43 33.59C200.41 33.61 200.27 33.5 200.29 33.21C200.3 33.07 200.36 32.91 200.5 32.76C200.64 32.61 200.87 32.51 201.12 32.5C201.64 32.47 202.17 32.88 202.48 33.37C202.82 33.86 203.06 34.49 203.13 35.18C203.27 36.53 202.75 37.89 201.82 38.3C201.37 38.49 200.95 38.4 200.73 38.27C200.49 38.13 200.44 37.98 200.46 37.97Z" fill="#FF9A6C"/>
<path d="M179.29 45.17C179.2 45.01 180.48 44.49 181.29 43.17C181.7 42.52 181.9 41.83 182.06 41.33C182.21 40.82 182.33 40.51 182.41 40.52C182.48 40.53 182.49 40.87 182.44 41.41C182.38 41.94 182.22 42.72 181.76 43.45C181.31 44.19 180.66 44.67 180.17 44.92C179.66 45.18 179.32 45.23 179.29 45.17Z" fill="#1A2E35"/>
<path d="M205.47 19.47C203.85 17.23 203.27 14.44 202.26 11.87C201.25 9.30002 199.53 6.70003 196.85 6.01003L196.79 6.04003C194.38 5.32003 191.51 5.57001 189.75 7.36001C188.95 3.91001 185.64 1.43003 182.15 0.850026C178.66 0.270026 173.25 1.31003 170.1 2.92003C167.67 4.17003 165.42 6.48002 162.74 9.81002C161.61 11.21 160.58 12.71 159.7 14.28L157.58 23.7L160.56 28.26C160.74 28.57 160.93 28.88 161.15 29.19V29.17L164.37 39.06C164.26 36.29 163.18 26.72 163.07 23.95C167.31 23.37 170.99 21.3 173.56 17.88C174.91 16.07 175.9 13.88 177.82 12.69C180.3 11.17 183.48 11.82 186.3 12.51L186.17 12.42C187.65 12.95 189.04 13.76 190.21 14.81C190.09 20.29 191.17 25.8 193.36 30.83C193.69 31.59 194.54 33.13 195.33 33.36C196.89 33.8 197.16 32.23 197.99 31.33C198.6 30.67 199.59 30.5 200.67 30.4C201.15 28.67 201.55 25.79 201.87 23.26C202.81 23.45 203.78 23.44 204.71 23.19C204.36 22.52 204 21.86 203.65 21.19C204.05 21.39 204.46 21.6 204.91 21.62C205.36 21.64 205.85 21.43 206.01 21.02C206.21 20.5 205.81 19.94 205.47 19.47Z" fill="#1A2E35"/>
<path d="M186.78 8.77C186.76 8.8 187.21 8.99 187.84 9.58C188.47 10.16 189.2 11.21 189.64 12.69C189.86 13.42 190.04 14.25 190.12 15.16C190.21 16.06 190.22 17.03 190.25 18.06C190.28 19.08 190.3 20.17 190.47 21.28C190.55 21.84 190.67 22.4 190.85 22.95C191.02 23.5 191.23 24.09 191.69 24.53C192.06 24.89 192.64 25.01 193.11 24.87C193.59 24.74 194 24.44 194.29 24.05C194.85 23.26 194.92 22.31 195 21.47L194.8 21.51C195.2 22.22 195.62 22.92 196.18 23.45C196.74 23.99 197.47 24.31 198.18 24.31C198.54 24.31 198.88 24.22 199.17 24.04C199.46 23.86 199.66 23.58 199.79 23.3C199.91 23.01 199.96 22.7 199.92 22.41C199.88 22.12 199.74 21.86 199.54 21.68L199.44 21.78C200.27 22.57 201.11 22.96 201.69 23.16C201.98 23.26 202.21 23.32 202.36 23.35C202.52 23.38 202.6 23.39 202.6 23.39C202.6 23.38 202.52 23.36 202.37 23.32C202.22 23.27 201.99 23.21 201.71 23.09C201.15 22.87 200.33 22.46 199.53 21.68L199.43 21.78C199.79 22.1 199.87 22.71 199.63 23.23C199.51 23.49 199.32 23.73 199.07 23.89C198.81 24.05 198.49 24.13 198.17 24.12C197.51 24.12 196.83 23.81 196.31 23.3C195.78 22.79 195.38 22.11 194.98 21.4L194.81 21.1L194.78 21.44C194.7 22.28 194.61 23.19 194.1 23.9C193.84 24.24 193.47 24.52 193.05 24.63C192.63 24.75 192.16 24.65 191.84 24.34C191.43 23.96 191.23 23.4 191.06 22.86C190.89 22.32 190.77 21.77 190.69 21.22C190.52 20.13 190.49 19.05 190.46 18.03C190.43 17.01 190.41 16.03 190.31 15.12C190.22 14.21 190.03 13.37 189.8 12.63C189.33 11.13 188.56 10.07 187.9 9.50002C187.24 8.93002 186.78 8.77 186.78 8.77Z" fill="#375A64"/>
<path d="M157.37 21.09C157.37 21.09 157.4 21.11 157.45 21.15C157.52 21.19 157.61 21.24 157.71 21.31C157.82 21.38 157.97 21.46 158.15 21.54C158.33 21.62 158.53 21.72 158.77 21.8C159.72 22.15 161.22 22.44 163.03 22.17C164.83 21.9 166.93 21.06 168.74 19.44C170.57 17.85 172.09 15.62 173.28 13.12C173.88 11.87 174.35 10.6 174.89 9.42004C175.42 8.24004 176.03 7.14002 176.8 6.24002C177.56 5.34002 178.48 4.64001 179.46 4.27001C179.95 4.07001 180.45 3.99002 180.93 3.96002C181.42 3.94002 181.88 4.00003 182.32 4.10003C183.19 4.31003 183.91 4.71004 184.47 5.14004C185.03 5.58004 185.43 6.06003 185.71 6.47003C186.24 7.33003 186.32 7.90004 186.35 7.89004C186.35 7.89004 186.35 7.85003 186.33 7.79003C186.31 7.71003 186.29 7.61002 186.26 7.49002C186.19 7.23002 186.04 6.86004 185.79 6.42004C185.52 5.99004 185.13 5.49003 184.56 5.04003C183.99 4.59003 183.26 4.16003 182.36 3.94003C181.91 3.83003 181.43 3.77002 180.93 3.78002C180.43 3.81002 179.9 3.89002 179.4 4.09002C178.38 4.47002 177.43 5.18003 176.64 6.10003C175.84 7.02003 175.22 8.14001 174.68 9.33001C174.14 10.52 173.67 11.79 173.07 13.03C171.89 15.51 170.39 17.72 168.6 19.29C166.83 20.89 164.77 21.73 163.01 22.02C161.23 22.31 159.75 22.05 158.8 21.73C157.85 21.38 157.38 21.06 157.37 21.09Z" fill="#375A64"/>
<path d="M165.45 30.88C165.66 31.06 166.71 30.05 168.34 29.85C169.97 29.63 171.27 30.35 171.43 30.12C171.51 30.02 171.27 29.68 170.7 29.35C170.14 29.02 169.22 28.75 168.2 28.88C167.18 29.01 166.37 29.5 165.93 29.95C165.47 30.42 165.34 30.8 165.45 30.88Z" fill="#1A2E35"/>
<path d="M166.84 33.92C166.93 34.62 167.6 35.12 168.33 35.04C169.06 34.96 169.58 34.33 169.49 33.63C169.4 32.93 168.73 32.43 168 32.51C167.26 32.59 166.74 33.22 166.84 33.92Z" fill="#1A2E35"/>
<path d="M160.42 13.08C159.7 14.27 158.53 15.4 157.14 15.4C156.73 15.4 155.64 15.13 155.64 15.13C155.19 15.47 155.48 17.1 155.85 17.52C156.23 17.94 156.99 18.48 156.99 18.48C155.47 19.51 153.96 19.24 152.18 18.79C152.79 21.68 155.06 24.15 157.88 25.01C158.78 25.28 159.85 25.37 160.59 24.78C161.24 24.26 161.43 23.37 161.56 22.55C162.02 19.54 162.11 16.47 161.82 13.43L160.42 13.08Z" fill="#1A2E35"/>
<path d="M178.53 68.51C178.53 68.51 172.35 71.02 168.83 79.58C166.36 85.59 152.61 104.57 152.61 104.57L116.05 112.69L114.8 124.35L173.28 123.87L181.41 97.99L178.53 68.51Z" fill="#FF735D"/>
<path d="M203.15 57.73L209.64 60.46C215.64 62.98 223.33 68.77 225.9 74.76C232.09 89.15 237.69 107.69 239.84 124.08C242.01 140.6 237.69 165.06 237.69 165.06L182.81 133.7L186.02 131.46L175.62 74.88L177.56 68.03L176.26 62.24C176.26 62.24 190.82 56.39 201.43 52.21L203.15 57.73Z" fill="#FF735D"/>
<g opacity="0.3">
<path d="M208.39 148.7C208.19 145.87 207.98 143.05 207.78 140.22C208.42 140.83 209.28 141.2 210.16 141.24C208.79 139.93 207.57 138.46 206.53 136.88C207.36 137.24 208.2 137.6 209.03 137.95C208.14 137.28 207.41 136.41 206.9 135.42C208.24 134.37 210.13 134.54 211.82 134.72C220.5 135.6 229.25 135.02 237.95 134.43C238.63 134.38 239.89 134.1 240.44 133.69C240.44 133.69 240.62 131.3 240.23 130.41C239.84 129.52 239.24 129.77 238.33 129.45C237.42 129.13 236.44 129.06 235.47 129.01C224.87 128.45 214.25 129.33 203.68 130.2C203.03 130.25 202.33 130.32 201.82 130.74C200.96 131.44 201.03 132.76 201.18 133.86C201.72 137.82 202.26 141.78 202.79 145.73" fill="black"/>
</g>
<path d="M176.27 72.59C176.26 72.59 176.28 72.77 176.32 73.12C176.38 73.5 176.45 74 176.54 74.63C176.74 75.94 177.05 77.83 177.47 80.17C178.29 84.84 179.54 91.27 181.02 98.35C182.5 105.43 183.91 111.83 184.96 116.45C185.49 118.73 185.92 120.59 186.22 121.92C186.37 122.54 186.49 123.03 186.58 123.4C186.67 123.74 186.72 123.91 186.73 123.91C186.74 123.91 186.71 123.73 186.65 123.38C186.58 123 186.48 122.51 186.35 121.88C186.07 120.54 185.68 118.68 185.2 116.39C184.21 111.72 182.86 105.33 181.36 98.27C179.88 91.19 178.6 84.77 177.71 80.12C177.27 77.82 176.92 75.95 176.67 74.61C176.55 73.99 176.45 73.49 176.38 73.11C176.32 72.77 176.28 72.59 176.27 72.59Z" fill="#1A2E35"/>
<path d="M225.9 152.92C225.91 152.91 225.8 152.8 225.57 152.59C225.32 152.36 224.99 152.06 224.59 151.69C224.16 151.3 223.63 150.82 223 150.3C222.37 149.77 221.66 149.16 220.83 148.53C219.21 147.23 217.21 145.78 214.92 144.25C212.62 142.74 210.04 141.18 207.24 139.69C204.43 138.22 201.68 136.97 199.14 135.92C196.59 134.9 194.26 134.07 192.27 133.46C191.28 133.13 190.38 132.9 189.58 132.67C188.79 132.44 188.1 132.27 187.53 132.14C186.99 132.02 186.56 131.92 186.23 131.84C185.93 131.78 185.77 131.75 185.77 131.76C185.77 131.77 185.92 131.82 186.21 131.91C186.54 132 186.97 132.13 187.49 132.28C188.05 132.43 188.73 132.62 189.52 132.87C190.31 133.11 191.21 133.37 192.18 133.71C194.15 134.35 196.46 135.2 199 136.24C201.52 137.3 204.26 138.56 207.06 140.02C209.85 141.5 212.43 143.05 214.73 144.53C217.01 146.04 219.03 147.46 220.66 148.73C221.49 149.34 222.21 149.95 222.86 150.46C223.51 150.97 224.05 151.42 224.49 151.8C224.91 152.15 225.25 152.43 225.52 152.65C225.76 152.83 225.89 152.93 225.9 152.92Z" fill="#1A2E35"/>
<path d="M197.73 132.21C197.68 132.3 203.02 135.3 209.65 138.91C216.28 142.52 221.7 145.38 221.75 145.29C221.8 145.2 216.46 142.2 209.83 138.59C203.2 134.98 197.78 132.12 197.73 132.21Z" fill="#1A2E35"/>
<g opacity="0.3">
<path d="M217.02 88.86C213.61 103.58 203.2 116.77 189.34 122.78C198.55 113.03 208.57 100.73 217.02 88.86Z" fill="black"/>
</g>
<g opacity="0.3">
<path d="M177.14 77.65C175.8 83.88 176.79 91.67 179.92 97.22L180.7 95.6C179.6 90.93 178.02 82.61 177.14 77.65Z" fill="black"/>
</g>
<path d="M147.97 226.47L154.55 246.27C154.55 246.27 136.64 259.6 137.5 263.38L176.33 252L167.35 220.73L147.97 226.47Z" fill="#375A64"/>
<g opacity="0.3">
<path d="M147.97 226.47L154.55 246.27C154.55 246.27 136.64 259.6 137.5 263.38L176.33 252L167.35 220.73L147.97 226.47Z" fill="black"/>
</g>
<path d="M166.06 241.07C166.87 241.06 167.64 241.75 167.69 242.56C167.74 243.37 167.04 244.16 166.23 244.19C165.42 244.22 164.47 243.42 164.52 242.6C164.56 241.79 165.43 240.91 166.23 241.08" fill="#E1E1E1"/>
<g opacity="0.6">
<path d="M176.33 252L175.3 248.88L138.44 260.95C138.44 260.95 136.93 262.21 137.48 263.37L176.33 252Z" fill="white"/>
</g>
<path d="M153.86 246.25C153.92 246.44 154.9 246.25 156.01 246.58C157.13 246.89 157.85 247.57 158 247.44C158.16 247.35 157.55 246.3 156.2 245.92C154.85 245.53 153.77 246.09 153.86 246.25Z" fill="#1A2E35"/>
<path d="M150.28 249.13C150.29 249.33 151.21 249.41 152.09 250.02C152.99 250.61 153.4 251.43 153.59 251.36C153.78 251.34 153.58 250.19 152.48 249.45C151.37 248.7 150.23 248.95 150.28 249.13Z" fill="#1A2E35"/>
<path d="M149.39 254.68C149.57 254.67 149.56 253.65 148.77 252.75C147.98 251.85 146.97 251.7 146.94 251.88C146.88 252.07 147.62 252.46 148.26 253.2C148.91 253.94 149.2 254.72 149.39 254.68Z" fill="#1A2E35"/>
<path d="M152.86 241.57C152.99 241.72 153.78 241.2 154.88 240.96C155.97 240.7 156.91 240.81 156.96 240.62C157.03 240.45 156.01 239.99 154.73 240.29C153.44 240.59 152.72 241.45 152.86 241.57Z" fill="#1A2E35"/>
<path d="M136.64 235.31L137.46 256.15C137.46 256.15 116.55 263.98 116.32 267.85L156.79 267.71L156.85 235.18L136.64 235.31Z" fill="#375A64"/>
<path d="M149.97 254.35C150.75 254.56 151.3 255.44 151.12 256.23C150.94 257.02 150.05 257.58 149.26 257.39C148.47 257.19 147.79 256.16 148.05 255.39C148.32 254.62 149.4 254.02 150.11 254.4" fill="#E1E1E1"/>
<g opacity="0.6">
<path d="M156.8 267.71L156.68 264.43L117.92 265.79C117.92 265.79 116.12 266.58 116.33 267.85L156.8 267.71Z" fill="white"/>
</g>
<path d="M136.8 255.95C136.81 256.15 137.8 256.23 138.77 256.87C139.76 257.48 140.27 258.33 140.45 258.25C140.63 258.21 140.33 257.03 139.14 256.29C137.95 255.52 136.76 255.76 136.8 255.95Z" fill="#1A2E35"/>
<path d="M132.56 257.72C132.52 257.91 133.37 258.24 134.05 259.08C134.75 259.89 134.92 260.8 135.12 260.79C135.31 260.82 135.44 259.66 134.58 258.64C133.73 257.61 132.57 257.53 132.56 257.72Z" fill="#1A2E35"/>
<path d="M130.17 262.8C130.35 262.84 130.62 261.85 130.11 260.77C129.61 259.69 128.67 259.26 128.59 259.43C128.48 259.59 129.08 260.17 129.49 261.07C129.91 261.95 129.97 262.79 130.17 262.8Z" fill="#1A2E35"/>
<path d="M137.14 251.17C137.22 251.35 138.13 251.07 139.25 251.15C140.37 251.2 141.24 251.57 141.34 251.4C141.45 251.26 140.6 250.53 139.29 250.46C137.97 250.39 137.04 251.02 137.14 251.17Z" fill="#1A2E35"/>
<path d="M185.12 133.23C185.12 133.23 136.61 145.84 130.59 154.24C125.5 161.34 152.21 233.87 152.21 233.87L173.28 232.05L164.2 171.38L218.55 154.1L210.34 133.23H185.12Z" fill="#1A2E35"/>
<path d="M181.64 144.59C181.64 144.59 132.05 156.64 127.04 165.2C124.7 169.2 126.23 182.31 127.11 188.51C127.7 192.68 136.47 251.06 136.47 251.06H157.91L157.44 185.13L208.96 174.74C208.96 174.74 236.62 176.85 237.69 165.05L226.15 149.41L198.9 135.94L181.64 144.59Z" fill="#1A2E35"/>
<path d="M185.42 143.08C185.42 143.08 185.17 143.14 184.7 143.27C184.22 143.4 183.52 143.6 182.6 143.86C180.74 144.38 178.02 145.14 174.51 146.12C171 147.1 166.7 148.3 161.74 149.78C156.78 151.27 151.14 153.04 145.04 155.35C141.98 156.49 138.82 157.8 135.57 159.25C134.76 159.62 133.94 159.99 133.11 160.36C132.29 160.76 131.48 161.2 130.69 161.7C129.9 162.2 129.14 162.76 128.44 163.4C127.74 164.04 127.08 164.77 126.64 165.65C124.97 173.25 125.98 181.55 127.22 190.05C127.76 194.33 128.46 198.69 129.11 203.15C129.78 207.61 130.46 212.17 131.15 216.81C132.54 226.09 133.98 235.69 135.45 245.53C135.73 247.39 136.01 249.25 136.28 251.09L136.3 251.25H136.46C143.77 251.25 150.93 251.25 157.9 251.25H158.08V251.07C157.89 226.08 157.71 203.45 157.57 185.14L157.46 185.28C172.86 182.15 185.38 179.6 194.06 177.84C198.39 176.95 201.76 176.26 204.05 175.79C205.19 175.55 206.06 175.37 206.65 175.25C207.24 175.12 207.53 175.05 207.53 175.05C207.53 175.05 207.23 175.1 206.64 175.21C206.04 175.33 205.17 175.49 204.03 175.72C201.73 176.17 198.36 176.84 194.02 177.7C185.33 179.44 172.81 181.94 157.39 185.02L157.28 185.04V185.16C157.4 203.47 157.55 226.1 157.71 251.09L157.89 250.91C150.92 250.91 143.76 250.91 136.45 250.91L136.63 251.07C136.35 249.23 136.08 247.37 135.8 245.51C134.33 235.67 132.89 226.07 131.49 216.79C130.79 212.15 130.11 207.6 129.44 203.13C128.78 198.67 128.08 194.3 127.53 190.03C127.24 187.89 126.96 185.79 126.68 183.71C126.37 181.63 126.22 179.58 126.14 177.54C126.07 175.5 126.07 173.49 126.15 171.52C126.19 170.53 126.25 169.55 126.33 168.59C126.43 167.62 126.45 166.64 126.9 165.82C127.32 164.99 127.95 164.28 128.63 163.65C129.32 163.02 130.06 162.47 130.84 161.98C131.61 161.49 132.41 161.04 133.22 160.65C134.04 160.27 134.86 159.9 135.67 159.53C138.91 158.07 142.07 156.76 145.11 155.61C151.2 153.29 156.82 151.51 161.77 150C166.73 148.5 171.02 147.29 174.52 146.28C178.02 145.27 180.74 144.49 182.59 143.95C183.5 143.68 184.2 143.47 184.68 143.33C185.18 143.16 185.42 143.08 185.42 143.08Z" fill="#375A64"/>
<path d="M116.74 113.26C116.42 112.79 112.33 108.06 111.22 108.06C110.12 108.06 108.86 109.32 108.86 109.32C108.86 109.32 107.44 108.69 106.5 109C105.55 109.32 101.14 113.1 101.14 114.52C101.14 115.94 101.14 116.88 101.14 116.88C101.14 116.88 100.98 117.67 101.14 118.77C101.3 119.87 103.98 121.76 103.98 121.76H119.1C119.1 121.76 121.99 119.81 121.63 117.98C121.26 116.15 116.74 113.26 116.74 113.26Z" fill="#FFBF9D"/>
<path d="M108.86 109.32C108.85 109.3 108.51 109.49 107.92 109.86C107.27 110.27 106.43 110.8 105.42 111.44C105.16 111.62 104.88 111.76 104.59 112.01C104.32 112.25 104.1 112.58 103.98 112.95C103.85 113.34 103.87 113.74 103.84 114.11C103.82 114.5 103.8 114.9 103.78 115.31C103.7 116.96 103.61 118.77 103.52 120.67C103.51 120.96 103.49 121.25 103.48 121.53L103.47 121.68L103.62 121.72C103.93 121.8 104.24 121.87 104.55 121.95L104.57 121.96H104.59C105.03 121.95 105.45 121.78 105.78 121.51C106.11 121.25 106.35 120.92 106.54 120.59C106.93 119.92 107.16 119.22 107.33 118.56C107.67 117.22 107.8 115.98 107.85 114.93L107.77 115.04C108.84 114.62 109.73 114.27 110.41 114C111.03 113.75 111.37 113.6 111.36 113.57C111.35 113.55 111 113.65 110.36 113.87C109.67 114.11 108.77 114.43 107.68 114.81L107.6 114.84L107.59 114.93C107.51 115.96 107.36 117.19 107.01 118.49C106.83 119.14 106.6 119.81 106.23 120.43C105.87 121.04 105.3 121.6 104.57 121.61L104.62 121.62C104.32 121.54 104.01 121.47 103.69 121.39L103.83 121.58C103.84 121.3 103.86 121.01 103.87 120.72C103.95 118.82 104.03 117.01 104.1 115.36C104.12 114.95 104.13 114.55 104.15 114.16C104.17 113.76 104.15 113.39 104.26 113.07C104.36 112.74 104.54 112.46 104.77 112.24C105 112.03 105.3 111.86 105.55 111.68C106.54 111 107.36 110.44 107.99 110.01C108.57 109.57 108.88 109.34 108.86 109.32Z" fill="#FF9A6C"/>
<path d="M119.1 121.23C119.1 121.2 118.74 121.15 118.09 121.09C117.36 121.03 116.43 120.96 115.33 120.87H115.31L115.29 120.88C114.39 121.09 113.34 121.29 112.18 121.44C111.6 121.51 110.99 121.57 110.36 121.58C109.75 121.6 109.06 121.56 108.7 121.11C108.5 120.87 108.44 120.53 108.44 120.19C108.43 119.84 108.49 119.5 108.5 119.13C108.51 118.87 108.69 118.58 108.91 118.36C109.13 118.13 109.39 117.95 109.66 117.8C110.76 117.18 111.93 117.17 112.9 117.23C113.9 117.26 114.73 116.86 115.04 116.37C115.37 115.9 115.34 115.55 115.32 115.56C115.29 115.55 115.26 115.87 114.93 116.28C114.6 116.7 113.86 117.02 112.9 116.97C111.96 116.88 110.68 116.86 109.49 117.51C109.2 117.67 108.91 117.86 108.65 118.12C108.41 118.38 108.16 118.69 108.13 119.14C108.12 119.46 108.06 119.83 108.06 120.21C108.06 120.58 108.12 121.02 108.4 121.36C108.64 121.67 109.01 121.83 109.35 121.9C109.69 121.98 110.04 121.97 110.36 121.96C111.01 121.94 111.62 121.88 112.21 121.8C113.39 121.63 114.44 121.4 115.35 121.17H115.31C116.41 121.21 117.34 121.24 118.07 121.27C118.73 121.26 119.1 121.25 119.1 121.23Z" fill="#FF9A6C"/>
<path d="M103.68 121.16C103.76 121.11 103.14 119.93 102.46 118.42C101.78 116.91 101.16 115.71 101.07 115.75C100.99 115.79 101.45 117.05 102.13 118.57C102.81 120.09 103.59 121.22 103.68 121.16Z" fill="#FF9A6C"/>
<path d="M136.49 124.35L81.93 125.07L64.36 75.81C63.97 74.79 64.45 73.63 65.45 73.19C66.54 72.71 67.81 73.24 68.23 74.36L85.54 121.01L136.5 121.52C137.28 121.53 137.9 122.16 137.9 122.94C137.91 123.72 137.28 124.35 136.49 124.35Z" fill="#1A2E35"/>
<path d="M217.81 87.78C217.81 87.78 191.15 124.07 186.99 124.07C182.82 124.07 148.05 124.07 148.05 124.07V109.32L177.5 102.37C177.5 102.37 192 72.36 195.21 68.51C198.42 64.66 207 59.49 213.41 65.26C219.82 71.03 217.81 87.78 217.81 87.78Z" fill="#FF735D"/>
<path d="M148.07 110.74L141.69 110.23C141.69 110.23 141.55 107.86 140.16 107.03C138.77 106.19 138.91 104.38 138.07 104.52C137.23 104.66 136.68 104.51 136.68 104.51L131.39 100.06L126.93 97.14L123.45 96.44C123.45 96.44 121.36 97 123.45 98.95L125.68 100.2L127.63 102.15L123.17 99.96C122.76 99.76 122.27 99.75 121.85 99.95C120.83 100.43 118.93 101.37 118.43 101.87C117.73 102.57 118.43 103.26 118.43 103.26L116.48 104.93C116.48 104.93 116.06 107.16 118.29 106.6L120.1 106.18L122.47 108.55C122.47 108.55 114.39 106.88 113.83 107.16C113.27 107.44 112.58 108.69 113.83 109.81C115.08 110.92 119.96 110.65 121.07 111.76C122.18 112.87 129.55 119.6 131.36 120.02C133.17 120.44 148.03 124.07 148.03 124.07L148.07 110.74Z" fill="#FFBF9D"/>
<path d="M116.48 104.94C116.51 104.97 116.9 104.65 117.58 104.16C117.91 103.92 118.31 103.63 118.76 103.32C118.98 103.17 119.22 103.01 119.47 102.86C119.72 102.72 119.99 102.54 120.22 102.55C120.76 102.58 121.3 102.96 121.78 103.2C122.26 103.46 122.68 103.71 123.04 103.92C123.75 104.34 124.19 104.61 124.22 104.57C124.25 104.53 123.86 104.18 123.18 103.7C122.84 103.46 122.42 103.19 121.94 102.91C121.7 102.77 121.45 102.63 121.18 102.49C120.91 102.35 120.6 102.21 120.23 102.19C120.14 102.18 120.05 102.19 119.94 102.22C119.85 102.25 119.77 102.28 119.7 102.32C119.55 102.39 119.42 102.47 119.29 102.55C119.03 102.71 118.79 102.88 118.57 103.04C118.12 103.37 117.74 103.68 117.42 103.95C116.78 104.5 116.44 104.9 116.48 104.94Z" fill="#FF9A6C"/>
<path d="M136.04 103.98C135.98 104.07 136.64 104.64 137.41 105.38C138.18 106.13 138.82 106.74 138.9 106.67C138.97 106.61 138.46 105.89 137.67 105.12C136.88 104.35 136.1 103.9 136.04 103.98Z" fill="#FF9A6C"/>
<path d="M195.2 68.51C195.2 68.51 194.58 69.23 193.66 70.76C192.74 72.28 191.44 74.55 189.88 77.5C186.74 83.39 182.42 91.92 177.36 102.31L177.46 102.23C168.77 104.27 158.76 106.62 148 109.15L147.86 109.18V109.32C147.86 114.07 147.86 119.02 147.86 124.07V124.25H148.04C148.6 124.25 149.2 124.25 149.81 124.25C161.55 124.24 172.73 124.24 182.91 124.24C184.18 124.24 185.44 124.24 186.68 124.24C186.84 124.24 186.98 124.25 187.17 124.22C187.34 124.19 187.5 124.13 187.65 124.06C187.95 123.93 188.21 123.75 188.46 123.57C188.97 123.21 189.43 122.81 189.88 122.4C191.66 120.76 193.23 119.02 194.74 117.32C197.73 113.92 200.38 110.64 202.78 107.63C207.57 101.6 211.31 96.63 213.88 93.18C215.15 91.46 216.14 90.11 216.82 89.19C217.15 88.74 217.39 88.39 217.57 88.14C217.74 87.9 217.82 87.78 217.82 87.78C217.82 87.78 217.72 87.89 217.54 88.12C217.36 88.36 217.1 88.7 216.76 89.14C216.07 90.05 215.06 91.38 213.77 93.09C211.16 96.51 207.39 101.46 202.58 107.46C200.17 110.45 197.51 113.72 194.52 117.11C193.02 118.79 191.44 120.53 189.68 122.15C189.24 122.55 188.78 122.94 188.29 123.29C188.04 123.46 187.79 123.63 187.53 123.75C187.26 123.89 187.03 123.91 186.7 123.9C185.46 123.9 184.21 123.9 182.93 123.9C172.76 123.9 161.57 123.89 149.83 123.89C149.22 123.89 148.62 123.89 148.06 123.89L148.24 124.07C148.24 119.01 148.24 114.06 148.24 109.32L148.1 109.49C158.86 106.94 168.86 104.57 177.55 102.52L177.62 102.5L177.65 102.43C182.68 92.03 186.96 83.48 190.05 77.57C191.59 74.61 192.86 72.33 193.76 70.79C194.22 70.03 194.56 69.44 194.84 69.07C195.08 68.71 195.2 68.51 195.2 68.51Z" fill="#1A2E35"/>
<path d="M199.08 66.14C199.1 66.2 199.99 65.84 201.48 65.5C202.23 65.33 203.13 65.19 204.13 65.1C205.14 65.03 206.25 65.02 207.41 65.12C208.57 65.24 209.66 65.45 210.64 65.71C211.61 65.98 212.47 66.29 213.17 66.6C214.57 67.21 215.38 67.73 215.41 67.67C215.42 67.65 215.23 67.51 214.87 67.26C214.51 67.01 213.97 66.7 213.27 66.36C212.57 66.01 211.71 65.68 210.72 65.38C209.73 65.1 208.62 64.87 207.44 64.75C206.26 64.64 205.12 64.66 204.1 64.76C203.08 64.87 202.16 65.04 201.42 65.25C200.67 65.45 200.08 65.66 199.68 65.84C199.28 66.01 199.07 66.11 199.08 66.14Z" fill="#1A2E35"/>
<path d="M182.85 109.08C182.93 109.05 182.25 107.38 180.86 105.65C179.49 103.92 178.01 102.87 177.96 102.95C177.89 103.03 179.23 104.18 180.57 105.88C181.93 107.56 182.75 109.13 182.85 109.08Z" fill="#1A2E35"/>
<path d="M183.75 104.56C183.81 104.49 182.78 103.61 181.22 103.06C179.67 102.5 178.31 102.52 178.32 102.62C178.31 102.73 179.61 102.87 181.1 103.41C182.6 103.93 183.69 104.65 183.75 104.56Z" fill="#1A2E35"/>
<path d="M158.72 180.3C159.29 179.13 160.65 178.61 161.89 178.21C186.42 170.3 212.74 166.51 238.11 171.12C241.16 171.67 244.31 172.4 246.73 174.34C249.15 176.28 250.61 179.76 249.31 182.57L244.1 184.24C218.16 181.35 191.88 181.54 165.99 184.79C164.25 185.01 162.4 185.23 160.79 184.54C159.17 183.85 157.96 181.88 158.72 180.3Z" fill="#375A64"/>
<path d="M187.19 172.18C187.19 172.19 187.25 172.18 187.35 172.17C187.48 172.15 187.63 172.13 187.82 172.11C188.27 172.04 188.87 171.95 189.64 171.84C191.22 171.59 193.5 171.22 196.33 170.9C201.99 170.22 209.87 169.63 218.57 169.84C220.75 169.88 222.87 169.99 224.91 170.15C226.96 170.31 228.92 170.42 230.82 170.59C231.06 170.6 231.31 170.61 231.55 170.57C231.78 170.54 231.99 170.53 232.22 170.54C232.66 170.56 233.1 170.65 233.54 170.74C234.41 170.92 235.26 171.1 236.08 171.27C237.71 171.64 239.22 172.04 240.57 172.48C243.28 173.36 245.33 174.44 246.66 175.31C247.33 175.74 247.83 176.11 248.15 176.37C248.3 176.49 248.43 176.58 248.53 176.66C248.62 176.72 248.66 176.75 248.67 176.75C248.67 176.75 248.64 176.71 248.56 176.63C248.46 176.54 248.35 176.44 248.2 176.31C247.89 176.03 247.4 175.64 246.74 175.19C245.43 174.27 243.37 173.15 240.66 172.23C239.3 171.77 237.79 171.35 236.15 170.97C235.33 170.79 234.48 170.61 233.61 170.42C233.17 170.33 232.72 170.23 232.24 170.21C232 170.2 231.76 170.21 231.52 170.24C231.3 170.27 231.08 170.26 230.85 170.25C228.98 170.07 226.99 169.95 224.95 169.79C222.9 169.62 220.77 169.51 218.59 169.47C209.87 169.26 201.98 169.9 196.31 170.64C193.48 171 191.2 171.4 189.63 171.7C188.87 171.84 188.27 171.96 187.82 172.04C187.63 172.08 187.48 172.11 187.35 172.14C187.25 172.16 187.19 172.18 187.19 172.18Z" fill="#1A2E35"/>
<path d="M248.67 132.21L206.86 133.67C206.24 133.69 205.78 134.24 205.87 134.86L211.89 185.01H202.47L197.61 129.81C197.38 127.93 198.81 126.25 200.71 126.18L249.81 124.42L248.67 132.21Z" fill="#375A64"/>
<path d="M26.44 128.55H32.99V130.01L18.56 267.9H11.83L26.44 128.55Z" fill="#375A64"/>
<path d="M172.73 128.55H166.18V130.04L179.63 267.85H186.36L172.73 128.55Z" fill="#375A64"/>
<path d="M172.73 128.55C172.73 128.55 172.75 128.8 172.79 129.28C172.83 129.76 172.9 130.46 172.98 131.38C173.15 133.23 173.41 135.95 173.74 139.45C174.41 146.46 175.39 156.61 176.59 169.18C179.03 194.3 182.41 229.1 186.17 267.87L186.35 267.67C184.25 267.67 181.99 267.67 179.72 267.67C179.69 267.67 179.65 267.67 179.62 267.67L179.8 267.84C173.42 203.1 168.02 148.25 166.22 130.04V130.05C166.22 129.36 166.22 128.96 166.21 128.57L166.16 128.62C168.39 128.61 170.02 128.6 171.11 128.59C171.65 128.58 172.04 128.58 172.32 128.58C172.6 128.56 172.73 128.55 172.73 128.55C172.73 128.55 172.61 128.54 172.35 128.54C172.08 128.54 171.69 128.53 171.16 128.53C170.07 128.52 168.43 128.51 166.19 128.5H166.14V128.55C166.14 128.94 166.14 129.35 166.13 130.03C167.89 148.25 173.19 203.1 179.46 267.86L179.48 268.03H179.65C179.68 268.03 179.72 268.03 179.75 268.03C182.02 268.03 184.28 268.03 186.38 268.03H186.58L186.56 267.83C182.73 229.02 179.3 194.18 176.82 169.03C175.57 156.48 174.56 146.36 173.86 139.36C173.51 135.88 173.23 133.17 173.05 131.33C172.96 130.42 172.88 129.73 172.83 129.25C172.76 128.79 172.73 128.55 172.73 128.55Z" fill="#1A2E35"/>
<path d="M0.96228 130.005L188.492 130.005L188.492 124.065L0.96228 124.065L0.96228 130.005Z" fill="#375A64"/>
<path d="M20.93 130.01C20.93 130.11 58.31 130.19 104.4 130.19C150.51 130.19 187.88 130.11 187.88 130.01C187.88 129.91 150.51 129.83 104.4 129.83C58.3 129.82 20.93 129.9 20.93 130.01Z" fill="#1A2E35"/>
</svg>
