<svg xmlns="http://www.w3.org/2000/svg" width="53" height="54" viewBox="0 0 53 54" fill="none">
  <mask id="mask0_334_89" style="mask-type:luminance" maskUnits="userSpaceOnUse" x="0" y="0" width="53" height="54">
    <path d="M0.747523 0.926404L0.680664 52.9364L52.6906 53.0032L52.7575 0.993263L0.747523 0.926404Z" fill="white"/>
  </mask>
  <g mask="url(#mask0_334_89)">
    <path d="M6.42004 29.04C6.66004 29.61 6.67003 30.17 6.41003 30.73C6.42003 30.17 6.42004 29.61 6.42004 29.04Z" fill="#FEC717"/>
    <path d="M8.67004 23.34C8.30004 23.61 7.93006 23.58 7.56006 23.36C7.93006 23.35 8.30004 23.35 8.67004 23.34Z" fill="#FEC500"/>
    <path d="M41.4501 19.74C40.0601 19.74 38.6601 19.74 37.2701 19.74C37.1801 19.69 37.1801 19.63 37.2701 19.58C38.6701 19.58 40.0601 19.5699 41.4601 19.5699C41.5301 19.6199 41.5301 19.68 41.4501 19.74Z" fill="#FEC500"/>
    <path d="M6.42003 29.0401C6.43003 27.4101 6.60005 25.8 6.94005 24.2C7.02005 23.81 7.12005 23.47 7.56005 23.36C7.93005 23.43 8.30003 23.47 8.67003 23.34C10.16 23.3 11.35 22.8001 12.31 21.5401C13.78 19.6301 15.6401 18.1701 17.9401 17.2601C20.5201 16.2501 22 14.27 22.6 11.6C22.74 10.99 22.8401 10.3301 23.1401 9.80009C23.7901 8.65009 24.77 8.56006 25.92 9.39006C26.17 9.58006 26.4701 9.70006 26.5801 10.0201C27.9701 12.7801 27.4801 15.3401 25.7501 17.7601C25.6001 17.9701 25.44 18.16 25.3 18.37C24.78 19.11 24.8 19.1701 25.66 19.5601C25.64 19.6101 25.6301 19.66 25.6401 19.71C26.0101 19.91 26.3901 19.87 26.7801 19.74C26.9701 19.74 27.17 19.74 27.36 19.74C28.55 19.95 29.7501 19.76 30.9401 19.83C30.6101 19.81 30.28 19.93 29.97 19.71C32.08 19.46 34.2001 19.6 36.3201 19.59C36.6901 19.72 37.0701 19.6301 37.4501 19.6601C38.7701 19.6601 40.09 19.6601 41.41 19.6601C42.38 19.6101 43.35 19.76 44.31 19.58C46.11 19.65 46.9301 20.76 46.4401 22.46C45.7501 23.19 44.8701 23.5 43.9001 23.59C41.2001 23.82 38.49 24.01 35.79 24.22C34.14 24.35 32.4701 24.3101 30.8401 24.8101C30.9701 25.1001 31.2301 25.1201 31.3801 25.2701C33.0401 27.0201 33.1501 28.38 31.7601 30.08C31.4801 30.4 31.36 30.78 31.43 31.2C32.14 32.73 32.03 34.1701 30.97 35.5101C30.69 35.8401 30.6501 36.21 30.8301 36.6C31.6601 39.03 31.0201 40.63 28.8201 41.62C23.5601 42.02 18.47 41.6701 14.12 38.1601C13.78 37.8801 13.3801 37.6801 13.0201 37.4101C11.4801 36.2601 9.83003 36.17 8.10003 36.88C7.35003 37.11 7.08004 36.6701 6.93004 36.0601C6.84004 35.6901 6.70007 35.34 6.77007 34.95C6.94007 34.76 6.81007 34.52 6.89007 34.32C6.81007 34.41 6.88004 34.57 6.74004 34.63C6.49004 33.35 6.37003 32.06 6.42003 30.75C6.53003 30.17 6.52003 29.6101 6.42003 29.0401Z" fill="#FEC928"/>
    <path d="M8.09009 36.87C9.36009 35.94 10.6901 35.87 12.0901 36.56C13.5801 37.29 14.82 38.39 16.22 39.25C18.56 40.68 21.11 41.27 23.79 41.42C25.47 41.51 27.1501 41.4399 28.8301 41.4399C30.2301 40.9199 31.76 40.76 33.04 39.92C33.2 39.82 33.3901 39.79 33.5601 39.93C32.5201 41.58 30.8401 42.07 29.0801 42.4C28.4901 42.51 27.89 42.51 27.29 42.56C26.15 42.46 25.0101 42.45 23.8801 42.56C20.5901 42.41 17.58 41.4199 14.85 39.5799C14.38 39.2599 13.8901 38.9599 13.4601 38.5899C11.9301 37.2499 10.1801 36.53 8.09009 36.87Z" fill="#ECA500"/>
    <path d="M31.5301 30.01C32.8601 28.28 32.8301 27.56 31.3401 25.44C32.6001 25 33.87 24.95 35.17 25.26C35.99 25.91 36.9001 26.48 36.9901 27.69C37.0201 28.04 37.0601 28.3701 36.8801 28.6801C36.5201 29.4301 35.85 29.77 35.11 29.95C33.92 30.23 32.7301 30.58 31.5301 30.01Z" fill="#FEB200"/>
    <path d="M35.16 25.26C33.89 25.48 32.6101 25.4399 31.3301 25.4399C30.9601 25.2099 30.4701 25.21 30.0801 24.77C31.1001 24.26 32.1701 24.19 33.2401 24.1C36.2501 23.85 39.2601 23.62 42.2701 23.37C42.9301 23.31 43.5901 23.3 44.2501 23.25C45.1001 23.19 45.6501 22.5401 46.4301 22.4301C46.1601 23.7001 45.1601 24.13 44.0801 24.27C41.1101 24.66 38.14 24.94 35.16 25.26Z" fill="#ECA500"/>
    <path d="M30.7501 35.53C30.7501 35.5 30.7501 35.46 30.7601 35.44C31.7601 34.09 31.9001 32.6601 31.1501 31.1601C32.3001 31.1101 33.44 30.93 34.6 30.98C34.72 31.43 35.1301 31.66 35.3701 32.01C35.9301 32.83 35.9501 33.69 35.6501 34.59C34.2101 35.87 32.5201 35.94 30.7501 35.53Z" fill="#FEB200"/>
    <path d="M33.5801 39.9201C32.1001 40.7501 30.5701 41.3801 28.8401 41.4301C30.7001 40.3101 31.4801 39.1801 30.5701 36.4901C31.4901 36.3601 32.4101 36.1801 33.3201 36.5201C33.9501 37.6101 34.4401 38.7101 33.5801 39.9201Z" fill="#FEB200"/>
    <path d="M25.67 19.55C25.31 19.7 24.95 19.82 24.67 19.4C24.41 19.01 24.6901 18.73 24.9001 18.48C25.9701 17.21 26.76 15.83 27.06 14.14C27.29 12.86 26.95 11.71 26.67 10.53C26.63 10.36 26.4301 10.21 26.5901 10.01C28.9101 12.85 28.49 17.22 25.67 19.55Z" fill="#ECA601"/>
    <path d="M34.6001 30.98C33.4701 31.37 32.3201 31.56 31.1501 31.16C31.1201 30.73 31.1601 30.32 31.5301 30.02C32.6301 30.04 33.7301 30.06 34.8101 29.79C35.5901 29.6 36.2601 29.2099 36.8701 28.6899C36.6701 29.9999 35.6201 30.47 34.6001 30.98Z" fill="#ECA601"/>
    <path d="M33.3201 36.52C32.4001 36.6 31.4801 36.86 30.5701 36.49C30.3501 36.12 30.2901 35.78 30.7501 35.53C31.4101 35.19 32.0801 35.59 32.7601 35.5C33.8001 35.37 34.7301 35 35.6601 34.58C35.3301 35.78 34.2401 36.05 33.3201 36.52Z" fill="#ECA601"/>
    <path d="M29.97 19.7C30.37 19.73 30.76 19.76 31.16 19.78C29.89 19.79 28.61 20.15 27.36 19.73C28.23 19.72 29.1 19.71 29.97 19.7Z" fill="#FEC716"/>
    <path d="M41.4501 19.74V19.65V19.56C42.4001 19.5 43.35 19.4599 44.3 19.5699C43.37 19.9599 42.3901 19.64 41.4501 19.74Z" fill="#FEC716"/>
    <path d="M37.2601 19.5699C37.2601 19.6199 37.2601 19.68 37.2601 19.73C36.9401 19.69 36.5901 19.8399 36.3201 19.5699C36.6301 19.5799 36.9501 19.5699 37.2601 19.5699Z" fill="#FEC718"/>
    <path d="M6.73004 34.61C6.75004 34.46 6.77007 34.32 6.82007 33.97C6.96007 34.45 7.03007 34.7099 6.76007 34.9399C6.76007 34.8199 6.75004 34.72 6.73004 34.61Z" fill="#FEC81C"/>
  </g>
</svg>