<?xml version="1.0" standalone="no"?>
<!DOCTYPE svg PUBLIC "-//W3C//DTD SVG 20010904//EN"
 "http://www.w3.org/TR/2001/REC-SVG-20010904/DTD/svg10.dtd">
<svg version="1.0" xmlns="http://www.w3.org/2000/svg"
 width="172.000000pt" height="82.000000pt" viewBox="0 0 172.000000 82.000000"
 preserveAspectRatio="xMidYMid meet">
<metadata>
Created by potrace 1.16, written by Peter Selinger 2001-2019
</metadata>
<g transform="translate(0.000000,82.000000) scale(0.100000,-0.100000)"
fill="#000000" stroke="none">
<path d="M85 768 c-2 -7 -20 -78 -40 -158 -20 -80 -38 -153 -41 -163 -5 -16 0
-18 47 -15 l53 3 17 68 c9 38 19 71 22 73 2 3 10 -23 16 -56 l12 -60 39 0 c37
0 41 3 80 68 32 52 40 60 36 37 -3 -16 -8 -54 -11 -82 l-7 -53 50 0 51 0 6 43
c4 23 14 102 24 175 l18 132 -56 0 -56 0 -54 -93 -55 -92 -7 35 c-4 19 -12 61
-19 93 l-11 57 -55 0 c-35 0 -56 -5 -59 -12z"/>
<path d="M1286 744 c-9 -25 -8 -28 30 -78 27 -35 33 -51 25 -59 -20 -20 -12
-41 38 -103 38 -47 58 -63 84 -68 19 -3 44 -17 57 -31 13 -14 28 -25 34 -25
14 0 166 101 166 110 0 4 -7 13 -14 20 -8 6 -23 33 -33 58 -9 26 -37 73 -62
105 -46 59 -68 69 -111 47 -11 -5 -29 -14 -40 -20 -34 -17 -54 -11 -83 25 -31
38 -80 49 -91 19z m136 -129 c24 -27 27 -28 33 -12 5 11 1 25 -10 37 -10 11
-14 20 -8 20 5 0 18 -9 27 -19 10 -11 24 -17 32 -14 13 5 13 9 -1 29 -18 28
-10 31 16 8 24 -22 43 -10 28 18 -19 36 7 15 50 -39 22 -28 43 -64 47 -80 4
-15 14 -38 21 -50 14 -21 12 -24 -41 -59 l-56 -37 -23 21 c-13 12 -37 25 -55
28 -23 5 -44 22 -72 57 -22 27 -40 55 -40 61 0 6 12 -4 26 -21 25 -32 54 -44
54 -22 0 6 -29 49 -65 94 -69 89 -90 131 -27 55 20 -24 49 -58 64 -75z"/>
<path d="M912 694 c-12 -8 -22 -10 -22 -5 0 6 -20 11 -45 11 -42 0 -45 -2 -45
-28 0 -15 -9 -74 -20 -132 -11 -58 -20 -106 -20 -108 0 -2 23 -2 52 0 l52 3
16 85 c18 97 24 110 51 110 23 0 23 2 4 -97 -21 -108 -22 -103 35 -103 28 0
50 2 50 4 0 2 9 48 20 101 11 53 20 106 20 116 0 10 -9 28 -20 39 -25 25 -95
27 -128 4z"/>
<path d="M495 678 c-11 -50 -35 -184 -35 -200 0 -10 9 -27 20 -38 25 -25 95
-27 128 -4 12 8 22 10 22 5 0 -6 20 -11 45 -11 43 0 45 1 45 30 0 16 9 76 20
132 11 57 20 104 20 106 0 1 -24 2 -53 2 l-52 0 -17 -92 c-11 -62 -23 -97 -35
-105 -31 -24 -37 1 -19 95 9 50 16 93 16 96 0 3 -22 6 -50 6 -43 0 -50 -3 -55
-22z"/>
<path d="M1116 678 c-14 -64 -46 -232 -46 -240 0 -5 23 -8 52 -6 l51 3 23 115
c32 159 33 150 -26 150 -43 0 -50 -3 -54 -22z"/>
<path d="M517 241 c-44 -226 -38 -246 69 -239 35 2 66 6 69 9 3 3 2 20 -1 38
-6 28 -10 32 -31 28 -13 -2 -26 -1 -28 3 -3 4 6 61 19 126 39 196 41 174 -19
174 l-52 0 -26 -139z"/>
<path d="M134 320 c-61 -24 -88 -132 -42 -164 44 -31 128 -14 128 25 0 19 -4
20 -34 15 -19 -4 -37 -3 -40 2 -3 5 9 12 26 16 43 8 68 33 68 67 0 43 -51 62
-106 39z"/>
<path d="M346 323 c-3 -4 -24 -6 -45 -5 l-38 3 -6 -54 c-4 -29 -10 -67 -13
-85 -6 -31 -6 -32 29 -32 34 0 35 1 42 48 4 26 11 55 17 66 16 30 28 4 18 -39
-16 -68 -14 -75 24 -75 l33 0 13 76 c12 72 12 78 -5 90 -20 15 -57 19 -69 7z"/>
<path d="M996 283 c-4 -4 -33 -6 -64 -5 l-57 3 -19 -108 c-11 -59 -21 -120
-24 -136 -4 -26 -3 -27 46 -27 l50 0 11 50 c6 27 14 68 17 90 7 44 26 65 49
56 10 -4 14 -13 10 -28 -3 -13 -12 -56 -19 -96 l-14 -72 53 0 52 0 17 83 c23
116 21 162 -6 181 -23 16 -89 22 -102 9z"/>
<path d="M1245 276 c-108 -49 -142 -216 -54 -262 36 -18 120 -18 164 0 33 14
34 16 24 45 -12 34 -17 36 -53 20 -29 -14 -76 -4 -76 15 0 9 18 16 51 20 69 9
109 48 109 104 0 24 -6 45 -16 53 -22 18 -113 22 -149 5z"/>
<path d="M1514 271 c-50 -23 -82 -65 -93 -124 -11 -63 -3 -104 27 -127 30 -24
89 -26 120 -4 13 9 22 11 22 4 0 -7 16 -10 43 -8 l42 3 7 55 c4 30 14 88 21
127 l15 73 -37 10 c-55 15 -121 12 -167 -9z"/>
<path d="M701 163 c-12 -65 -24 -126 -27 -135 -5 -16 2 -18 49 -18 l54 0 11
62 c7 35 18 96 26 136 l14 72 -53 0 -53 0 -21 -117z"/>
</g>
</svg>
