<?xml version="1.0" encoding="UTF-8"?>
<!DOCTYPE svg PUBLIC "-//W3C//DTD SVG 1.1//EN" "http://www.w3.org/Graphics/SVG/1.1/DTD/svg11.dtd">
<svg xmlns="http://www.w3.org/2000/svg" version="1.1" width="95px" height="94px" style="shape-rendering:geometricPrecision; text-rendering:geometricPrecision; image-rendering:optimizeQuality; fill-rule:evenodd; clip-rule:evenodd" xmlns:xlink="http://www.w3.org/1999/xlink">
<g><path style="opacity:1" fill="#fdfcfc" d="M -0.5,-0.5 C 31.1667,-0.5 62.8333,-0.5 94.5,-0.5C 94.5,30.8333 94.5,62.1667 94.5,93.5C 83.5,93.5 72.5,93.5 61.5,93.5C 61.1734,88.7863 61.5067,84.1196 62.5,79.5C 65.2052,81.2008 67.8719,81.5341 70.5,80.5C 75.2309,81.2241 78.5642,79.5575 80.5,75.5C 81.3261,70.6835 81.8261,65.6835 82,60.5C 84.2188,55.7567 85.2188,50.7567 85,45.5C 84.3333,46.1667 83.6667,46.8333 83,47.5C 82,40.8333 81,40.8333 80,47.5C 79.4569,45.3686 78.6236,43.3686 77.5,41.5C 77.0257,43.8616 76.6924,46.195 76.5,48.5C 75.8333,47.1667 75.1667,45.8333 74.5,44.5C 74.1667,45.1667 73.8333,45.8333 73.5,46.5C 74.9371,48.5771 75.6038,50.9105 75.5,53.5C 73.6693,52.9478 72.0026,52.9478 70.5,53.5C 73.2361,55.5693 75.5695,57.9026 77.5,60.5C 76.2172,64.0085 74.5505,67.3418 72.5,70.5C 71.5,70.5 70.5,70.5 69.5,70.5C 63.5225,67.9637 57.1892,66.6304 50.5,66.5C 53.2128,64.7865 55.2128,62.4532 56.5,59.5C 57.8609,57.1642 59.8609,55.4975 62.5,54.5C 63.0678,51.548 64.2344,48.8813 66,46.5C 66.3118,43.6912 65.8118,41.0245 64.5,38.5C 64.5037,34.9726 64.8371,31.4726 65.5,28C 64.6492,20.9908 60.9826,15.9908 54.5,13C 49.5943,11.5235 44.5943,10.5235 39.5,10C 38.0337,9.36453 36.7003,8.53119 35.5,7.5C 30.9594,9.87268 27.7927,13.5393 26,18.5C 24.7264,25.1028 24.2264,31.7695 24.5,38.5C 22.2776,38.5587 21.2776,39.7253 21.5,42C 22.0931,45.1514 22.5931,48.318 23,51.5C 24.3561,52.3802 25.8561,52.7135 27.5,52.5C 27.523,54.9267 28.023,57.26 29,59.5C 31.3875,62.7095 33.8875,65.7095 36.5,68.5C 32.6899,68.379 29.5232,69.7124 27,72.5C 24.3955,78.8175 21.8955,85.1509 19.5,91.5C 18.6618,91.8417 18.3284,92.5084 18.5,93.5C 12.1667,93.5 5.83333,93.5 -0.5,93.5C -0.5,62.1667 -0.5,30.8333 -0.5,-0.5 Z"/></g>
<g><path style="opacity:1" fill="#2a1e1f" d="M 64.5,38.5 C 63.596,39.209 63.2627,40.209 63.5,41.5C 62.8333,38.1667 62.1667,34.8333 61.5,31.5C 60.5,28.5 58.5,26.5 55.5,25.5C 50.6946,24.5128 45.6946,24.1795 40.5,24.5C 35.3589,22.3482 31.1922,23.6816 28,28.5C 26.8054,32.7514 26.3054,37.0848 26.5,41.5C 24.9519,41.1788 24.2852,40.1788 24.5,38.5C 24.2264,31.7695 24.7264,25.1028 26,18.5C 27.7927,13.5393 30.9594,9.87268 35.5,7.5C 36.7003,8.53119 38.0337,9.36453 39.5,10C 44.5943,10.5235 49.5943,11.5235 54.5,13C 60.9826,15.9908 64.6492,20.9908 65.5,28C 64.8371,31.4726 64.5037,34.9726 64.5,38.5 Z"/></g>
<g><path style="opacity:1" fill="#f3b59c" d="M 40.5,24.5 C 45.6946,24.1795 50.6946,24.5128 55.5,25.5C 53.712,25.2148 52.0453,25.5481 50.5,26.5C 51.09,27.7989 52.09,28.6322 53.5,29C 51.9419,29.21 50.6085,29.71 49.5,30.5C 50.6354,32.2132 52.302,32.8799 54.5,32.5C 55.3984,33.1577 56.3984,33.8243 57.5,34.5C 57.3333,34.8333 57.1667,35.1667 57,35.5C 52.9623,34.3291 48.9623,34.6624 45,36.5C 40.577,36.432 37.077,34.7654 34.5,31.5C 36.604,31.7989 38.604,31.4656 40.5,30.5C 40.0431,29.7025 39.3764,29.3691 38.5,29.5C 36.0314,28.6829 33.3647,28.1829 30.5,28C 33.0704,24.882 36.4037,23.7153 40.5,24.5 Z"/></g>
<g><path style="opacity:1" fill="#6b4439" d="M 61.5,31.5 C 62.1667,34.8333 62.8333,38.1667 63.5,41.5C 63.6882,43.1033 63.1882,44.4366 62,45.5C 61.5008,40.8452 61.3342,36.1785 61.5,31.5 Z"/></g>
<g><path style="opacity:1" fill="#eda088" d="M 40.5,24.5 C 36.4037,23.7153 33.0704,24.882 30.5,28C 33.3647,28.1829 36.0314,28.6829 38.5,29.5C 35.6035,29.1253 32.9368,29.6253 30.5,31C 31.7932,31.49 33.1266,31.6567 34.5,31.5C 37.077,34.7654 40.577,36.432 45,36.5C 48.9623,34.6624 52.9623,34.3291 57,35.5C 57.1667,35.1667 57.3333,34.8333 57.5,34.5C 56.3984,33.8243 55.3984,33.1577 54.5,32.5C 57.0972,32.2792 57.0972,31.7792 54.5,31C 52.8659,30.5065 51.1992,30.3398 49.5,30.5C 50.6085,29.71 51.9419,29.21 53.5,29C 52.09,28.6322 51.09,27.7989 50.5,26.5C 52.0453,25.5481 53.712,25.2148 55.5,25.5C 58.5,26.5 60.5,28.5 61.5,31.5C 61.3342,36.1785 61.5008,40.8452 62,45.5C 63.1882,44.4366 63.6882,43.1033 63.5,41.5C 63.2627,40.209 63.596,39.209 64.5,38.5C 65.8118,41.0245 66.3118,43.6912 66,46.5C 64.2344,48.8813 63.0678,51.548 62.5,54.5C 59.8609,55.4975 57.8609,57.1642 56.5,59.5C 56.719,58.325 56.3857,57.325 55.5,56.5C 54.3777,57.6302 53.0443,58.2969 51.5,58.5C 52.3007,56.9582 52.634,55.2915 52.5,53.5C 53.5,53.5 54.5,53.5 55.5,53.5C 56.4538,50.5825 57.1205,47.5825 57.5,44.5C 57.3333,43.1667 57.1667,41.8333 57,40.5C 56.3292,39.7476 55.4959,39.4142 54.5,39.5C 53.1667,39.5 51.8333,39.5 50.5,39.5C 48.5063,42.0686 47.173,44.7353 46.5,47.5C 47.5481,49.4104 47.5481,51.2438 46.5,53C 47.3805,53.7083 48.0472,54.5416 48.5,55.5C 44.6286,55.815 40.9619,55.4816 37.5,54.5C 38.6085,53.71 39.9419,53.21 41.5,53C 37.9153,51.3974 37.582,49.2307 40.5,46.5C 40.1125,43.7617 39.1125,41.4283 37.5,39.5C 37.5,39.1667 37.5,38.8333 37.5,38.5C 34.9882,37.1326 32.6548,37.466 30.5,39.5C 30.0267,44.74 31.3601,49.4067 34.5,53.5C 34.6287,55.2161 34.962,56.8828 35.5,58.5C 33.1964,55.3419 31.0297,52.0085 29,48.5C 28.6667,47.1667 28.3333,45.8333 28,44.5C 27.6667,45.1667 27.3333,45.8333 27,46.5C 26.5065,44.8659 26.3398,43.1992 26.5,41.5C 26.3054,37.0848 26.8054,32.7514 28,28.5C 31.1922,23.6816 35.3589,22.3482 40.5,24.5 Z"/></g>
<g><path style="opacity:1" fill="#eeb19b" d="M 50.5,39.5 C 50.5,40.8333 50.5,42.1667 50.5,43.5C 51.8734,43.6567 53.2068,43.49 54.5,43C 53.3157,41.8545 53.3157,40.6879 54.5,39.5C 55.4959,39.4142 56.3292,39.7476 57,40.5C 57.1667,41.8333 57.3333,43.1667 57.5,44.5C 57.1205,47.5825 56.4538,50.5825 55.5,53.5C 54.5,53.5 53.5,53.5 52.5,53.5C 52.634,55.2915 52.3007,56.9582 51.5,58.5C 51.1667,58.5 50.8333,58.5 50.5,58.5C 50.6716,57.5084 50.3382,56.8417 49.5,56.5C 49.5,55.8333 49.1667,55.5 48.5,55.5C 48.0472,54.5416 47.3805,53.7083 46.5,53C 47.5481,51.2438 47.5481,49.4104 46.5,47.5C 47.173,44.7353 48.5063,42.0686 50.5,39.5 Z"/></g>
<g><path style="opacity:1" fill="#f4ba9f" d="M 30.5,39.5 C 31.5,39.5 32.5,39.5 33.5,39.5C 33.5,40.5 33.5,41.5 33.5,42.5C 34.9778,42.762 36.3112,42.4287 37.5,41.5C 36.4502,40.5712 36.4502,39.9046 37.5,39.5C 39.1125,41.4283 40.1125,43.7617 40.5,46.5C 37.582,49.2307 37.9153,51.3974 41.5,53C 39.9419,53.21 38.6085,53.71 37.5,54.5C 36.8333,54.5 36.1667,54.5 35.5,54.5C 35.5,53.8333 35.1667,53.5 34.5,53.5C 31.3601,49.4067 30.0267,44.74 30.5,39.5 Z"/></g>
<g><path style="opacity:1" fill="#331f22" d="M 50.5,39.5 C 51.8333,39.5 53.1667,39.5 54.5,39.5C 53.3157,40.6879 53.3157,41.8545 54.5,43C 53.2068,43.49 51.8734,43.6567 50.5,43.5C 50.5,42.1667 50.5,40.8333 50.5,39.5 Z"/></g>
<g><path style="opacity:1" fill="#40252a" d="M 37.5,38.5 C 37.5,38.8333 37.5,39.1667 37.5,39.5C 36.4502,39.9046 36.4502,40.5712 37.5,41.5C 36.3112,42.4287 34.9778,42.762 33.5,42.5C 33.5,41.5 33.5,40.5 33.5,39.5C 34.5676,38.5655 35.901,38.2322 37.5,38.5 Z"/></g>
<g><path style="opacity:1" fill="#926052" d="M 37.5,38.5 C 35.901,38.2322 34.5676,38.5655 33.5,39.5C 32.5,39.5 31.5,39.5 30.5,39.5C 32.6548,37.466 34.9882,37.1326 37.5,38.5 Z"/></g>
<g><path style="opacity:1" fill="#55362e" d="M 49.5,30.5 C 51.1992,30.3398 52.8659,30.5065 54.5,31C 57.0972,31.7792 57.0972,32.2792 54.5,32.5C 52.302,32.8799 50.6354,32.2132 49.5,30.5 Z"/></g>
<g><path style="opacity:1" fill="#774b41" d="M 38.5,29.5 C 39.3764,29.3691 40.0431,29.7025 40.5,30.5C 38.604,31.4656 36.604,31.7989 34.5,31.5C 33.1266,31.6567 31.7932,31.49 30.5,31C 32.9368,29.6253 35.6035,29.1253 38.5,29.5 Z"/></g>
<g><path style="opacity:1" fill="#f4b9a3" d="M 80.5,75.5 C 80.8293,69.4632 80.4959,63.4632 79.5,57.5C 78.8243,58.6016 78.1577,59.6016 77.5,60.5C 75.5695,57.9026 73.2361,55.5693 70.5,53.5C 72.0026,52.9478 73.6693,52.9478 75.5,53.5C 75.6038,50.9105 74.9371,48.5771 73.5,46.5C 73.8333,45.8333 74.1667,45.1667 74.5,44.5C 75.1667,45.8333 75.8333,47.1667 76.5,48.5C 76.6924,46.195 77.0257,43.8616 77.5,41.5C 78.6236,43.3686 79.4569,45.3686 80,47.5C 81,40.8333 82,40.8333 83,47.5C 83.6667,46.8333 84.3333,46.1667 85,45.5C 85.2188,50.7567 84.2188,55.7567 82,60.5C 81.8261,65.6835 81.3261,70.6835 80.5,75.5 Z"/></g>
<g><path style="opacity:1" fill="#d5c5c5" d="M 35.5,54.5 C 36.1667,54.5 36.8333,54.5 37.5,54.5C 40.9619,55.4816 44.6286,55.815 48.5,55.5C 49.1667,55.5 49.5,55.8333 49.5,56.5C 46.592,57.5691 43.592,57.7358 40.5,57C 38.3474,56.9005 36.6808,56.0672 35.5,54.5 Z"/></g>
<g><path style="opacity:1" fill="#311d1c" d="M 34.5,53.5 C 35.1667,53.5 35.5,53.8333 35.5,54.5C 36.6808,56.0672 38.3474,56.9005 40.5,57C 43.592,57.7358 46.592,57.5691 49.5,56.5C 50.3382,56.8417 50.6716,57.5084 50.5,58.5C 49.5,59.1667 48.5,59.8333 47.5,60.5C 44.2356,59.6758 40.9023,59.3424 37.5,59.5C 36.8333,59.1667 36.1667,58.8333 35.5,58.5C 34.962,56.8828 34.6287,55.2161 34.5,53.5 Z"/></g>
<g><path style="opacity:1" fill="#ed967c" d="M 24.5,38.5 C 24.2852,40.1788 24.9519,41.1788 26.5,41.5C 26.3398,43.1992 26.5065,44.8659 27,46.5C 27.3333,45.8333 27.6667,45.1667 28,44.5C 28.3333,45.8333 28.6667,47.1667 29,48.5C 31.0297,52.0085 33.1964,55.3419 35.5,58.5C 36.1667,58.8333 36.8333,59.1667 37.5,59.5C 37.6107,60.1174 37.944,60.6174 38.5,61C 41.6965,61.8045 44.6965,61.6378 47.5,60.5C 48.5,59.8333 49.5,59.1667 50.5,58.5C 50.8333,58.5 51.1667,58.5 51.5,58.5C 53.0443,58.2969 54.3777,57.6302 55.5,56.5C 56.3857,57.325 56.719,58.325 56.5,59.5C 55.2128,62.4532 53.2128,64.7865 50.5,66.5C 46.47,71.9746 41.8033,72.6412 36.5,68.5C 33.8875,65.7095 31.3875,62.7095 29,59.5C 28.023,57.26 27.523,54.9267 27.5,52.5C 25.8561,52.7135 24.3561,52.3802 23,51.5C 22.5931,48.318 22.0931,45.1514 21.5,42C 21.2776,39.7253 22.2776,38.5587 24.5,38.5 Z"/></g>
<g><path style="opacity:1" fill="#be565c" d="M 37.5,59.5 C 40.9023,59.3424 44.2356,59.6758 47.5,60.5C 44.6965,61.6378 41.6965,61.8045 38.5,61C 37.944,60.6174 37.6107,60.1174 37.5,59.5 Z"/></g>
<g><path style="opacity:1" fill="#f2a388" d="M 80.5,75.5 C 78.5642,79.5575 75.2309,81.2241 70.5,80.5C 71.3739,77.2107 72.0405,73.8774 72.5,70.5C 74.5505,67.3418 76.2172,64.0085 77.5,60.5C 78.1577,59.6016 78.8243,58.6016 79.5,57.5C 80.4959,63.4632 80.8293,69.4632 80.5,75.5 Z"/></g>
<g><path style="opacity:1" fill="#858585" d="M 50.5,66.5 C 57.1892,66.6304 63.5225,67.9637 69.5,70.5C 69.5,72.5 69.5,74.5 69.5,76.5C 66.2123,76.073 63.2123,76.7397 60.5,78.5C 59.2964,82.401 57.9631,86.2343 56.5,90C 48.8117,90.8315 41.145,90.6648 33.5,89.5C 28.155,78.7668 26.155,79.1002 27.5,90.5C 24.7938,90.5751 22.1272,90.9084 19.5,91.5C 21.8955,85.1509 24.3955,78.8175 27,72.5C 29.5232,69.7124 32.6899,68.379 36.5,68.5C 41.8033,72.6412 46.47,71.9746 50.5,66.5 Z"/></g>
<g><path style="opacity:1" fill="#737272" d="M 69.5,70.5 C 70.5,70.5 71.5,70.5 72.5,70.5C 72.0405,73.8774 71.3739,77.2107 70.5,80.5C 67.8719,81.5341 65.2052,81.2008 62.5,79.5C 61.5067,84.1196 61.1734,88.7863 61.5,93.5C 47.1667,93.5 32.8333,93.5 18.5,93.5C 18.3284,92.5084 18.6618,91.8417 19.5,91.5C 22.1272,90.9084 24.7938,90.5751 27.5,90.5C 26.155,79.1002 28.155,78.7668 33.5,89.5C 41.145,90.6648 48.8117,90.8315 56.5,90C 57.9631,86.2343 59.2964,82.401 60.5,78.5C 63.2123,76.7397 66.2123,76.073 69.5,76.5C 69.5,74.5 69.5,72.5 69.5,70.5 Z"/></g>
</svg>
