 <svg
            xmlns="http://www.w3.org/2000/svg"
            width="26"
            height="26"
            viewBox="0 0 26 26"
            fill="none"
          >
            <path
              d="M17.0625 8.9375H19.0938C19.6325 8.9375 20.1491 9.15151 20.5301 9.53244C20.911 9.91337 21.125 10.43 21.125 10.9688V21.5312C21.125 22.07 20.911 22.5866 20.5301 22.9676C20.1491 23.3485 19.6325 23.5625 19.0938 23.5625H6.90625C6.36753 23.5625 5.85087 23.3485 5.46994 22.9676C5.08901 22.5866 4.875 22.07 4.875 21.5312V10.9688C4.875 10.43 5.08901 9.91337 5.46994 9.53244C5.85087 9.15151 6.36753 8.9375 6.90625 8.9375H8.9375"
              stroke="#019939"
              stroke-width="2.5"
              stroke-linecap="round"
              stroke-linejoin="round"
            />
            <path
              d="M8.9375 13.8125L13 17.875L17.0625 13.8125M13 2.4375V17.0625"
              stroke="#019939"
              stroke-width="2.5"
              stroke-linecap="round"
              stroke-linejoin="round"
            />
          </svg>