<svg width="135" height="69" viewBox="0 0 135 69" fill="none" xmlns="http://www.w3.org/2000/svg">
<g clip-path="url(#clip0_323_1281)">
<path d="M18.4811 45.3242C18.4811 50.0224 13.0897 50.8686 10.0497 51.0625C10.0229 52.323 10.7024 53.3807 12.437 53.3807C13.796 53.3807 15.1014 52.7901 16.1296 52.2084L17.122 55.2053C16.5588 55.5932 14.3146 56.8536 11.1316 56.8536C6.99191 56.8536 5.28418 54.3944 5.28418 51.0889C5.28418 46.3291 8.49399 41.6574 14.0016 41.6574C16.7823 41.6574 18.4811 42.9179 18.4811 45.3242ZM13.3221 44.9629C11.6502 44.9629 10.7114 46.7258 10.3448 48.233C11.9899 48.1537 14.3146 47.3692 14.3146 45.8531C14.3146 45.2449 13.8318 44.9629 13.3221 44.9629Z" fill="white"/>
<path d="M18.7051 56.4041L20.7526 44.9628L20.9224 42.0805H24.8386L24.8922 43.623C26.0009 42.4242 27.4762 41.6662 29.3806 41.6662C31.7321 41.6662 33.1537 42.7328 33.1805 45.1391C33.1805 45.5887 33.1269 46.144 33.0375 46.6817L31.2761 56.4217H26.5374L28.0126 48.0567C28.1021 47.6072 28.2362 46.9637 28.2362 46.4348C28.2362 45.8795 28.0126 45.2625 27.1543 45.2625C25.9383 45.2625 25.2231 46.1616 25.0264 47.3339L23.408 56.4305H18.7051V56.4041Z" fill="white"/>
<path d="M50.3645 37.4969L46.2784 60.2736C46.189 60.8025 46.1443 61.3401 46.1443 61.7368C46.189 62.8034 46.6808 63.2 47.7179 63.2C48.3885 63.2 49.381 62.9356 50.5075 62.4948L51.3122 67.4133C49.5598 68.4358 46.6808 69.0088 44.6601 69.0088C39.8946 69.0088 38.4998 66.8404 38.4551 63.4204C38.4551 62.442 38.5892 61.3842 38.768 60.2736L42.854 37.4969H50.3645Z" fill="white"/>
<path d="M53.1094 68.2948L57.1596 45.6063H64.6701L60.6198 68.2948H53.1094ZM62.6852 35.4608C64.7952 35.4608 66.1006 36.8799 66.1006 38.6075C66.1006 40.9522 64.0353 42.8209 61.3798 42.8209C59.225 42.8209 58.009 41.534 58.009 39.7622C58.009 37.4528 59.985 35.4608 62.6852 35.4608Z" fill="white"/>
<path d="M65.2871 68.2948L68.5237 50.1722L68.792 45.6063H74.997L75.0864 48.0479C76.8389 46.144 79.1725 44.9452 82.1856 44.9452C85.914 44.9452 88.1671 46.6288 88.2118 50.4366C88.2118 51.1418 88.1224 52.0321 87.9883 52.8783L85.1987 68.3036H77.6883L80.0219 55.0554C80.156 54.3503 80.3795 53.3278 80.3795 52.4816C80.3795 51.5913 80.0219 50.6217 78.6718 50.6217C76.7405 50.6217 75.614 52.0409 75.301 53.9007L72.735 68.3036H65.2871V68.2948Z" fill="white"/>
<path d="M111.083 50.7451C111.083 58.1934 102.544 59.5155 97.7338 59.8329C97.6891 61.8249 98.771 63.5085 101.507 63.5085C103.662 63.5085 105.736 62.5742 107.354 61.6487L108.928 66.3909C108.025 67.0079 104.475 69.0088 99.4416 69.0088C92.8789 69.0088 90.1787 65.1128 90.1787 59.8769C90.1787 52.3405 95.2572 44.9452 103.975 44.9452C108.392 44.9363 111.083 46.9372 111.083 50.7451ZM102.902 50.1722C100.246 50.1722 98.7621 52.9664 98.1809 55.3551C100.792 55.2229 104.475 53.98 104.475 51.5913C104.475 50.6129 103.715 50.1722 102.902 50.1722Z" fill="white"/>
<path d="M131.987 63.5086L131.674 68.2948H125.335V66.2146L125.111 66.1705C123.537 67.9863 121.517 68.9647 118.817 68.9647C114.006 68.9647 111.852 65.4654 111.852 60.6791C111.852 51.5913 116.975 44.9452 126.372 44.9452C128.258 44.9452 131.629 45.3859 135 46.7169L131.987 63.5086ZM126.953 50.4807C126.461 50.2603 125.737 50.1281 124.932 50.1281C120.846 50.1281 119.362 56.2013 119.362 59.8329C119.362 61.9572 119.854 63.6848 122.017 63.6848C123.546 63.6848 124.628 62.7064 125.075 61.1551L126.953 50.4807Z" fill="white"/>
<path d="M112.754 10.833C112.084 11.0181 111.512 11.4324 111.127 11.9965L106.845 6.13488C106.389 5.50905 105.7 5.07714 104.931 4.94492C104.931 4.94492 103.724 4.76863 102.571 5.44735C101.203 6.41694 100.89 8.30325 101.873 9.66069L102.463 10.4716L103.662 12.1111L107.354 17.1618C105.745 17.6026 104.797 19.2421 105.244 20.8375C105.342 21.1901 105.503 21.525 105.727 21.8159L109.983 27.6423L111.673 29.9517L112.29 30.7891C112.424 30.9742 112.62 31.1064 112.844 31.1681L118.79 32.8076L121.561 36.6066C121.892 37.0562 122.527 37.162 122.983 36.8358L134.579 28.6031C135.035 28.2769 135.134 27.6511 134.812 27.2016L131.942 23.2791L130.672 18.2108C130.636 18.0874 130.583 17.9728 130.511 17.867L123.958 8.88501C122.947 7.56283 121.07 7.26314 119.684 8.19748C119.255 8.50598 118.924 8.91145 118.709 9.38744C117.234 8.77923 115.535 9.41388 114.838 10.833M122.607 34.6146L120.22 31.3444C120.086 31.1593 119.889 31.0271 119.666 30.9654L113.72 29.3259L107.372 20.6259C107.059 20.1676 107.175 19.5418 107.649 19.2332C108.096 18.9336 108.695 19.0305 109.026 19.4536L112.611 24.3633L114.266 23.191L103.536 8.48836C103.206 8.03882 103.313 7.41299 103.769 7.08685C104.234 6.76953 104.86 6.8753 105.199 7.31603L112.951 17.9287L113.55 18.7484L115.204 17.5761L112.817 14.3059C112.504 13.8476 112.629 13.2217 113.094 12.9132C113.541 12.6224 114.149 12.7193 114.471 13.1424L115.07 13.9622L116.858 16.4126L118.512 15.2403L117.913 14.4205L116.724 12.7898C116.393 12.3403 116.501 11.7057 116.957 11.3883C117.413 11.0622 118.056 11.168 118.378 11.6175L118.968 12.4284L120.158 14.0591L121.812 12.8868L120.632 11.2561C120.301 10.8066 120.408 10.1807 120.864 9.85461C121.32 9.5461 121.955 9.64306 122.286 10.0838L128.732 18.9071L130.011 23.9755C130.046 24.0989 130.1 24.2134 130.172 24.3192L132.559 27.5894L122.607 34.6146Z" fill="white"/>
<path d="M27.3773 3.36713H35.3795L31.6511 32.834H24.3731L26.2597 17.4615H26.0809L19.0711 29.8724H13.635L11.0242 17.6907H10.8901L7.27797 32.834H0L6.96503 3.36713H14.9672L18.025 19.9384H18.2039L27.3773 3.36713Z" fill="white"/>
<path d="M59.3324 10.1455L56.0957 28.5326L55.7828 32.8341H49.4883V30.6657L49.2201 30.6216C47.1994 32.79 44.991 33.4158 42.9256 33.4158C38.6071 33.4158 36.4971 31.5119 36.4971 27.6599C36.4971 26.9989 36.5865 26.1086 36.7206 25.3153L39.4208 10.1631H46.9312L44.3562 24.4162C44.2668 25.0332 44.1774 25.615 44.1774 26.0998C44.1774 27.1223 44.535 27.8274 45.9745 27.8274C47.5481 27.8274 48.9429 26.5405 49.2559 24.7247L51.8219 10.1455H59.3324Z" fill="white"/>
<path d="M60.0029 32.834L63.2396 14.7114L63.5078 10.1455H69.7128L69.8023 12.5783C71.5547 10.6744 73.8883 9.47559 76.9014 9.47559C80.6298 9.47559 82.8829 11.1592 82.9276 14.967C82.9276 15.6722 82.8382 16.5625 82.7041 17.4086L79.9145 32.8252H72.4041L74.7377 19.577C74.8718 18.8719 75.0953 17.8494 75.0953 17.0032C75.0953 16.1129 74.7377 15.1433 73.3876 15.1433C71.4563 15.1433 70.3298 16.5625 70.0168 18.4223L67.4508 32.8252H60.0029V32.834Z" fill="white"/>
<path d="M84.4473 32.8341L88.4886 10.1455H95.999L91.9577 32.8341H84.4473ZM94.0231 0C96.1331 0 97.4385 1.41914 97.4385 3.14678C97.4385 5.49144 95.3732 7.36012 92.7177 7.36012C90.5629 7.36012 89.3469 6.0732 89.3469 4.30148C89.3469 1.99208 91.3229 0 94.0231 0Z" fill="white"/>
</g>
<defs>
<clipPath id="clip0_323_1281">
<rect width="135" height="69" fill="white"/>
</clipPath>
</defs>
</svg>
